{"glyphs":{"0":{"ha":751,"x_min":63,"x_max":688,"o":"m 374 -17 q 130 100 197 -17 q 63 425 63 217 q 131 751 63 633 q 374 869 199 869 q 619 752 551 869 q 688 425 688 635 q 619 100 688 217 q 374 -17 551 -17 m 374 42 q 510 144 472 42 q 547 425 547 246 q 511 717 547 622 q 374 811 475 811 q 240 716 275 811 q 204 425 204 621 q 241 144 204 246 q 374 42 278 42 z "},"1":{"ha":751,"x_min":139,"x_max":643,"o":"m 643 58 l 643 0 l 146 0 l 146 58 l 329 58 l 329 718 l 139 714 l 139 769 q 289 794 211 771 q 411 851 367 817 l 469 851 l 469 58 l 643 58 z "},"2":{"ha":751,"x_min":85,"x_max":660,"o":"m 96 617 q 372 868 115 868 q 577 812 503 868 q 651 660 651 756 q 620 531 651 592 q 506 386 589 471 l 235 113 l 660 113 l 660 0 l 85 0 l 85 90 l 379 386 q 461 484 433 442 q 499 566 489 526 q 510 660 510 606 q 474 771 510 732 q 372 810 439 810 q 260 758 299 810 q 218 594 222 706 l 96 617 z "},"3":{"ha":751,"x_min":72,"x_max":660,"o":"m 464 424 q 606 355 553 407 q 660 215 660 303 q 580 47 660 110 q 357 -17 500 -17 q 153 38 224 -17 q 72 204 83 92 l 194 218 q 242 88 201 133 q 357 43 283 43 q 481 86 439 43 q 522 214 522 129 q 354 389 522 389 l 250 389 l 250 456 l 354 456 q 510 647 510 456 q 358 810 510 810 q 252 761 289 810 q 210 618 215 713 l 89 635 q 358 868 104 868 q 575 808 500 868 q 650 646 650 747 q 599 503 650 560 q 464 424 547 446 z "},"4":{"ha":751,"x_min":31,"x_max":683,"o":"m 683 176 l 586 176 l 586 0 l 446 0 l 446 176 l 31 176 l 31 265 l 381 851 l 586 851 l 586 289 l 683 289 l 683 176 m 446 289 l 446 792 l 151 289 l 446 289 z "},"5":{"ha":751,"x_min":104,"x_max":681,"o":"m 226 249 q 267 95 231 149 q 382 42 304 42 q 501 96 461 42 q 540 238 540 150 q 263 450 540 450 l 142 450 l 169 851 l 628 851 l 628 740 l 219 740 l 200 506 l 303 506 q 586 434 492 506 q 681 238 681 363 q 647 109 681 167 q 547 17 614 51 q 382 -17 479 -17 q 104 236 119 -17 l 226 249 z "},"6":{"ha":751,"x_min":79,"x_max":688,"o":"m 410 494 q 622 431 556 494 q 688 258 688 367 q 614 55 688 126 q 390 -17 540 -17 q 153 94 226 -17 q 79 393 79 204 q 150 743 79 618 q 392 868 221 868 q 668 626 656 868 l 547 614 q 392 811 539 811 q 258 720 294 811 q 218 453 221 629 q 410 494 314 494 m 390 42 q 550 258 550 42 q 510 387 550 333 q 381 440 469 440 q 297 431 336 440 q 218 400 258 421 q 236 190 219 268 q 290 76 253 111 q 390 42 328 42 z "},"7":{"ha":751,"x_min":82,"x_max":658,"o":"m 544 743 l 82 743 l 82 851 l 658 851 l 658 765 l 301 0 l 171 0 l 544 743 z "},"8":{"ha":751,"x_min":72,"x_max":679,"o":"m 499 428 q 679 210 679 368 q 642 93 679 144 q 537 13 606 42 q 375 -17 468 -17 q 213 13 282 -17 q 108 93 144 42 q 72 210 72 144 q 118 346 72 293 q 256 426 164 399 q 125 508 168 456 q 82 643 82 560 q 158 804 82 740 q 375 868 233 868 q 536 838 469 868 q 635 757 603 808 q 668 643 668 706 q 499 428 668 486 m 375 811 q 261 765 299 811 q 224 643 224 718 q 255 515 224 560 q 365 458 286 471 l 403 450 q 496 517 464 465 q 528 643 528 568 q 490 764 528 717 q 375 811 451 811 m 374 42 q 496 88 453 42 q 539 210 539 135 q 499 337 539 286 q 386 401 460 388 l 343 406 q 246 343 278 394 q 214 210 214 292 q 254 89 214 136 q 374 42 294 42 z "},"9":{"ha":751,"x_min":63,"x_max":669,"o":"m 368 868 q 599 760 528 868 q 669 450 669 651 q 601 101 669 218 q 356 -17 532 -17 q 154 44 225 -17 q 76 222 83 106 l 196 236 q 356 42 210 42 q 456 78 419 42 q 510 189 493 114 q 529 389 526 264 q 435 353 481 364 q 340 343 390 343 q 127 412 192 343 q 63 589 63 481 q 98 733 63 669 q 203 832 133 796 q 368 868 272 868 m 204 597 q 243 459 204 518 q 369 400 282 400 q 451 408 415 400 q 529 439 488 417 q 515 652 529 572 q 465 772 500 732 q 368 811 431 811 q 247 751 289 811 q 204 597 204 692 z "}," ":{"ha":326,"x_min":0,"x_max":0,"o":""},"A":{"ha":750,"x_min":18,"x_max":738,"o":"m 518 254 l 179 254 l 99 0 l 18 0 l 293 851 l 463 851 l 738 0 l 600 0 l 518 254 m 496 322 l 349 785 l 201 322 l 496 322 z "},"Á":{"ha":750,"x_min":18,"x_max":738,"o":"m 518 254 l 179 254 l 99 0 l 18 0 l 293 851 l 463 851 l 738 0 l 600 0 l 518 254 m 496 322 l 349 785 l 201 322 l 496 322 m 461 1174 l 547 1074 l 319 922 l 290 954 l 461 1174 z "},"Ă":{"ha":750,"x_min":18,"x_max":738,"o":"m 518 254 l 179 254 l 99 0 l 18 0 l 293 851 l 463 851 l 738 0 l 600 0 l 518 254 m 496 322 l 349 785 l 201 322 l 496 322 m 543 1117 q 376 929 543 929 q 213 1117 213 929 l 274 1117 q 299 1047 274 1072 q 376 1021 324 1021 q 454 1047 429 1021 q 479 1117 479 1072 l 543 1117 z "},"Â":{"ha":750,"x_min":18,"x_max":738,"o":"m 518 254 l 179 254 l 99 0 l 18 0 l 293 851 l 463 851 l 738 0 l 600 0 l 518 254 m 496 322 l 349 785 l 201 322 l 496 322 m 344 1154 l 407 1154 l 540 951 l 504 919 l 375 1040 l 250 919 l 211 951 l 344 1154 z "},"Ä":{"ha":750,"x_min":18,"x_max":738,"o":"m 518 254 l 179 254 l 99 0 l 18 0 l 293 851 l 463 851 l 738 0 l 600 0 l 518 254 m 496 322 l 349 785 l 201 322 l 496 322 m 250 947 q 195 971 218 947 q 172 1025 172 994 q 195 1083 172 1058 q 250 1107 218 1107 q 308 1083 283 1107 q 332 1025 332 1058 q 308 970 332 993 q 250 947 283 947 m 503 947 q 448 972 472 947 q 424 1025 424 996 q 447 1083 424 1058 q 503 1107 471 1107 q 559 1083 536 1107 q 582 1025 582 1058 q 560 970 582 993 q 503 947 538 947 z "},"À":{"ha":750,"x_min":18,"x_max":738,"o":"m 518 254 l 179 254 l 99 0 l 18 0 l 293 851 l 463 851 l 738 0 l 600 0 l 518 254 m 496 322 l 349 785 l 201 322 l 496 322 m 439 922 l 208 1074 l 294 1174 l 468 954 l 439 922 z "},"Ā":{"ha":750,"x_min":18,"x_max":738,"o":"m 518 254 l 179 254 l 99 0 l 18 0 l 293 851 l 463 851 l 738 0 l 600 0 l 518 254 m 496 322 l 349 785 l 201 322 l 496 322 m 549 1076 l 549 976 l 207 976 l 207 1076 l 549 1076 z "},"Ą":{"ha":750,"x_min":18,"x_max":760,"o":"m 760 -136 q 689 -215 733 -183 q 597 -247 644 -247 q 515 -221 544 -247 q 485 -149 485 -194 q 510 -76 485 -108 q 588 -10 535 -43 l 603 0 l 600 0 l 518 254 l 179 254 l 99 0 l 18 0 l 293 851 l 463 851 l 738 0 l 682 0 l 628 -35 q 578 -78 592 -60 q 565 -122 565 -97 q 580 -157 565 -144 q 617 -169 594 -169 q 669 -152 646 -169 q 710 -106 693 -135 l 760 -136 m 496 322 l 349 785 l 201 322 l 496 322 z "},"Å":{"ha":750,"x_min":18,"x_max":738,"o":"m 518 254 l 179 254 l 99 0 l 18 0 l 293 851 l 463 851 l 738 0 l 600 0 l 518 254 m 496 322 l 349 785 l 201 322 l 496 322 m 379 914 q 278 952 306 914 q 251 1042 251 990 q 379 1171 251 1171 q 507 1042 507 1171 q 379 914 507 914 m 378 960 q 422 985 410 960 q 433 1042 433 1010 q 378 1124 433 1124 q 326 1042 326 1124 q 338 985 326 1010 q 378 960 349 960 z "},"Ǻ":{"ha":750,"x_min":18,"x_max":738,"o":"m 518 254 l 179 254 l 99 0 l 18 0 l 293 851 l 463 851 l 738 0 l 600 0 l 518 254 m 496 322 l 349 785 l 201 322 l 496 322 m 492 1117 q 507 1042 507 1089 q 379 914 507 914 q 278 952 306 914 q 251 1042 251 990 q 379 1171 251 1171 q 442 1161 413 1171 l 513 1250 l 582 1169 l 492 1117 m 378 960 q 422 985 410 960 q 433 1042 433 1010 q 378 1124 433 1124 q 326 1042 326 1124 q 338 985 326 1010 q 378 960 349 960 z "},"Ã":{"ha":750,"x_min":18,"x_max":738,"o":"m 518 254 l 179 254 l 99 0 l 18 0 l 293 851 l 463 851 l 738 0 l 600 0 l 518 254 m 496 322 l 349 785 l 201 322 l 496 322 m 461 965 q 402 975 431 965 q 367 988 374 985 q 329 1001 349 994 q 294 1007 310 1007 q 253 994 269 1007 q 225 956 236 982 l 182 971 q 223 1075 193 1042 q 292 1108 253 1108 q 386 1083 331 1108 q 423 1070 404 1076 q 457 1064 442 1064 q 501 1075 483 1064 q 528 1111 518 1086 l 571 1094 q 529 996 558 1026 q 461 965 500 965 z "},"Æ":{"ha":1082,"x_min":18,"x_max":1039,"o":"m 1039 71 l 1039 0 l 543 0 l 543 374 l 263 374 l 103 0 l 18 0 l 393 851 l 1014 851 l 1014 781 l 685 781 l 685 447 l 989 447 l 989 374 l 685 374 l 685 71 l 1039 71 m 543 447 l 543 781 l 438 781 l 294 447 l 543 447 z "},"Ǽ":{"ha":1082,"x_min":18,"x_max":1039,"o":"m 1039 71 l 1039 0 l 543 0 l 543 374 l 263 374 l 103 0 l 18 0 l 393 851 l 1014 851 l 1014 781 l 685 781 l 685 447 l 989 447 l 989 374 l 685 374 l 685 71 l 1039 71 m 543 447 l 543 781 l 438 781 l 294 447 l 543 447 m 767 1176 l 853 1074 l 625 924 l 596 954 l 767 1176 z "},"B":{"ha":726,"x_min":114,"x_max":681,"o":"m 518 442 q 642 360 603 418 q 681 228 681 301 q 619 65 681 129 q 411 0 558 0 l 114 0 l 114 851 l 371 851 q 578 792 515 851 q 642 633 642 732 q 613 519 642 569 q 518 442 585 468 m 256 463 l 361 463 q 468 509 436 463 q 500 632 500 556 q 465 756 500 714 q 361 799 431 799 l 256 799 l 256 463 m 397 53 q 539 228 539 53 q 503 357 539 304 q 397 410 467 410 l 256 410 l 256 53 l 397 53 z "},"C":{"ha":735,"x_min":71,"x_max":693,"o":"m 574 619 q 411 810 557 810 q 289 768 332 810 q 229 644 246 726 q 213 425 213 563 q 229 208 213 289 q 289 85 246 126 q 411 43 332 43 q 537 102 499 43 q 578 268 575 161 l 693 264 q 621 54 682 125 q 411 -17 560 -17 q 206 34 281 -17 q 101 181 131 85 q 71 425 71 276 q 101 670 71 574 q 205 817 131 767 q 411 868 279 868 q 613 810 551 868 q 688 640 674 753 l 574 619 z "},"Ć":{"ha":735,"x_min":71,"x_max":693,"o":"m 574 619 q 411 810 557 810 q 289 768 332 810 q 229 644 246 726 q 213 425 213 563 q 229 208 213 289 q 289 85 246 126 q 411 43 332 43 q 537 102 499 43 q 578 268 575 161 l 693 264 q 621 54 682 125 q 411 -17 560 -17 q 206 34 281 -17 q 101 181 131 85 q 71 425 71 276 q 101 670 71 574 q 205 817 131 767 q 411 868 279 868 q 613 810 551 868 q 688 640 674 753 l 574 619 m 453 1176 l 539 1074 l 311 924 l 282 954 l 453 1176 z "},"Č":{"ha":735,"x_min":71,"x_max":693,"o":"m 574 619 q 411 810 557 810 q 289 768 332 810 q 229 644 246 726 q 213 425 213 563 q 229 208 213 289 q 289 85 246 126 q 411 43 332 43 q 537 102 499 43 q 578 268 575 161 l 693 264 q 621 54 682 125 q 411 -17 560 -17 q 206 34 281 -17 q 101 181 131 85 q 71 425 71 276 q 101 670 71 574 q 205 817 131 767 q 411 868 279 868 q 613 810 551 868 q 688 640 674 753 l 574 619 m 244 1154 l 369 1033 l 499 1154 l 535 1121 l 401 919 l 339 919 l 206 1121 l 244 1154 z "},"Ç":{"ha":735,"x_min":71,"x_max":693,"o":"m 693 264 q 623 57 682 128 q 421 -17 564 -14 l 406 -64 q 502 -101 467 -71 q 538 -179 538 -132 q 506 -260 538 -228 q 406 -293 475 -293 q 306 -262 339 -293 q 274 -179 274 -232 l 356 -168 q 368 -226 356 -206 q 404 -247 381 -247 q 443 -186 443 -247 q 419 -133 443 -153 q 333 -103 396 -114 l 360 -14 q 134 108 197 0 q 71 425 71 215 q 101 670 71 574 q 205 817 131 767 q 411 868 279 868 q 613 810 551 868 q 688 640 674 753 l 574 619 q 411 810 557 810 q 289 768 332 810 q 229 644 246 726 q 213 425 213 563 q 229 208 213 289 q 289 85 246 126 q 411 43 332 43 q 537 102 499 43 q 578 268 575 161 l 693 264 z "},"Ĉ":{"ha":735,"x_min":71,"x_max":693,"o":"m 574 619 q 411 810 557 810 q 289 768 332 810 q 229 644 246 726 q 213 425 213 563 q 229 208 213 289 q 289 85 246 126 q 411 43 332 43 q 537 102 499 43 q 578 268 575 161 l 693 264 q 621 54 682 125 q 411 -17 560 -17 q 206 34 281 -17 q 101 181 131 85 q 71 425 71 276 q 101 670 71 574 q 205 817 131 767 q 411 868 279 868 q 613 810 551 868 q 688 640 674 753 l 574 619 m 336 1156 l 399 1156 l 532 953 l 496 919 l 367 1040 l 242 919 l 203 953 l 336 1156 z "},"Ċ":{"ha":735,"x_min":71,"x_max":693,"o":"m 574 619 q 411 810 557 810 q 289 768 332 810 q 229 644 246 726 q 213 425 213 563 q 229 208 213 289 q 289 85 246 126 q 411 43 332 43 q 537 102 499 43 q 578 268 575 161 l 693 264 q 621 54 682 125 q 411 -17 560 -17 q 206 34 281 -17 q 101 181 131 85 q 71 425 71 276 q 101 670 71 574 q 205 817 131 767 q 411 868 279 868 q 613 810 551 868 q 688 640 674 753 l 574 619 m 399 942 q 338 967 363 942 q 313 1028 313 992 q 338 1088 313 1063 q 399 1114 363 1114 q 460 1088 433 1114 q 486 1028 486 1063 q 460 967 486 992 q 399 942 433 942 z "},"D":{"ha":832,"x_min":114,"x_max":746,"o":"m 396 851 q 610 797 533 851 q 717 650 688 743 q 746 425 746 557 q 717 201 746 293 q 610 54 688 108 q 396 0 533 0 l 114 0 l 114 851 l 396 851 m 379 53 q 556 151 510 53 q 603 425 603 249 q 556 701 603 603 q 379 799 510 799 l 256 799 l 256 53 l 379 53 z "},"Ð":{"ha":832,"x_min":36,"x_max":746,"o":"m 396 851 q 610 797 533 851 q 717 650 688 743 q 746 425 746 557 q 717 201 746 293 q 610 54 688 108 q 396 0 533 0 l 114 0 l 114 379 l 36 379 l 36 468 l 114 468 l 114 851 l 396 851 m 379 53 q 556 151 510 53 q 603 425 603 249 q 556 701 603 603 q 379 799 510 799 l 256 799 l 256 468 l 465 468 l 465 379 l 256 379 l 256 53 l 379 53 z "},"Ď":{"ha":832,"x_min":114,"x_max":746,"o":"m 396 851 q 610 797 533 851 q 717 650 688 743 q 746 425 746 557 q 717 201 746 293 q 610 54 688 108 q 396 0 533 0 l 114 0 l 114 851 l 396 851 m 379 53 q 556 151 510 53 q 603 425 603 249 q 556 701 603 603 q 379 799 510 799 l 256 799 l 256 53 l 379 53 m 289 1154 l 414 1033 l 543 1154 l 579 1121 l 446 919 l 383 919 l 250 1121 l 289 1154 z "},"Đ":{"ha":832,"x_min":36,"x_max":746,"o":"m 396 851 q 610 797 533 851 q 717 650 688 743 q 746 425 746 557 q 717 201 746 293 q 610 54 688 108 q 396 0 533 0 l 114 0 l 114 379 l 36 379 l 36 468 l 114 468 l 114 851 l 396 851 m 379 53 q 556 151 510 53 q 603 425 603 249 q 556 701 603 603 q 379 799 510 799 l 256 799 l 256 468 l 465 468 l 465 379 l 256 379 l 256 53 l 379 53 z "},"E":{"ha":653,"x_min":114,"x_max":610,"o":"m 610 71 l 610 0 l 114 0 l 114 851 l 585 851 l 585 781 l 256 781 l 256 471 l 556 471 l 556 397 l 256 397 l 256 71 l 610 71 z "},"É":{"ha":653,"x_min":114,"x_max":610,"o":"m 610 71 l 610 0 l 114 0 l 114 851 l 585 851 l 585 781 l 256 781 l 256 471 l 556 471 l 556 397 l 256 397 l 256 71 l 610 71 m 433 1174 l 519 1074 l 292 922 l 263 954 l 433 1174 z "},"Ĕ":{"ha":653,"x_min":114,"x_max":610,"o":"m 610 71 l 610 0 l 114 0 l 114 851 l 585 851 l 585 781 l 256 781 l 256 471 l 556 471 l 556 397 l 256 397 l 256 71 l 610 71 m 517 1117 q 350 929 517 929 q 186 1117 186 929 l 247 1117 q 272 1047 247 1072 q 350 1021 297 1021 q 428 1047 403 1021 q 453 1117 453 1072 l 517 1117 z "},"Ě":{"ha":653,"x_min":114,"x_max":610,"o":"m 610 71 l 610 0 l 114 0 l 114 851 l 585 851 l 585 781 l 256 781 l 256 471 l 556 471 l 556 397 l 256 397 l 256 71 l 610 71 m 225 1154 l 350 1033 l 479 1154 l 515 1121 l 382 919 l 319 919 l 186 1121 l 225 1154 z "},"Ê":{"ha":653,"x_min":114,"x_max":610,"o":"m 610 71 l 610 0 l 114 0 l 114 851 l 585 851 l 585 781 l 256 781 l 256 471 l 556 471 l 556 397 l 256 397 l 256 71 l 610 71 m 317 1154 l 379 1154 l 513 951 l 476 919 l 347 1040 l 222 919 l 183 951 l 317 1154 z "},"Ë":{"ha":653,"x_min":114,"x_max":610,"o":"m 610 71 l 610 0 l 114 0 l 114 851 l 585 851 l 585 781 l 256 781 l 256 471 l 556 471 l 556 397 l 256 397 l 256 71 l 610 71 m 224 947 q 169 971 192 947 q 146 1025 146 994 q 169 1083 146 1058 q 224 1107 192 1107 q 281 1083 257 1107 q 306 1025 306 1058 q 281 970 306 993 q 224 947 257 947 m 476 947 q 422 972 446 947 q 397 1025 397 996 q 421 1083 397 1058 q 476 1107 444 1107 q 533 1083 510 1107 q 556 1025 556 1058 q 533 970 556 993 q 476 947 511 947 z "},"Ė":{"ha":653,"x_min":114,"x_max":610,"o":"m 610 71 l 610 0 l 114 0 l 114 851 l 585 851 l 585 781 l 256 781 l 256 471 l 556 471 l 556 397 l 256 397 l 256 71 l 610 71 m 350 942 q 289 967 314 942 q 264 1028 264 992 q 289 1088 264 1063 q 350 1114 314 1114 q 411 1088 385 1114 q 438 1028 438 1063 q 411 967 438 992 q 350 942 385 942 z "},"È":{"ha":653,"x_min":114,"x_max":610,"o":"m 610 71 l 610 0 l 114 0 l 114 851 l 585 851 l 585 781 l 256 781 l 256 471 l 556 471 l 556 397 l 256 397 l 256 71 l 610 71 m 411 922 l 181 1074 l 267 1174 l 440 954 l 411 922 z "},"Ē":{"ha":653,"x_min":114,"x_max":610,"o":"m 610 71 l 610 0 l 114 0 l 114 851 l 585 851 l 585 781 l 256 781 l 256 471 l 556 471 l 556 397 l 256 397 l 256 71 l 610 71 m 521 1076 l 521 976 l 179 976 l 179 1076 l 521 1076 z "},"Ę":{"ha":653,"x_min":114,"x_max":688,"o":"m 688 -136 q 617 -215 661 -183 q 525 -247 572 -247 q 442 -221 472 -247 q 413 -149 413 -194 q 438 -76 413 -108 q 515 -10 463 -43 l 531 0 l 114 0 l 114 851 l 585 851 l 585 781 l 256 781 l 256 471 l 556 471 l 556 397 l 256 397 l 256 71 l 610 71 l 610 0 l 556 -35 q 506 -78 519 -60 q 493 -122 493 -97 q 508 -157 493 -144 q 544 -169 522 -169 q 597 -152 574 -169 q 638 -106 621 -135 l 688 -136 z "},"F":{"ha":601,"x_min":114,"x_max":561,"o":"m 256 772 l 256 471 l 526 471 l 526 393 l 256 393 l 256 0 l 114 0 l 114 851 l 561 851 l 561 772 l 256 772 z "},"G":{"ha":810,"x_min":71,"x_max":708,"o":"m 708 0 l 638 0 l 608 104 q 397 -17 538 -17 q 198 35 269 -17 q 99 183 126 88 q 71 425 71 279 q 101 670 71 574 q 205 817 131 767 q 411 868 279 868 q 613 810 551 868 q 688 640 674 753 l 574 619 q 411 810 557 810 q 289 768 332 810 q 229 644 246 726 q 213 425 213 563 q 228 210 213 292 q 283 85 243 128 q 397 43 322 43 q 586 293 579 43 l 586 364 l 431 364 l 431 433 l 708 433 l 708 0 z "},"Ğ":{"ha":810,"x_min":71,"x_max":708,"o":"m 708 0 l 638 0 l 608 104 q 397 -17 538 -17 q 198 35 269 -17 q 99 183 126 88 q 71 425 71 279 q 101 670 71 574 q 205 817 131 767 q 411 868 279 868 q 613 810 551 868 q 688 640 674 753 l 574 619 q 411 810 557 810 q 289 768 332 810 q 229 644 246 726 q 213 425 213 563 q 228 210 213 292 q 283 85 243 128 q 397 43 322 43 q 586 293 579 43 l 586 364 l 431 364 l 431 433 l 708 433 l 708 0 m 572 1117 q 406 929 572 929 q 242 1117 242 929 l 303 1117 q 328 1047 303 1072 q 406 1021 353 1021 q 483 1047 458 1021 q 508 1117 508 1072 l 572 1117 z "},"Ĝ":{"ha":810,"x_min":71,"x_max":708,"o":"m 708 0 l 638 0 l 608 104 q 397 -17 538 -17 q 198 35 269 -17 q 99 183 126 88 q 71 425 71 279 q 101 670 71 574 q 205 817 131 767 q 411 868 279 868 q 613 810 551 868 q 688 640 674 753 l 574 619 q 411 810 557 810 q 289 768 332 810 q 229 644 246 726 q 213 425 213 563 q 228 210 213 292 q 283 85 243 128 q 397 43 322 43 q 586 293 579 43 l 586 364 l 431 364 l 431 433 l 708 433 l 708 0 m 374 1156 l 436 1156 l 569 953 l 533 919 l 404 1040 l 279 919 l 240 953 l 374 1156 z "},"Ģ":{"ha":810,"x_min":71,"x_max":708,"o":"m 708 0 l 638 0 l 608 104 q 397 -17 538 -17 q 198 35 269 -17 q 99 183 126 88 q 71 425 71 279 q 101 670 71 574 q 205 817 131 767 q 411 868 279 868 q 613 810 551 868 q 688 640 674 753 l 574 619 q 411 810 557 810 q 289 768 332 810 q 229 644 246 726 q 213 425 213 563 q 228 210 213 292 q 283 85 243 128 q 397 43 322 43 q 586 293 579 43 l 586 364 l 431 364 l 431 433 l 708 433 l 708 0 m 404 -58 q 458 -83 436 -58 q 479 -146 479 -108 q 438 -271 479 -215 q 342 -361 397 -326 l 317 -329 q 346 -287 338 -308 q 354 -236 354 -267 q 342 -187 354 -218 q 329 -133 329 -150 q 351 -81 329 -103 q 404 -58 374 -58 z "},"Ġ":{"ha":810,"x_min":71,"x_max":708,"o":"m 708 0 l 638 0 l 608 104 q 397 -17 538 -17 q 198 35 269 -17 q 99 183 126 88 q 71 425 71 279 q 101 670 71 574 q 205 817 131 767 q 411 868 279 868 q 613 810 551 868 q 688 640 674 753 l 574 619 q 411 810 557 810 q 289 768 332 810 q 229 644 246 726 q 213 425 213 563 q 228 210 213 292 q 283 85 243 128 q 397 43 322 43 q 586 293 579 43 l 586 364 l 431 364 l 431 433 l 708 433 l 708 0 m 407 942 q 346 967 371 942 q 321 1028 321 992 q 346 1088 321 1063 q 407 1114 371 1114 q 468 1088 442 1114 q 494 1028 494 1063 q 468 967 494 992 q 407 942 442 942 z "},"H":{"ha":849,"x_min":114,"x_max":736,"o":"m 736 851 l 736 0 l 593 0 l 593 390 l 256 390 l 256 0 l 114 0 l 114 851 l 256 851 l 256 461 l 593 461 l 593 851 l 736 851 z "},"Ħ":{"ha":849,"x_min":29,"x_max":819,"o":"m 819 586 l 736 586 l 736 0 l 593 0 l 593 390 l 256 390 l 256 0 l 114 0 l 114 586 l 29 586 l 29 675 l 114 675 l 114 851 l 256 851 l 256 675 l 593 675 l 593 851 l 736 851 l 736 675 l 819 675 l 819 586 m 593 586 l 256 586 l 256 461 l 593 461 l 593 586 z "},"Ĥ":{"ha":849,"x_min":114,"x_max":736,"o":"m 736 851 l 736 0 l 593 0 l 593 390 l 256 390 l 256 0 l 114 0 l 114 851 l 256 851 l 256 461 l 593 461 l 593 851 l 736 851 m 393 1156 l 456 1156 l 589 953 l 553 919 l 424 1040 l 299 919 l 260 953 l 393 1156 z "},"I":{"ha":369,"x_min":114,"x_max":256,"o":"m 256 0 l 114 0 l 114 851 l 256 851 l 256 0 z "},"Ĳ":{"ha":929,"x_min":114,"x_max":832,"o":"m 256 0 l 114 0 l 114 851 l 256 851 l 256 0 m 832 214 q 817 92 832 140 q 749 13 801 43 q 593 -17 697 -17 q 448 15 494 -17 q 389 98 401 47 q 376 235 376 149 l 501 235 q 522 86 501 129 q 597 43 542 43 q 671 81 651 43 q 690 214 690 119 l 690 851 l 832 851 l 832 214 z "},"Í":{"ha":369,"x_min":99,"x_max":356,"o":"m 256 0 l 114 0 l 114 851 l 256 851 l 256 0 m 269 1174 l 356 1074 l 128 922 l 99 954 l 269 1174 z "},"Ĭ":{"ha":369,"x_min":21,"x_max":351,"o":"m 256 0 l 114 0 l 114 851 l 256 851 l 256 0 m 351 1117 q 185 929 351 929 q 21 1117 21 929 l 82 1117 q 107 1047 82 1072 q 185 1021 132 1021 q 263 1047 238 1021 q 288 1117 288 1072 l 351 1117 z "},"Î":{"ha":369,"x_min":19,"x_max":349,"o":"m 256 0 l 114 0 l 114 851 l 256 851 l 256 0 m 153 1154 l 215 1154 l 349 951 l 313 919 l 183 1040 l 58 919 l 19 951 l 153 1154 z "},"Ï":{"ha":369,"x_min":-19,"x_max":390,"o":"m 256 0 l 114 0 l 114 851 l 256 851 l 256 0 m 58 947 q 3 971 26 947 q -19 1025 -19 994 q 3 1083 -19 1058 q 58 1107 26 1107 q 116 1083 92 1107 q 140 1025 140 1058 q 116 970 140 993 q 58 947 92 947 m 311 947 q 256 972 281 947 q 232 1025 232 996 q 256 1083 232 1058 q 311 1107 279 1107 q 367 1083 344 1107 q 390 1025 390 1058 q 368 970 390 993 q 311 947 346 947 z "},"İ":{"ha":369,"x_min":100,"x_max":274,"o":"m 256 0 l 114 0 l 114 851 l 256 851 l 256 0 m 186 942 q 125 967 150 942 q 100 1028 100 992 q 125 1088 100 1063 q 186 1114 150 1114 q 247 1088 221 1114 q 274 1028 274 1063 q 247 967 274 992 q 186 942 221 942 z "},"Ì":{"ha":369,"x_min":17,"x_max":276,"o":"m 256 0 l 114 0 l 114 851 l 256 851 l 256 0 m 247 922 l 17 1074 l 103 1174 l 276 954 l 247 922 z "},"Ī":{"ha":369,"x_min":15,"x_max":357,"o":"m 256 0 l 114 0 l 114 851 l 256 851 l 256 0 m 357 1075 l 357 976 l 15 976 l 15 1075 l 357 1075 z "},"Į":{"ha":369,"x_min":51,"x_max":326,"o":"m 326 -136 q 256 -215 300 -183 q 164 -247 211 -247 q 81 -221 111 -247 q 51 -149 51 -194 q 76 -76 51 -108 q 154 -10 101 -43 l 169 0 l 114 0 l 114 851 l 256 851 l 256 0 l 249 0 l 194 -35 q 145 -78 158 -60 q 132 -122 132 -97 q 147 -157 132 -144 q 183 -169 161 -169 q 236 -152 213 -169 q 276 -106 260 -135 l 326 -136 z "},"Ĩ":{"ha":369,"x_min":-10,"x_max":379,"o":"m 256 0 l 114 0 l 114 851 l 256 851 l 256 0 m 269 964 q 227 969 246 964 q 175 988 208 975 q 138 1001 157 994 q 103 1007 118 1007 q 61 994 78 1007 q 33 956 44 982 l -10 971 q 31 1076 1 1043 q 100 1108 61 1108 q 145 1102 124 1108 q 194 1085 167 1096 q 231 1072 213 1078 q 265 1065 250 1065 q 308 1076 292 1065 q 336 1113 325 1088 l 379 1094 q 338 996 368 1028 q 269 964 308 964 z "},"J":{"ha":560,"x_min":7,"x_max":463,"o":"m 463 214 q 447 92 463 140 q 380 13 432 43 q 224 -17 328 -17 q 78 15 125 -17 q 19 98 32 47 q 7 235 7 149 l 132 235 q 152 86 132 129 q 228 43 172 43 q 301 81 282 43 q 321 214 321 119 l 321 851 l 463 851 l 463 214 z "},"Ĵ":{"ha":560,"x_min":7,"x_max":554,"o":"m 463 214 q 447 92 463 140 q 380 13 432 43 q 224 -17 328 -17 q 78 15 125 -17 q 19 98 32 47 q 7 235 7 149 l 132 235 q 152 86 132 129 q 228 43 172 43 q 301 81 282 43 q 321 214 321 119 l 321 851 l 463 851 l 463 214 m 358 1156 l 421 1156 l 554 953 l 518 919 l 389 1040 l 264 919 l 225 953 l 358 1156 z "},"K":{"ha":715,"x_min":114,"x_max":714,"o":"m 303 397 l 256 397 l 256 0 l 114 0 l 114 851 l 256 851 l 256 469 l 361 469 l 614 851 l 697 851 l 425 443 l 714 0 l 564 0 l 303 397 z "},"Ķ":{"ha":715,"x_min":114,"x_max":714,"o":"m 303 397 l 256 397 l 256 0 l 114 0 l 114 851 l 256 851 l 256 469 l 361 469 l 614 851 l 697 851 l 425 443 l 714 0 l 564 0 l 303 397 m 358 -58 q 412 -83 390 -58 q 433 -146 433 -108 q 392 -271 433 -215 q 296 -361 351 -326 l 271 -329 q 300 -287 292 -308 q 308 -236 308 -267 q 296 -187 308 -218 q 283 -133 283 -150 q 306 -81 283 -103 q 358 -58 328 -58 z "},"L":{"ha":564,"x_min":114,"x_max":553,"o":"m 553 71 l 553 0 l 114 0 l 114 851 l 256 851 l 256 71 l 553 71 z "},"Ĺ":{"ha":564,"x_min":99,"x_max":553,"o":"m 553 71 l 553 0 l 114 0 l 114 851 l 256 851 l 256 71 l 553 71 m 269 1176 l 356 1074 l 128 924 l 99 954 l 269 1176 z "},"Ľ":{"ha":564,"x_min":114,"x_max":553,"o":"m 553 71 l 553 0 l 114 0 l 114 851 l 256 851 l 256 71 l 553 71 m 456 915 q 509 891 488 915 q 531 828 531 867 q 490 703 531 758 q 393 613 449 647 l 368 644 q 397 686 389 665 q 406 738 406 707 q 393 786 406 756 q 381 840 381 824 q 403 893 381 871 q 456 915 425 915 z "},"Ļ":{"ha":564,"x_min":114,"x_max":553,"o":"m 553 71 l 553 0 l 114 0 l 114 851 l 256 851 l 256 71 l 553 71 m 314 -58 q 367 -83 346 -58 q 389 -146 389 -108 q 348 -271 389 -215 q 251 -361 307 -326 l 226 -329 q 256 -287 247 -308 q 264 -236 264 -267 q 251 -187 264 -218 q 239 -133 239 -150 q 261 -81 239 -103 q 314 -58 283 -58 z "},"Ŀ":{"ha":564,"x_min":114,"x_max":553,"o":"m 553 71 l 553 0 l 114 0 l 114 851 l 256 851 l 256 71 l 553 71 m 406 394 q 350 419 374 394 q 326 476 326 444 q 350 533 326 510 q 406 557 374 557 q 464 533 440 557 q 488 476 488 510 q 464 419 488 443 q 406 394 440 394 z "},"Ł":{"ha":564,"x_min":28,"x_max":553,"o":"m 553 71 l 553 0 l 114 0 l 114 367 l 28 332 l 28 425 l 114 460 l 114 851 l 256 851 l 256 518 l 349 556 l 349 461 l 256 424 l 256 71 l 553 71 z "},"M":{"ha":1050,"x_min":100,"x_max":951,"o":"m 793 767 l 561 3 l 561 0 l 435 0 l 203 774 l 183 0 l 100 0 l 124 851 l 308 851 l 519 140 l 735 851 l 926 851 l 951 0 l 811 0 l 793 767 z "},"N":{"ha":889,"x_min":118,"x_max":775,"o":"m 775 0 l 621 0 l 201 711 l 201 0 l 118 0 l 118 851 l 269 851 l 690 142 l 690 851 l 774 851 l 774 1 l 775 0 z "},"Ń":{"ha":889,"x_min":118,"x_max":775,"o":"m 775 0 l 621 0 l 201 711 l 201 0 l 118 0 l 118 851 l 269 851 l 690 142 l 690 851 l 774 851 l 774 1 l 775 0 m 529 1176 l 615 1074 l 388 924 l 358 954 l 529 1176 z "},"Ň":{"ha":889,"x_min":118,"x_max":775,"o":"m 775 0 l 621 0 l 201 711 l 201 0 l 118 0 l 118 851 l 269 851 l 690 142 l 690 851 l 774 851 l 774 1 l 775 0 m 321 1154 l 446 1033 l 575 1154 l 611 1121 l 478 919 l 415 919 l 282 1121 l 321 1154 z "},"Ņ":{"ha":889,"x_min":118,"x_max":775,"o":"m 775 0 l 621 0 l 201 711 l 201 0 l 118 0 l 118 851 l 269 851 l 690 142 l 690 851 l 774 851 l 774 1 l 775 0 m 443 -58 q 497 -83 475 -58 q 518 -146 518 -108 q 477 -271 518 -215 q 381 -361 436 -326 l 356 -329 q 385 -287 376 -308 q 393 -236 393 -267 q 381 -187 393 -218 q 368 -133 368 -150 q 390 -81 368 -103 q 443 -58 413 -58 z "},"Ŋ":{"ha":889,"x_min":118,"x_max":775,"o":"m 775 0 l 775 -69 q 719 -228 775 -175 q 560 -282 664 -282 q 396 -232 481 -282 l 442 -132 q 489 -182 461 -162 q 549 -201 517 -201 q 611 -175 588 -201 q 635 -106 635 -149 l 635 -22 l 621 0 l 201 711 l 201 0 l 118 0 l 118 851 l 269 851 l 690 142 l 690 851 l 774 851 l 774 1 l 775 0 z "},"Ñ":{"ha":889,"x_min":118,"x_max":775,"o":"m 775 0 l 621 0 l 201 711 l 201 0 l 118 0 l 118 851 l 269 851 l 690 142 l 690 851 l 774 851 l 774 1 l 775 0 m 529 965 q 470 975 499 965 q 435 988 442 985 q 397 1001 417 994 q 363 1007 378 1007 q 321 994 338 1007 q 293 956 304 982 l 250 971 q 291 1075 261 1042 q 360 1108 321 1108 q 454 1083 399 1108 q 491 1070 472 1076 q 525 1064 510 1064 q 569 1075 551 1064 q 596 1111 586 1086 l 639 1094 q 597 996 626 1026 q 529 965 568 965 z "},"O":{"ha":832,"x_min":71,"x_max":758,"o":"m 414 -17 q 155 91 239 -17 q 71 425 71 199 q 154 761 71 654 q 414 868 238 868 q 675 760 592 868 q 758 425 758 653 q 674 91 758 199 q 414 -17 590 -17 m 414 43 q 567 137 517 43 q 617 425 617 231 q 567 716 617 622 q 414 810 517 810 q 262 717 311 810 q 213 425 213 624 q 262 135 213 228 q 414 43 311 43 z "},"Ó":{"ha":832,"x_min":71,"x_max":758,"o":"m 414 -17 q 155 91 239 -17 q 71 425 71 199 q 154 761 71 654 q 414 868 238 868 q 675 760 592 868 q 758 425 758 653 q 674 91 758 199 q 414 -17 590 -17 m 414 43 q 567 137 517 43 q 617 425 617 231 q 567 716 617 622 q 414 810 517 810 q 262 717 311 810 q 213 425 213 624 q 262 135 213 228 q 414 43 311 43 m 501 1174 l 588 1074 l 360 922 l 331 954 l 501 1174 z "},"Ŏ":{"ha":832,"x_min":71,"x_max":758,"o":"m 414 -17 q 155 91 239 -17 q 71 425 71 199 q 154 761 71 654 q 414 868 238 868 q 675 760 592 868 q 758 425 758 653 q 674 91 758 199 q 414 -17 590 -17 m 414 43 q 567 137 517 43 q 617 425 617 231 q 567 716 617 622 q 414 810 517 810 q 262 717 311 810 q 213 425 213 624 q 262 135 213 228 q 414 43 311 43 m 583 1117 q 417 929 583 929 q 253 1117 253 929 l 314 1117 q 339 1047 314 1072 q 417 1021 364 1021 q 494 1047 469 1021 q 519 1117 519 1072 l 583 1117 z "},"Ô":{"ha":832,"x_min":71,"x_max":758,"o":"m 414 -17 q 155 91 239 -17 q 71 425 71 199 q 154 761 71 654 q 414 868 238 868 q 675 760 592 868 q 758 425 758 653 q 674 91 758 199 q 414 -17 590 -17 m 414 43 q 567 137 517 43 q 617 425 617 231 q 567 716 617 622 q 414 810 517 810 q 262 717 311 810 q 213 425 213 624 q 262 135 213 228 q 414 43 311 43 m 385 1154 l 447 1154 l 581 951 l 544 919 l 415 1040 l 290 919 l 251 951 l 385 1154 z "},"Ö":{"ha":832,"x_min":71,"x_max":758,"o":"m 414 -17 q 155 91 239 -17 q 71 425 71 199 q 154 761 71 654 q 414 868 238 868 q 675 760 592 868 q 758 425 758 653 q 674 91 758 199 q 414 -17 590 -17 m 414 43 q 567 137 517 43 q 617 425 617 231 q 567 716 617 622 q 414 810 517 810 q 262 717 311 810 q 213 425 213 624 q 262 135 213 228 q 414 43 311 43 m 290 947 q 235 971 258 947 q 213 1025 213 994 q 235 1083 213 1058 q 290 1107 258 1107 q 348 1083 324 1107 q 372 1025 372 1058 q 348 970 372 993 q 290 947 324 947 m 543 947 q 488 972 513 947 q 464 1025 464 996 q 488 1083 464 1058 q 543 1107 511 1107 q 599 1083 576 1107 q 622 1025 622 1058 q 600 970 622 993 q 543 947 578 947 z "},"Ò":{"ha":832,"x_min":71,"x_max":758,"o":"m 414 -17 q 155 91 239 -17 q 71 425 71 199 q 154 761 71 654 q 414 868 238 868 q 675 760 592 868 q 758 425 758 653 q 674 91 758 199 q 414 -17 590 -17 m 414 43 q 567 137 517 43 q 617 425 617 231 q 567 716 617 622 q 414 810 517 810 q 262 717 311 810 q 213 425 213 624 q 262 135 213 228 q 414 43 311 43 m 479 922 l 249 1074 l 335 1174 l 508 954 l 479 922 z "},"Ő":{"ha":832,"x_min":71,"x_max":758,"o":"m 414 -17 q 155 91 239 -17 q 71 425 71 199 q 154 761 71 654 q 414 868 238 868 q 675 760 592 868 q 758 425 758 653 q 674 91 758 199 q 414 -17 590 -17 m 414 43 q 567 137 517 43 q 617 425 617 231 q 567 716 617 622 q 414 810 517 810 q 262 717 311 810 q 213 425 213 624 q 262 135 213 228 q 414 43 311 43 m 360 1174 l 446 1074 l 217 922 l 188 954 l 360 1174 m 621 1174 l 704 1074 l 478 922 l 449 954 l 621 1174 z "},"Ō":{"ha":832,"x_min":71,"x_max":758,"o":"m 414 -17 q 155 91 239 -17 q 71 425 71 199 q 154 761 71 654 q 414 868 238 868 q 675 760 592 868 q 758 425 758 653 q 674 91 758 199 q 414 -17 590 -17 m 414 43 q 567 137 517 43 q 617 425 617 231 q 567 716 617 622 q 414 810 517 810 q 262 717 311 810 q 213 425 213 624 q 262 135 213 228 q 414 43 311 43 m 589 1076 l 589 976 l 247 976 l 247 1076 l 589 1076 z "},"Ø":{"ha":832,"x_min":71,"x_max":758,"o":"m 544 850 q 706 710 654 815 q 758 425 758 606 q 674 91 758 199 q 414 -17 590 -17 q 344 -12 378 -17 l 332 -65 l 274 -65 l 289 0 q 124 139 178 35 q 71 425 71 243 q 154 761 71 654 q 414 868 238 868 q 488 863 456 868 l 499 914 l 560 914 l 544 850 m 213 425 q 236 203 213 289 q 307 78 260 117 l 472 800 q 414 810 440 810 q 262 717 311 810 q 213 425 213 624 m 414 43 q 567 137 517 43 q 617 425 617 231 q 526 769 617 688 l 358 50 q 414 43 379 43 z "},"Ǿ":{"ha":832,"x_min":71,"x_max":758,"o":"m 529 1175 l 615 1075 l 388 924 l 358 956 l 529 1175 m 544 850 q 706 710 654 815 q 758 425 758 606 q 674 91 758 199 q 414 -17 590 -17 q 344 -12 378 -17 l 332 -65 l 274 -65 l 289 0 q 124 139 178 35 q 71 425 71 243 q 154 761 71 654 q 414 868 238 868 q 488 863 456 868 l 499 914 l 560 914 l 544 850 m 213 425 q 236 203 213 289 q 307 78 260 117 l 472 800 q 414 810 440 810 q 262 717 311 810 q 213 425 213 624 m 414 43 q 567 137 517 43 q 617 425 617 231 q 526 769 617 688 l 358 50 q 414 43 379 43 z "},"Õ":{"ha":832,"x_min":71,"x_max":758,"o":"m 414 -17 q 155 91 239 -17 q 71 425 71 199 q 154 761 71 654 q 414 868 238 868 q 675 760 592 868 q 758 425 758 653 q 674 91 758 199 q 414 -17 590 -17 m 414 43 q 567 137 517 43 q 617 425 617 231 q 567 716 617 622 q 414 810 517 810 q 262 717 311 810 q 213 425 213 624 q 262 135 213 228 q 414 43 311 43 m 501 965 q 442 975 471 965 q 407 988 414 985 q 369 1001 389 994 q 335 1007 350 1007 q 293 994 310 1007 q 265 956 276 982 l 222 971 q 263 1075 233 1042 q 332 1108 293 1108 q 426 1083 371 1108 q 463 1070 444 1076 q 497 1064 482 1064 q 541 1075 524 1064 q 568 1111 558 1086 l 611 1094 q 569 996 599 1026 q 501 965 540 965 z "},"Œ":{"ha":1113,"x_min":71,"x_max":1071,"o":"m 1071 71 l 1071 0 l 411 0 q 203 53 278 0 q 100 198 129 106 q 71 425 71 290 q 100 653 71 561 q 203 799 129 746 q 411 851 278 851 l 413 851 l 413 851 l 1047 851 l 1047 781 l 638 781 q 717 656 692 733 q 746 471 743 578 l 1019 471 l 1019 397 l 746 397 q 719 201 743 282 q 638 71 694 119 l 1071 71 m 213 425 q 255 162 213 253 q 411 71 297 71 q 563 163 521 71 q 606 425 606 254 q 563 690 606 599 q 410 781 521 781 q 256 690 299 781 q 213 425 213 599 z "},"P":{"ha":694,"x_min":114,"x_max":664,"o":"m 394 851 q 603 776 542 851 q 664 579 664 700 q 603 383 664 458 q 394 308 542 308 l 256 308 l 256 0 l 114 0 l 114 851 l 394 851 m 375 358 q 487 417 451 358 q 522 579 522 475 q 487 740 522 682 q 375 799 451 799 l 256 799 l 256 358 l 375 358 z "},"Þ":{"ha":694,"x_min":114,"x_max":664,"o":"m 394 692 q 664 419 664 692 q 603 224 664 299 q 394 149 542 149 l 256 149 l 256 0 l 114 0 l 114 840 l 256 840 l 256 692 l 394 692 m 375 201 q 487 259 451 201 q 522 419 522 317 q 375 638 522 638 l 256 638 l 256 201 l 375 201 z "},"Q":{"ha":821,"x_min":71,"x_max":758,"o":"m 758 425 q 701 132 758 238 q 524 -4 643 26 l 732 -94 l 681 -190 l 386 -17 q 148 99 225 -8 q 71 425 71 207 q 154 761 71 654 q 414 868 238 868 q 675 760 592 868 q 758 425 758 653 m 213 425 q 262 135 213 228 q 414 43 311 43 q 567 137 517 43 q 617 425 617 231 q 567 716 617 622 q 414 810 517 810 q 262 717 311 810 q 213 425 213 624 z "},"R":{"ha":765,"x_min":114,"x_max":708,"o":"m 708 0 l 556 0 l 436 296 q 395 349 419 336 q 321 363 371 363 l 256 363 l 256 0 l 114 0 l 114 851 l 399 851 q 611 777 550 851 q 672 597 672 703 q 635 459 672 519 q 508 375 599 399 q 581 308 558 357 l 708 0 m 383 414 q 494 467 458 414 q 531 597 531 521 q 494 740 531 682 q 383 799 458 799 l 256 799 l 256 414 l 383 414 z "},"Ŕ":{"ha":765,"x_min":114,"x_max":708,"o":"m 708 0 l 556 0 l 436 296 q 395 349 419 336 q 321 363 371 363 l 256 363 l 256 0 l 114 0 l 114 851 l 399 851 q 611 777 550 851 q 672 597 672 703 q 635 459 672 519 q 508 375 599 399 q 581 308 558 357 l 708 0 m 383 414 q 494 467 458 414 q 531 597 531 521 q 494 740 531 682 q 383 799 458 799 l 256 799 l 256 414 l 383 414 m 464 1176 l 550 1074 l 322 924 l 293 954 l 464 1176 z "},"Ř":{"ha":765,"x_min":114,"x_max":708,"o":"m 708 0 l 556 0 l 436 296 q 395 349 419 336 q 321 363 371 363 l 256 363 l 256 0 l 114 0 l 114 851 l 399 851 q 611 777 550 851 q 672 597 672 703 q 635 459 672 519 q 508 375 599 399 q 581 308 558 357 l 708 0 m 383 414 q 494 467 458 414 q 531 597 531 521 q 494 740 531 682 q 383 799 458 799 l 256 799 l 256 414 l 383 414 m 256 1154 l 381 1033 l 510 1154 l 546 1121 l 413 919 l 350 919 l 217 1121 l 256 1154 z "},"Ŗ":{"ha":765,"x_min":114,"x_max":708,"o":"m 708 0 l 556 0 l 436 296 q 395 349 419 336 q 321 363 371 363 l 256 363 l 256 0 l 114 0 l 114 851 l 399 851 q 611 777 550 851 q 672 597 672 703 q 635 459 672 519 q 508 375 599 399 q 581 308 558 357 l 708 0 m 383 414 q 494 467 458 414 q 531 597 531 521 q 494 740 531 682 q 383 799 458 799 l 256 799 l 256 414 l 383 414 m 378 -58 q 431 -83 410 -58 q 453 -146 453 -108 q 412 -271 453 -215 q 315 -361 371 -326 l 290 -329 q 319 -287 311 -308 q 328 -236 328 -267 q 315 -187 328 -218 q 303 -133 303 -150 q 325 -81 303 -103 q 378 -58 347 -58 z "},"S":{"ha":711,"x_min":56,"x_max":654,"o":"m 358 868 q 560 806 489 868 q 647 617 631 744 l 532 601 q 480 756 525 701 q 358 810 435 810 q 233 770 276 810 q 189 658 189 731 q 224 558 189 592 q 351 500 260 524 l 428 481 q 603 389 551 446 q 654 231 654 332 q 576 47 654 111 q 354 -17 499 -17 q 144 45 217 -17 q 56 235 71 107 l 168 251 q 226 97 179 151 q 354 43 274 43 q 535 196 535 43 q 519 269 535 242 q 469 316 504 297 q 365 351 433 335 l 294 369 q 122 459 171 401 q 72 622 72 517 q 145 806 72 743 q 358 868 218 868 z "},"Ś":{"ha":711,"x_min":56,"x_max":654,"o":"m 358 868 q 560 806 489 868 q 647 617 631 744 l 532 601 q 480 756 525 701 q 358 810 435 810 q 233 770 276 810 q 189 658 189 731 q 224 558 189 592 q 351 500 260 524 l 428 481 q 603 389 551 446 q 654 231 654 332 q 576 47 654 111 q 354 -17 499 -17 q 144 45 217 -17 q 56 235 71 107 l 168 251 q 226 97 179 151 q 354 43 274 43 q 535 196 535 43 q 519 269 535 242 q 469 316 504 297 q 365 351 433 335 l 294 369 q 122 459 171 401 q 72 622 72 517 q 145 806 72 743 q 358 868 218 868 m 446 1176 l 532 1074 l 304 924 l 275 954 l 446 1176 z "},"Š":{"ha":711,"x_min":56,"x_max":654,"o":"m 358 868 q 560 806 489 868 q 647 617 631 744 l 532 601 q 480 756 525 701 q 358 810 435 810 q 233 770 276 810 q 189 658 189 731 q 224 558 189 592 q 351 500 260 524 l 428 481 q 603 389 551 446 q 654 231 654 332 q 576 47 654 111 q 354 -17 499 -17 q 144 45 217 -17 q 56 235 71 107 l 168 251 q 226 97 179 151 q 354 43 274 43 q 535 196 535 43 q 519 269 535 242 q 469 316 504 297 q 365 351 433 335 l 294 369 q 122 459 171 401 q 72 622 72 517 q 145 806 72 743 q 358 868 218 868 m 238 1154 l 363 1033 l 492 1154 l 528 1121 l 394 919 l 332 919 l 199 1121 l 238 1154 z "},"Ş":{"ha":711,"x_min":56,"x_max":654,"o":"m 654 231 q 584 53 654 117 q 382 -17 514 -10 l 367 -64 q 463 -101 428 -71 q 499 -179 499 -132 q 467 -260 499 -228 q 367 -293 436 -293 q 267 -262 300 -293 q 235 -179 235 -232 l 317 -168 q 329 -226 317 -206 q 365 -247 342 -247 q 404 -186 404 -247 q 381 -133 404 -153 q 294 -103 357 -114 l 319 -15 q 134 53 199 -8 q 56 235 69 115 l 168 251 q 226 97 179 151 q 354 43 274 43 q 535 196 535 43 q 519 269 535 242 q 469 316 504 297 q 365 351 433 335 l 294 369 q 122 459 171 401 q 72 622 72 517 q 145 806 72 743 q 358 868 218 868 q 560 806 489 868 q 647 617 631 744 l 532 601 q 480 756 525 701 q 358 810 435 810 q 233 770 276 810 q 189 658 189 731 q 224 558 189 592 q 351 500 260 524 l 428 481 q 603 389 551 446 q 654 231 654 332 z "},"Ŝ":{"ha":711,"x_min":56,"x_max":654,"o":"m 358 868 q 560 806 489 868 q 647 617 631 744 l 532 601 q 480 756 525 701 q 358 810 435 810 q 233 770 276 810 q 189 658 189 731 q 224 558 189 592 q 351 500 260 524 l 428 481 q 603 389 551 446 q 654 231 654 332 q 576 47 654 111 q 354 -17 499 -17 q 144 45 217 -17 q 56 235 71 107 l 168 251 q 226 97 179 151 q 354 43 274 43 q 535 196 535 43 q 519 269 535 242 q 469 316 504 297 q 365 351 433 335 l 294 369 q 122 459 171 401 q 72 622 72 517 q 145 806 72 743 q 358 868 218 868 m 329 1156 l 392 1156 l 525 953 l 489 919 l 360 1040 l 235 919 l 196 953 l 329 1156 z "},"Ș":{"ha":711,"x_min":56,"x_max":654,"o":"m 358 868 q 560 806 489 868 q 647 617 631 744 l 532 601 q 480 756 525 701 q 358 810 435 810 q 233 770 276 810 q 189 658 189 731 q 224 558 189 592 q 351 500 260 524 l 428 481 q 603 389 551 446 q 654 231 654 332 q 576 47 654 111 q 354 -17 499 -17 q 144 45 217 -17 q 56 235 71 107 l 168 251 q 226 97 179 151 q 354 43 274 43 q 535 196 535 43 q 519 269 535 242 q 469 316 504 297 q 365 351 433 335 l 294 369 q 122 459 171 401 q 72 622 72 517 q 145 806 72 743 q 358 868 218 868 m 351 -58 q 405 -83 383 -58 q 426 -146 426 -108 q 385 -271 426 -215 q 289 -361 344 -326 l 264 -329 q 293 -287 285 -308 q 301 -236 301 -267 q 289 -187 301 -218 q 276 -133 276 -150 q 299 -81 276 -103 q 351 -58 321 -58 z "},"T":{"ha":592,"x_min":-1,"x_max":593,"o":"m 593 851 l 593 781 l 368 781 l 368 0 l 226 0 l 226 781 l -1 781 l -1 851 l 593 851 z "},"Ŧ":{"ha":592,"x_min":-1,"x_max":593,"o":"m 368 781 l 368 450 l 550 450 l 550 361 l 368 361 l 368 0 l 226 0 l 226 361 l 44 361 l 44 450 l 226 450 l 226 781 l -1 781 l -1 851 l 593 851 l 593 781 l 368 781 z "},"Ť":{"ha":592,"x_min":-1,"x_max":593,"o":"m 593 851 l 593 781 l 368 781 l 368 0 l 226 0 l 226 781 l -1 781 l -1 851 l 593 851 m 172 1154 l 297 1033 l 426 1154 l 463 1121 l 329 919 l 267 919 l 133 1121 l 172 1154 z "},"Ţ":{"ha":592,"x_min":-1,"x_max":593,"o":"m 331 0 l 310 -64 q 406 -101 371 -71 q 442 -179 442 -132 q 410 -260 442 -228 q 310 -293 379 -293 q 210 -262 243 -293 q 178 -179 178 -232 l 260 -168 q 272 -226 260 -206 q 308 -247 285 -247 q 347 -186 347 -247 q 324 -133 347 -153 q 238 -103 300 -114 l 268 0 l 226 0 l 226 781 l -1 781 l -1 851 l 593 851 l 593 781 l 368 781 l 368 0 l 331 0 z "},"Ț":{"ha":592,"x_min":-1,"x_max":593,"o":"m 593 851 l 593 781 l 368 781 l 368 0 l 226 0 l 226 781 l -1 781 l -1 851 l 593 851 m 294 -58 q 348 -83 326 -58 q 369 -146 369 -108 q 328 -271 369 -215 q 232 -361 288 -326 l 207 -329 q 236 -287 228 -308 q 244 -236 244 -267 q 232 -187 244 -218 q 219 -133 219 -150 q 242 -81 219 -103 q 294 -58 264 -58 z "},"U":{"ha":817,"x_min":97,"x_max":721,"o":"m 721 282 q 676 108 721 175 q 562 12 631 40 q 417 -17 493 -17 q 188 52 279 -17 q 97 282 97 121 l 97 851 l 239 851 l 239 282 q 290 108 239 163 q 426 53 340 53 q 577 109 515 53 q 639 282 639 165 l 639 851 l 721 851 l 721 282 z "},"Ú":{"ha":817,"x_min":97,"x_max":721,"o":"m 721 282 q 676 108 721 175 q 562 12 631 40 q 417 -17 493 -17 q 188 52 279 -17 q 97 282 97 121 l 97 851 l 239 851 l 239 282 q 290 108 239 163 q 426 53 340 53 q 577 109 515 53 q 639 282 639 165 l 639 851 l 721 851 l 721 282 m 507 1174 l 593 1074 l 365 922 l 336 954 l 507 1174 z "},"Ŭ":{"ha":817,"x_min":97,"x_max":721,"o":"m 721 282 q 676 108 721 175 q 562 12 631 40 q 417 -17 493 -17 q 188 52 279 -17 q 97 282 97 121 l 97 851 l 239 851 l 239 282 q 290 108 239 163 q 426 53 340 53 q 577 109 515 53 q 639 282 639 165 l 639 851 l 721 851 l 721 282 m 589 1117 q 422 929 589 929 q 258 1117 258 929 l 319 1117 q 344 1047 319 1072 q 422 1021 369 1021 q 500 1047 475 1021 q 525 1117 525 1072 l 589 1117 z "},"Û":{"ha":817,"x_min":97,"x_max":721,"o":"m 721 282 q 676 108 721 175 q 562 12 631 40 q 417 -17 493 -17 q 188 52 279 -17 q 97 282 97 121 l 97 851 l 239 851 l 239 282 q 290 108 239 163 q 426 53 340 53 q 577 109 515 53 q 639 282 639 165 l 639 851 l 721 851 l 721 282 m 390 1154 l 453 1154 l 586 951 l 550 919 l 421 1040 l 296 919 l 257 951 l 390 1154 z "},"Ü":{"ha":817,"x_min":97,"x_max":721,"o":"m 721 282 q 676 108 721 175 q 562 12 631 40 q 417 -17 493 -17 q 188 52 279 -17 q 97 282 97 121 l 97 851 l 239 851 l 239 282 q 290 108 239 163 q 426 53 340 53 q 577 109 515 53 q 639 282 639 165 l 639 851 l 721 851 l 721 282 m 296 947 q 241 971 264 947 q 218 1025 218 994 q 241 1083 218 1058 q 296 1107 264 1107 q 353 1083 329 1107 q 378 1025 378 1058 q 353 970 378 993 q 296 947 329 947 m 549 947 q 494 972 518 947 q 469 1025 469 996 q 493 1083 469 1058 q 549 1107 517 1107 q 605 1083 582 1107 q 628 1025 628 1058 q 606 970 628 993 q 549 947 583 947 z "},"Ù":{"ha":817,"x_min":97,"x_max":721,"o":"m 721 282 q 676 108 721 175 q 562 12 631 40 q 417 -17 493 -17 q 188 52 279 -17 q 97 282 97 121 l 97 851 l 239 851 l 239 282 q 290 108 239 163 q 426 53 340 53 q 577 109 515 53 q 639 282 639 165 l 639 851 l 721 851 l 721 282 m 485 922 l 254 1074 l 340 1174 l 514 954 l 485 922 z "},"Ű":{"ha":817,"x_min":97,"x_max":721,"o":"m 721 282 q 676 108 721 175 q 562 12 631 40 q 417 -17 493 -17 q 188 52 279 -17 q 97 282 97 121 l 97 851 l 239 851 l 239 282 q 290 108 239 163 q 426 53 340 53 q 577 109 515 53 q 639 282 639 165 l 639 851 l 721 851 l 721 282 m 365 1174 l 451 1074 l 222 922 l 193 954 l 365 1174 m 626 1174 l 710 1074 l 483 922 l 454 954 l 626 1174 z "},"Ū":{"ha":817,"x_min":97,"x_max":721,"o":"m 721 282 q 676 108 721 175 q 562 12 631 40 q 417 -17 493 -17 q 188 52 279 -17 q 97 282 97 121 l 97 851 l 239 851 l 239 282 q 290 108 239 163 q 426 53 340 53 q 577 109 515 53 q 639 282 639 165 l 639 851 l 721 851 l 721 282 m 594 1076 l 594 976 l 253 976 l 253 1076 l 594 1076 z "},"Ų":{"ha":817,"x_min":97,"x_max":721,"o":"m 721 851 l 721 282 q 646 71 721 142 q 463 -14 571 0 l 431 -35 q 381 -78 394 -60 q 368 -122 368 -97 q 383 -157 368 -144 q 419 -169 397 -169 q 472 -152 449 -169 q 513 -106 496 -135 l 563 -136 q 492 -215 536 -183 q 400 -247 447 -247 q 317 -221 347 -247 q 288 -149 288 -194 q 310 -78 288 -110 q 381 -15 333 -47 q 176 61 256 -8 q 97 282 97 131 l 97 851 l 239 851 l 239 282 q 290 108 239 163 q 426 53 340 53 q 577 109 515 53 q 639 282 639 165 l 639 851 l 721 851 z "},"Ů":{"ha":817,"x_min":97,"x_max":721,"o":"m 721 282 q 676 108 721 175 q 562 12 631 40 q 417 -17 493 -17 q 188 52 279 -17 q 97 282 97 121 l 97 851 l 239 851 l 239 282 q 290 108 239 163 q 426 53 340 53 q 577 109 515 53 q 639 282 639 165 l 639 851 l 721 851 l 721 282 m 425 914 q 324 952 351 914 q 297 1042 297 990 q 425 1171 297 1171 q 553 1042 553 1171 q 425 914 553 914 m 424 960 q 467 985 456 960 q 479 1042 479 1010 q 424 1124 479 1124 q 372 1042 372 1124 q 383 985 372 1010 q 424 960 394 960 z "},"Ũ":{"ha":817,"x_min":97,"x_max":721,"o":"m 721 282 q 676 108 721 175 q 562 12 631 40 q 417 -17 493 -17 q 188 52 279 -17 q 97 282 97 121 l 97 851 l 239 851 l 239 282 q 290 108 239 163 q 426 53 340 53 q 577 109 515 53 q 639 282 639 165 l 639 851 l 721 851 l 721 282 m 507 964 q 465 969 483 964 q 413 988 446 975 q 375 1001 394 994 q 340 1007 356 1007 q 299 994 315 1007 q 271 956 282 982 l 228 971 q 269 1076 239 1043 q 338 1108 299 1108 q 383 1102 361 1108 q 432 1085 404 1096 q 469 1072 450 1078 q 503 1065 488 1065 q 546 1076 529 1065 q 574 1113 563 1088 l 617 1094 q 576 996 606 1028 q 507 964 546 964 z "},"V":{"ha":728,"x_min":18,"x_max":713,"o":"m 713 851 l 449 0 l 283 0 l 18 851 l 160 851 l 393 64 l 626 851 l 713 851 z "},"W":{"ha":1047,"x_min":29,"x_max":1019,"o":"m 1019 851 l 833 0 l 707 0 l 525 697 l 349 0 l 214 0 l 29 851 l 171 851 l 313 171 l 486 851 l 615 851 l 790 168 l 933 851 l 1019 851 z "},"Ẃ":{"ha":1047,"x_min":29,"x_max":1019,"o":"m 1019 851 l 833 0 l 707 0 l 525 697 l 349 0 l 214 0 l 29 851 l 171 851 l 313 171 l 486 851 l 615 851 l 790 168 l 933 851 l 1019 851 m 633 1176 l 719 1074 l 492 924 l 463 954 l 633 1176 z "},"Ŵ":{"ha":1047,"x_min":29,"x_max":1019,"o":"m 1019 851 l 833 0 l 707 0 l 525 697 l 349 0 l 214 0 l 29 851 l 171 851 l 313 171 l 486 851 l 615 851 l 790 168 l 933 851 l 1019 851 m 517 1156 l 579 1156 l 713 953 l 676 919 l 547 1040 l 422 919 l 383 953 l 517 1156 z "},"Ẅ":{"ha":1047,"x_min":29,"x_max":1019,"o":"m 1019 851 l 833 0 l 707 0 l 525 697 l 349 0 l 214 0 l 29 851 l 171 851 l 313 171 l 486 851 l 615 851 l 790 168 l 933 851 l 1019 851 m 424 949 q 369 972 392 949 q 346 1028 346 996 q 369 1085 346 1061 q 424 1108 392 1108 q 481 1085 457 1108 q 506 1028 506 1061 q 481 972 506 996 q 424 949 457 949 m 676 949 q 622 973 646 949 q 597 1028 597 997 q 621 1085 597 1061 q 676 1108 644 1108 q 733 1085 710 1108 q 756 1028 756 1061 q 733 972 756 994 q 676 949 710 949 z "},"Ẁ":{"ha":1047,"x_min":29,"x_max":1019,"o":"m 1019 851 l 833 0 l 707 0 l 525 697 l 349 0 l 214 0 l 29 851 l 171 851 l 313 171 l 486 851 l 615 851 l 790 168 l 933 851 l 1019 851 m 611 924 l 381 1074 l 467 1176 l 640 954 l 611 924 z "},"X":{"ha":729,"x_min":18,"x_max":729,"o":"m 567 0 l 339 354 l 104 0 l 18 0 l 300 414 l 18 851 l 181 851 l 394 518 l 625 851 l 711 851 l 436 454 l 729 0 l 567 0 z "},"Y":{"ha":661,"x_min":-4,"x_max":664,"o":"m 401 294 l 400 293 l 400 0 l 258 0 l 258 294 l -4 851 l 139 851 l 357 372 l 581 851 l 664 851 l 401 294 z "},"Ý":{"ha":661,"x_min":-4,"x_max":664,"o":"m 401 294 l 400 293 l 400 0 l 258 0 l 258 294 l -4 851 l 139 851 l 357 372 l 581 851 l 664 851 l 401 294 m 417 1174 l 503 1074 l 275 922 l 246 954 l 417 1174 z "},"Ŷ":{"ha":661,"x_min":-4,"x_max":664,"o":"m 401 294 l 400 293 l 400 0 l 258 0 l 258 294 l -4 851 l 139 851 l 357 372 l 581 851 l 664 851 l 401 294 m 300 1156 l 363 1156 l 496 953 l 460 919 l 331 1040 l 206 919 l 167 953 l 300 1156 z "},"Ÿ":{"ha":661,"x_min":-4,"x_max":664,"o":"m 401 294 l 400 293 l 400 0 l 258 0 l 258 294 l -4 851 l 139 851 l 357 372 l 581 851 l 664 851 l 401 294 m 207 947 q 152 971 175 947 q 129 1025 129 994 q 152 1083 129 1058 q 207 1107 175 1107 q 265 1083 240 1107 q 289 1025 289 1058 q 265 970 289 993 q 207 947 240 947 m 460 947 q 405 972 429 947 q 381 1025 381 996 q 404 1083 381 1058 q 460 1107 428 1107 q 516 1083 493 1107 q 539 1025 539 1058 q 517 970 539 993 q 460 947 494 947 z "},"Ỳ":{"ha":661,"x_min":-4,"x_max":664,"o":"m 401 294 l 400 293 l 400 0 l 258 0 l 258 294 l -4 851 l 139 851 l 357 372 l 581 851 l 664 851 l 401 294 m 394 924 l 164 1074 l 250 1176 l 424 954 l 394 924 z "},"Z":{"ha":653,"x_min":29,"x_max":625,"o":"m 625 71 l 625 0 l 29 0 l 29 90 l 465 781 l 53 781 l 53 851 l 614 851 l 614 764 l 174 71 l 625 71 z "},"Ź":{"ha":653,"x_min":29,"x_max":625,"o":"m 625 71 l 625 0 l 29 0 l 29 90 l 465 781 l 53 781 l 53 851 l 614 851 l 614 764 l 174 71 l 625 71 m 408 1176 l 494 1074 l 267 924 l 238 954 l 408 1176 z "},"Ž":{"ha":653,"x_min":29,"x_max":625,"o":"m 625 71 l 625 0 l 29 0 l 29 90 l 465 781 l 53 781 l 53 851 l 614 851 l 614 764 l 174 71 l 625 71 m 200 1154 l 325 1033 l 454 1154 l 490 1121 l 357 919 l 294 919 l 161 1121 l 200 1154 z "},"Ż":{"ha":653,"x_min":29,"x_max":625,"o":"m 625 71 l 625 0 l 29 0 l 29 90 l 465 781 l 53 781 l 53 851 l 614 851 l 614 764 l 174 71 l 625 71 m 325 942 q 264 967 289 942 q 239 1028 239 992 q 264 1088 239 1063 q 325 1114 289 1114 q 386 1088 360 1114 q 413 1028 413 1063 q 386 967 413 992 q 325 942 360 942 z "},"a":{"ha":710,"x_min":65,"x_max":610,"o":"m 249 -17 q 115 30 164 -17 q 65 157 65 76 q 127 292 65 243 q 315 364 189 342 l 469 389 l 469 457 q 350 614 469 614 q 247 574 279 614 q 211 450 215 533 l 94 463 q 161 628 103 572 q 353 683 219 683 q 546 626 482 683 q 610 451 610 568 l 610 0 l 521 0 l 478 97 q 375 13 435 42 q 249 -17 315 -17 m 299 57 q 392 85 346 57 q 469 150 439 113 l 469 332 l 333 306 q 228 257 264 290 q 193 167 193 224 q 222 87 193 117 q 299 57 250 57 z "},"á":{"ha":710,"x_min":65,"x_max":610,"o":"m 249 -17 q 115 30 164 -17 q 65 157 65 76 q 127 292 65 243 q 315 364 189 342 l 469 389 l 469 457 q 350 614 469 614 q 247 574 279 614 q 211 450 215 533 l 94 463 q 161 628 103 572 q 353 683 219 683 q 546 626 482 683 q 610 451 610 568 l 610 0 l 521 0 l 478 97 q 375 13 435 42 q 249 -17 315 -17 m 299 57 q 392 85 346 57 q 469 150 439 113 l 469 332 l 333 306 q 228 257 264 290 q 193 167 193 224 q 222 87 193 117 q 299 57 250 57 m 446 989 l 532 889 l 304 738 l 275 769 l 446 989 z "},"ă":{"ha":710,"x_min":65,"x_max":610,"o":"m 249 -17 q 115 30 164 -17 q 65 157 65 76 q 127 292 65 243 q 315 364 189 342 l 469 389 l 469 457 q 350 614 469 614 q 247 574 279 614 q 211 450 215 533 l 94 463 q 161 628 103 572 q 353 683 219 683 q 546 626 482 683 q 610 451 610 568 l 610 0 l 521 0 l 478 97 q 375 13 435 42 q 249 -17 315 -17 m 299 57 q 392 85 346 57 q 469 150 439 113 l 469 332 l 333 306 q 228 257 264 290 q 193 167 193 224 q 222 87 193 117 q 299 57 250 57 m 529 932 q 363 746 529 746 q 199 932 199 746 l 260 932 q 285 860 260 886 q 363 833 310 833 q 440 860 415 833 q 465 932 465 886 l 529 932 z "},"â":{"ha":710,"x_min":65,"x_max":610,"o":"m 249 -17 q 115 30 164 -17 q 65 157 65 76 q 127 292 65 243 q 315 364 189 342 l 469 389 l 469 457 q 350 614 469 614 q 247 574 279 614 q 211 450 215 533 l 94 463 q 161 628 103 572 q 353 683 219 683 q 546 626 482 683 q 610 451 610 568 l 610 0 l 521 0 l 478 97 q 375 13 435 42 q 249 -17 315 -17 m 299 57 q 392 85 346 57 q 469 150 439 113 l 469 332 l 333 306 q 228 257 264 290 q 193 167 193 224 q 222 87 193 117 q 299 57 250 57 m 329 969 l 392 969 l 525 767 l 489 735 l 360 856 l 235 735 l 196 767 l 329 969 z "},"ä":{"ha":710,"x_min":65,"x_max":610,"o":"m 249 -17 q 115 30 164 -17 q 65 157 65 76 q 127 292 65 243 q 315 364 189 342 l 469 389 l 469 457 q 350 614 469 614 q 247 574 279 614 q 211 450 215 533 l 94 463 q 161 628 103 572 q 353 683 219 683 q 546 626 482 683 q 610 451 610 568 l 610 0 l 521 0 l 478 97 q 375 13 435 42 q 249 -17 315 -17 m 299 57 q 392 85 346 57 q 469 150 439 113 l 469 332 l 333 306 q 228 257 264 290 q 193 167 193 224 q 222 87 193 117 q 299 57 250 57 m 236 763 q 181 786 204 763 q 158 840 158 810 q 181 898 158 874 q 236 922 204 922 q 294 898 269 922 q 318 840 318 874 q 294 785 318 808 q 236 763 269 763 m 489 763 q 434 787 458 763 q 410 840 410 811 q 433 898 410 874 q 489 922 457 922 q 545 898 522 922 q 568 840 568 874 q 546 785 568 808 q 489 763 524 763 z "},"à":{"ha":710,"x_min":65,"x_max":610,"o":"m 249 -17 q 115 30 164 -17 q 65 157 65 76 q 127 292 65 243 q 315 364 189 342 l 469 389 l 469 457 q 350 614 469 614 q 247 574 279 614 q 211 450 215 533 l 94 463 q 161 628 103 572 q 353 683 219 683 q 546 626 482 683 q 610 451 610 568 l 610 0 l 521 0 l 478 97 q 375 13 435 42 q 249 -17 315 -17 m 299 57 q 392 85 346 57 q 469 150 439 113 l 469 332 l 333 306 q 228 257 264 290 q 193 167 193 224 q 222 87 193 117 q 299 57 250 57 m 424 738 l 193 889 l 279 989 l 453 769 l 424 738 z "},"ā":{"ha":710,"x_min":65,"x_max":610,"o":"m 249 -17 q 115 30 164 -17 q 65 157 65 76 q 127 292 65 243 q 315 364 189 342 l 469 389 l 469 457 q 350 614 469 614 q 247 574 279 614 q 211 450 215 533 l 94 463 q 161 628 103 572 q 353 683 219 683 q 546 626 482 683 q 610 451 610 568 l 610 0 l 521 0 l 478 97 q 375 13 435 42 q 249 -17 315 -17 m 299 57 q 392 85 346 57 q 469 150 439 113 l 469 332 l 333 306 q 228 257 264 290 q 193 167 193 224 q 222 87 193 117 q 299 57 250 57 m 533 890 l 533 792 l 192 792 l 192 890 l 533 890 z "},"ą":{"ha":710,"x_min":65,"x_max":681,"o":"m 681 -136 q 610 -215 654 -183 q 518 -247 565 -247 q 435 -221 465 -247 q 406 -149 406 -194 q 431 -76 406 -108 q 508 -10 456 -43 l 524 0 l 521 0 l 478 97 q 375 13 435 42 q 249 -17 315 -17 q 115 30 164 -17 q 65 157 65 76 q 127 292 65 243 q 315 364 189 342 l 469 389 l 469 457 q 350 614 469 614 q 247 574 279 614 q 211 450 215 533 l 94 463 q 161 628 103 572 q 353 683 219 683 q 546 626 482 683 q 610 451 610 568 l 610 0 l 603 0 l 549 -35 q 499 -78 513 -60 q 486 -122 486 -97 q 501 -157 486 -144 q 538 -169 515 -169 q 590 -152 567 -169 q 631 -106 614 -135 l 681 -136 m 469 332 l 333 306 q 228 257 264 290 q 193 167 193 224 q 222 87 193 117 q 299 57 250 57 q 392 85 346 57 q 469 150 439 113 l 469 332 z "},"å":{"ha":710,"x_min":65,"x_max":610,"o":"m 249 -17 q 115 30 164 -17 q 65 157 65 76 q 127 292 65 243 q 315 364 189 342 l 469 389 l 469 457 q 350 614 469 614 q 247 574 279 614 q 211 450 215 533 l 94 463 q 161 628 103 572 q 353 683 219 683 q 546 626 482 683 q 610 451 610 568 l 610 0 l 521 0 l 478 97 q 375 13 435 42 q 249 -17 315 -17 m 299 57 q 392 85 346 57 q 469 150 439 113 l 469 332 l 333 306 q 228 257 264 290 q 193 167 193 224 q 222 87 193 117 q 299 57 250 57 m 365 729 q 265 767 292 729 q 238 857 238 806 q 365 986 238 986 q 493 857 493 986 q 365 729 493 729 m 364 775 q 408 800 396 775 q 419 857 419 825 q 364 939 419 939 q 313 857 313 939 q 324 800 313 825 q 364 775 335 775 z "},"ǻ":{"ha":710,"x_min":65,"x_max":610,"o":"m 249 -17 q 115 30 164 -17 q 65 157 65 76 q 127 292 65 243 q 315 364 189 342 l 469 389 l 469 457 q 350 614 469 614 q 247 574 279 614 q 211 450 215 533 l 94 463 q 161 628 103 572 q 353 683 219 683 q 546 626 482 683 q 610 451 610 568 l 610 0 l 521 0 l 478 97 q 375 13 435 42 q 249 -17 315 -17 m 299 57 q 392 85 346 57 q 469 150 439 113 l 469 332 l 333 306 q 228 257 264 290 q 193 167 193 224 q 222 87 193 117 q 299 57 250 57 m 478 932 q 493 857 493 903 q 365 729 493 729 q 265 767 292 729 q 238 857 238 806 q 365 986 238 986 q 428 976 399 986 l 499 1065 l 568 985 l 478 932 m 364 775 q 408 800 396 775 q 419 857 419 825 q 364 939 419 939 q 313 857 313 939 q 324 800 313 825 q 364 775 335 775 z "},"ã":{"ha":710,"x_min":65,"x_max":610,"o":"m 249 -17 q 115 30 164 -17 q 65 157 65 76 q 127 292 65 243 q 315 364 189 342 l 469 389 l 469 457 q 350 614 469 614 q 247 574 279 614 q 211 450 215 533 l 94 463 q 161 628 103 572 q 353 683 219 683 q 546 626 482 683 q 610 451 610 568 l 610 0 l 521 0 l 478 97 q 375 13 435 42 q 249 -17 315 -17 m 299 57 q 392 85 346 57 q 469 150 439 113 l 469 332 l 333 306 q 228 257 264 290 q 193 167 193 224 q 222 87 193 117 q 299 57 250 57 m 447 781 q 388 790 417 781 q 353 803 360 800 q 315 816 335 810 q 281 822 296 822 q 239 810 256 822 q 211 771 222 797 l 168 786 q 209 890 179 857 q 278 924 239 924 q 372 899 317 924 q 409 885 390 892 q 443 879 428 879 q 487 890 469 879 q 514 926 504 901 l 557 910 q 515 811 544 842 q 447 781 486 781 z "},"æ":{"ha":1078,"x_min":65,"x_max":1015,"o":"m 585 325 l 585 322 q 620 114 585 175 q 742 53 656 53 q 890 199 883 53 l 1006 193 q 934 40 994 96 q 738 -17 874 -17 q 489 104 554 -17 q 380 14 443 44 q 249 -17 317 -17 q 115 30 164 -17 q 65 157 65 76 q 127 292 65 243 q 315 364 189 342 l 446 385 q 467 501 451 456 q 354 614 449 614 q 248 574 281 614 q 211 450 215 533 l 94 463 q 162 628 103 572 q 356 683 221 683 q 539 621 476 683 q 733 683 610 683 q 954 588 893 683 q 1015 339 1015 493 l 1015 325 l 585 325 m 732 614 q 624 560 657 614 q 586 394 592 507 l 879 394 q 842 558 875 503 q 732 614 810 614 m 299 57 q 392 85 346 57 q 468 149 439 113 q 444 325 444 218 l 333 306 q 193 167 193 281 q 222 87 193 117 q 299 57 250 57 z "},"ǽ":{"ha":1061,"x_min":65,"x_max":1015,"o":"m 669 989 l 756 889 l 528 738 l 499 769 l 669 989 m 585 325 l 585 322 q 620 114 585 175 q 742 53 656 53 q 890 199 883 53 l 1006 193 q 934 40 994 96 q 738 -17 874 -17 q 489 104 554 -17 q 380 14 443 44 q 249 -17 317 -17 q 115 30 164 -17 q 65 157 65 76 q 127 292 65 243 q 315 364 189 342 l 446 385 q 467 501 451 456 q 354 614 449 614 q 248 574 281 614 q 211 450 215 533 l 94 463 q 162 628 103 572 q 356 683 221 683 q 539 621 476 683 q 733 683 610 683 q 954 588 893 683 q 1015 339 1015 493 l 1015 325 l 585 325 m 732 614 q 624 560 657 614 q 586 394 592 507 l 879 394 q 842 558 875 503 q 732 614 810 614 m 299 57 q 392 85 346 57 q 468 149 439 113 q 444 325 444 218 l 333 306 q 193 167 193 281 q 222 87 193 117 q 299 57 250 57 z "},"b":{"ha":746,"x_min":114,"x_max":682,"o":"m 414 683 q 624 588 565 683 q 682 333 682 492 q 624 79 682 175 q 414 -17 565 -17 q 221 58 308 -17 l 176 0 l 114 0 l 114 881 l 254 899 l 254 642 q 414 683 333 683 m 381 63 q 504 134 467 63 q 542 333 542 206 q 503 541 542 468 q 379 614 465 614 q 254 582 310 614 l 254 106 q 381 63 307 63 z "},"c":{"ha":672,"x_min":64,"x_max":608,"o":"m 204 333 q 235 124 204 194 q 353 53 267 53 q 455 96 424 53 q 489 226 486 139 l 608 222 q 542 44 600 106 q 350 -17 483 -17 q 125 78 186 -17 q 64 333 64 174 q 125 589 64 494 q 350 683 186 683 q 541 626 483 683 q 607 457 599 568 l 489 442 q 455 572 486 529 q 353 614 424 614 q 235 544 267 614 q 204 333 204 474 z "},"ć":{"ha":672,"x_min":64,"x_max":608,"o":"m 204 333 q 235 124 204 194 q 353 53 267 53 q 455 96 424 53 q 489 226 486 139 l 608 222 q 542 44 600 106 q 350 -17 483 -17 q 125 78 186 -17 q 64 333 64 174 q 125 589 64 494 q 350 683 186 683 q 541 626 483 683 q 607 457 599 568 l 489 442 q 455 572 486 529 q 353 614 424 614 q 235 544 267 614 q 204 333 204 474 m 417 989 l 503 889 l 275 738 l 246 769 l 417 989 z "},"č":{"ha":672,"x_min":64,"x_max":608,"o":"m 204 333 q 235 124 204 194 q 353 53 267 53 q 455 96 424 53 q 489 226 486 139 l 608 222 q 542 44 600 106 q 350 -17 483 -17 q 125 78 186 -17 q 64 333 64 174 q 125 589 64 494 q 350 683 186 683 q 541 626 483 683 q 607 457 599 568 l 489 442 q 455 572 486 529 q 353 614 424 614 q 235 544 267 614 q 204 333 204 474 m 208 969 l 333 849 l 463 969 l 499 936 l 365 735 l 303 735 l 169 936 l 208 969 z "},"ç":{"ha":672,"x_min":64,"x_max":608,"o":"m 608 222 q 543 46 600 107 q 357 -17 486 -15 l 342 -64 q 438 -101 403 -71 q 474 -179 474 -132 q 442 -260 474 -228 q 342 -293 411 -293 q 242 -262 275 -293 q 210 -179 210 -232 l 292 -168 q 304 -226 292 -206 q 340 -247 317 -247 q 379 -186 379 -247 q 356 -133 379 -153 q 269 -103 332 -114 l 296 -14 q 114 95 164 3 q 64 333 64 188 q 125 589 64 494 q 350 683 186 683 q 541 626 483 683 q 607 457 599 568 l 489 442 q 455 572 486 529 q 353 614 424 614 q 235 544 267 614 q 204 333 204 474 q 235 124 204 194 q 353 53 267 53 q 455 96 424 53 q 489 226 486 139 l 608 222 z "},"ĉ":{"ha":672,"x_min":64,"x_max":608,"o":"m 204 333 q 235 124 204 194 q 353 53 267 53 q 455 96 424 53 q 489 226 486 139 l 608 222 q 542 44 600 106 q 350 -17 483 -17 q 125 78 186 -17 q 64 333 64 174 q 125 589 64 494 q 350 683 186 683 q 541 626 483 683 q 607 457 599 568 l 489 442 q 455 572 486 529 q 353 614 424 614 q 235 544 267 614 q 204 333 204 474 m 300 969 l 363 969 l 496 767 l 460 735 l 331 856 l 206 735 l 167 767 l 300 969 z "},"ċ":{"ha":672,"x_min":64,"x_max":608,"o":"m 204 333 q 235 124 204 194 q 353 53 267 53 q 455 96 424 53 q 489 226 486 139 l 608 222 q 542 44 600 106 q 350 -17 483 -17 q 125 78 186 -17 q 64 333 64 174 q 125 589 64 494 q 350 683 186 683 q 541 626 483 683 q 607 457 599 568 l 489 442 q 455 572 486 529 q 353 614 424 614 q 235 544 267 614 q 204 333 204 474 m 333 754 q 272 780 297 754 q 247 840 247 806 q 272 902 247 876 q 333 928 297 928 q 394 902 368 928 q 421 840 421 876 q 394 780 421 806 q 333 754 368 754 z "},"d":{"ha":746,"x_min":64,"x_max":635,"o":"m 635 899 l 635 0 l 550 0 l 510 75 q 315 -17 433 -17 q 64 328 64 -17 q 332 683 64 683 q 494 633 417 683 l 494 881 l 635 899 m 354 53 q 494 131 438 53 l 494 563 q 365 607 435 607 q 245 536 286 607 q 204 328 204 465 q 242 122 204 192 q 354 53 281 53 z "},"ð":{"ha":738,"x_min":64,"x_max":664,"o":"m 549 743 q 664 306 664 553 q 635 153 664 226 q 538 32 606 81 q 364 -17 471 -17 q 135 72 206 -17 q 64 286 64 161 q 135 501 64 411 q 364 590 206 590 q 465 569 418 590 q 539 501 513 549 q 454 706 510 615 l 311 647 l 311 740 l 404 778 q 335 856 382 806 l 397 926 q 499 817 456 874 l 632 871 l 632 776 l 549 743 m 367 42 q 494 112 456 42 q 533 286 533 182 q 496 462 533 390 q 367 533 458 533 q 242 463 279 533 q 204 286 204 393 q 242 112 204 182 q 367 42 279 42 z "},"ď":{"ha":803,"x_min":64,"x_max":861,"o":"m 635 899 l 635 0 l 550 0 l 510 75 q 315 -17 433 -17 q 64 328 64 -17 q 332 683 64 683 q 494 633 417 683 l 494 881 l 635 899 m 354 53 q 494 131 438 53 l 494 563 q 365 607 435 607 q 245 536 286 607 q 204 328 204 465 q 242 122 204 192 q 354 53 281 53 m 786 1044 q 840 1020 818 1044 q 861 957 861 996 q 820 832 861 888 q 724 742 779 776 l 699 774 q 728 815 719 794 q 736 867 736 836 q 724 915 736 885 q 711 969 711 953 q 733 1022 711 1000 q 786 1044 756 1044 z "},"đ":{"ha":746,"x_min":64,"x_max":688,"o":"m 688 736 l 635 736 l 635 0 l 550 0 l 510 75 q 315 -17 433 -17 q 64 328 64 -17 q 332 683 64 683 q 494 633 417 683 l 494 736 l 332 736 l 332 825 l 494 825 l 494 881 l 635 899 l 635 825 l 688 825 l 688 736 m 354 53 q 494 131 438 53 l 494 563 q 365 607 435 607 q 245 536 286 607 q 204 328 204 465 q 242 122 204 192 q 354 53 281 53 z "},"e":{"ha":697,"x_min":64,"x_max":635,"o":"m 204 325 l 204 322 q 240 114 204 175 q 361 53 275 53 q 510 199 503 53 l 625 193 q 554 40 615 96 q 357 -17 493 -17 q 132 70 200 -17 q 64 333 64 157 q 128 588 64 492 q 356 683 193 683 q 574 588 513 683 q 635 339 635 493 l 635 325 l 204 325 m 353 614 q 246 560 279 614 q 206 394 213 506 l 499 394 q 462 558 494 503 q 353 614 429 614 z "},"é":{"ha":697,"x_min":64,"x_max":635,"o":"m 204 325 l 204 322 q 240 114 204 175 q 361 53 275 53 q 510 199 503 53 l 625 193 q 554 40 615 96 q 357 -17 493 -17 q 132 70 200 -17 q 64 333 64 157 q 128 588 64 492 q 356 683 193 683 q 574 588 513 683 q 635 339 635 493 l 635 325 l 204 325 m 353 614 q 246 560 279 614 q 206 394 213 506 l 499 394 q 462 558 494 503 q 353 614 429 614 m 429 989 l 515 889 l 288 738 l 258 769 l 429 989 z "},"ĕ":{"ha":697,"x_min":64,"x_max":635,"o":"m 204 325 l 204 322 q 240 114 204 175 q 361 53 275 53 q 510 199 503 53 l 625 193 q 554 40 615 96 q 357 -17 493 -17 q 132 70 200 -17 q 64 333 64 157 q 128 588 64 492 q 356 683 193 683 q 574 588 513 683 q 635 339 635 493 l 635 325 l 204 325 m 353 614 q 246 560 279 614 q 206 394 213 506 l 499 394 q 462 558 494 503 q 353 614 429 614 m 511 932 q 344 746 511 746 q 181 932 181 746 l 242 932 q 267 860 242 886 q 344 833 292 833 q 422 860 397 833 q 447 932 447 886 l 511 932 z "},"ě":{"ha":697,"x_min":64,"x_max":635,"o":"m 204 325 l 204 322 q 240 114 204 175 q 361 53 275 53 q 510 199 503 53 l 625 193 q 554 40 615 96 q 357 -17 493 -17 q 132 70 200 -17 q 64 333 64 157 q 128 588 64 492 q 356 683 193 683 q 574 588 513 683 q 635 339 635 493 l 635 325 l 204 325 m 353 614 q 246 560 279 614 q 206 394 213 506 l 499 394 q 462 558 494 503 q 353 614 429 614 m 221 969 l 346 849 l 475 969 l 511 936 l 378 735 l 315 735 l 182 936 l 221 969 z "},"ê":{"ha":697,"x_min":64,"x_max":635,"o":"m 204 325 l 204 322 q 240 114 204 175 q 361 53 275 53 q 510 199 503 53 l 625 193 q 554 40 615 96 q 357 -17 493 -17 q 132 70 200 -17 q 64 333 64 157 q 128 588 64 492 q 356 683 193 683 q 574 588 513 683 q 635 339 635 493 l 635 325 l 204 325 m 353 614 q 246 560 279 614 q 206 394 213 506 l 499 394 q 462 558 494 503 q 353 614 429 614 m 313 969 l 375 969 l 508 767 l 472 735 l 343 856 l 218 735 l 179 767 l 313 969 z "},"ë":{"ha":697,"x_min":64,"x_max":635,"o":"m 204 325 l 204 322 q 240 114 204 175 q 361 53 275 53 q 510 199 503 53 l 625 193 q 554 40 615 96 q 357 -17 493 -17 q 132 70 200 -17 q 64 333 64 157 q 128 588 64 492 q 356 683 193 683 q 574 588 513 683 q 635 339 635 493 l 635 325 l 204 325 m 353 614 q 246 560 279 614 q 206 394 213 506 l 499 394 q 462 558 494 503 q 353 614 429 614 m 218 763 q 163 786 186 763 q 140 840 140 810 q 163 898 140 874 q 218 922 186 922 q 276 898 251 922 q 300 840 300 874 q 276 785 300 808 q 218 763 251 763 m 471 763 q 416 787 440 763 q 392 840 392 811 q 415 898 392 874 q 471 922 439 922 q 527 898 504 922 q 550 840 550 874 q 528 785 550 808 q 471 763 506 763 z "},"ė":{"ha":697,"x_min":64,"x_max":635,"o":"m 204 325 l 204 322 q 240 114 204 175 q 361 53 275 53 q 510 199 503 53 l 625 193 q 554 40 615 96 q 357 -17 493 -17 q 132 70 200 -17 q 64 333 64 157 q 128 588 64 492 q 356 683 193 683 q 574 588 513 683 q 635 339 635 493 l 635 325 l 204 325 m 353 614 q 246 560 279 614 q 206 394 213 506 l 499 394 q 462 558 494 503 q 353 614 429 614 m 346 754 q 285 780 310 754 q 260 840 260 806 q 285 902 260 876 q 346 928 310 928 q 407 902 381 928 q 433 840 433 876 q 407 780 433 806 q 346 754 381 754 z "},"è":{"ha":697,"x_min":64,"x_max":635,"o":"m 204 325 l 204 322 q 240 114 204 175 q 361 53 275 53 q 510 199 503 53 l 625 193 q 554 40 615 96 q 357 -17 493 -17 q 132 70 200 -17 q 64 333 64 157 q 128 588 64 492 q 356 683 193 683 q 574 588 513 683 q 635 339 635 493 l 635 325 l 204 325 m 353 614 q 246 560 279 614 q 206 394 213 506 l 499 394 q 462 558 494 503 q 353 614 429 614 m 407 738 l 176 889 l 263 989 l 436 769 l 407 738 z "},"ē":{"ha":697,"x_min":64,"x_max":635,"o":"m 204 325 l 204 322 q 240 114 204 175 q 361 53 275 53 q 510 199 503 53 l 625 193 q 554 40 615 96 q 357 -17 493 -17 q 132 70 200 -17 q 64 333 64 157 q 128 588 64 492 q 356 683 193 683 q 574 588 513 683 q 635 339 635 493 l 635 325 l 204 325 m 353 614 q 246 560 279 614 q 206 394 213 506 l 499 394 q 462 558 494 503 q 353 614 429 614 m 517 890 l 517 792 l 175 792 l 175 890 l 517 890 z "},"ę":{"ha":697,"x_min":64,"x_max":635,"o":"m 204 325 l 204 322 q 240 114 204 175 q 361 53 275 53 q 510 199 503 53 l 625 193 q 570 56 617 110 q 424 -12 524 1 l 389 -35 q 340 -78 353 -60 q 326 -122 326 -97 q 341 -157 326 -144 q 378 -169 356 -169 q 431 -152 407 -169 q 471 -106 454 -135 l 521 -136 q 450 -215 494 -183 q 358 -247 406 -247 q 276 -221 306 -247 q 246 -149 246 -194 q 268 -78 246 -110 q 339 -17 290 -47 q 128 76 192 -11 q 64 333 64 163 q 128 588 64 492 q 356 683 193 683 q 574 588 513 683 q 635 339 635 493 l 635 325 l 204 325 m 353 614 q 246 560 279 614 q 206 394 213 506 l 499 394 q 462 558 494 503 q 353 614 429 614 z "},"f":{"ha":404,"x_min":21,"x_max":508,"o":"m 342 917 q 426 903 386 917 q 508 865 467 890 l 461 764 q 411 815 440 796 q 351 835 382 835 q 291 809 313 835 q 269 740 269 783 l 269 667 l 410 667 l 410 596 l 269 596 l 269 0 l 129 0 l 129 596 l 21 596 l 21 667 l 129 667 l 129 703 q 184 863 129 808 q 342 917 239 917 z "},"g":{"ha":710,"x_min":51,"x_max":657,"o":"m 657 608 l 560 608 q 615 439 615 543 q 559 264 615 336 q 367 192 503 192 q 213 222 274 192 l 175 186 q 142 121 142 158 q 158 83 142 100 q 203 65 174 65 l 463 65 q 603 19 551 65 q 654 -96 654 -26 q 567 -242 654 -201 q 339 -282 481 -282 q 127 -244 203 -282 q 51 -117 51 -207 q 76 -46 51 -81 q 139 8 100 -11 q 81 48 103 21 q 60 110 60 75 q 71 167 60 140 q 111 222 82 194 l 154 264 q 93 439 93 325 q 152 613 93 542 q 354 683 211 683 q 468 667 422 683 l 657 667 l 657 608 m 354 260 q 452 306 424 260 q 481 439 481 351 q 452 570 481 525 q 354 615 424 615 q 257 570 285 615 q 229 439 229 525 q 257 306 229 351 q 354 260 285 260 m 225 0 q 187 -49 201 -19 q 172 -112 172 -79 q 215 -190 172 -167 q 339 -212 257 -212 q 490 -187 444 -212 q 535 -96 535 -161 q 501 -25 535 -50 q 418 0 468 0 l 225 0 z "},"ğ":{"ha":710,"x_min":51,"x_max":657,"o":"m 657 608 l 560 608 q 615 439 615 543 q 559 264 615 336 q 367 192 503 192 q 213 222 274 192 l 175 186 q 142 121 142 158 q 158 83 142 100 q 203 65 174 65 l 463 65 q 603 19 551 65 q 654 -96 654 -26 q 567 -242 654 -201 q 339 -282 481 -282 q 127 -244 203 -282 q 51 -117 51 -207 q 76 -46 51 -81 q 139 8 100 -11 q 81 48 103 21 q 60 110 60 75 q 71 167 60 140 q 111 222 82 194 l 154 264 q 93 439 93 325 q 152 613 93 542 q 354 683 211 683 q 468 667 422 683 l 657 667 l 657 608 m 354 260 q 452 306 424 260 q 481 439 481 351 q 452 570 481 525 q 354 615 424 615 q 257 570 285 615 q 229 439 229 525 q 257 306 229 351 q 354 260 285 260 m 225 0 q 187 -49 201 -19 q 172 -112 172 -79 q 215 -190 172 -167 q 339 -212 257 -212 q 490 -187 444 -212 q 535 -96 535 -161 q 501 -25 535 -50 q 418 0 468 0 l 225 0 m 529 932 q 363 746 529 746 q 199 932 199 746 l 260 932 q 285 860 260 886 q 363 833 310 833 q 440 860 415 833 q 465 932 465 886 l 529 932 z "},"ĝ":{"ha":710,"x_min":51,"x_max":657,"o":"m 657 608 l 560 608 q 615 439 615 543 q 559 264 615 336 q 367 192 503 192 q 213 222 274 192 l 175 186 q 142 121 142 158 q 158 83 142 100 q 203 65 174 65 l 463 65 q 603 19 551 65 q 654 -96 654 -26 q 567 -242 654 -201 q 339 -282 481 -282 q 127 -244 203 -282 q 51 -117 51 -207 q 76 -46 51 -81 q 139 8 100 -11 q 81 48 103 21 q 60 110 60 75 q 71 167 60 140 q 111 222 82 194 l 154 264 q 93 439 93 325 q 152 613 93 542 q 354 683 211 683 q 468 667 422 683 l 657 667 l 657 608 m 354 260 q 452 306 424 260 q 481 439 481 351 q 452 570 481 525 q 354 615 424 615 q 257 570 285 615 q 229 439 229 525 q 257 306 229 351 q 354 260 285 260 m 225 0 q 187 -49 201 -19 q 172 -112 172 -79 q 215 -190 172 -167 q 339 -212 257 -212 q 490 -187 444 -212 q 535 -96 535 -161 q 501 -25 535 -50 q 418 0 468 0 l 225 0 m 329 969 l 392 969 l 525 767 l 489 735 l 360 856 l 235 735 l 196 767 l 329 969 z "},"ģ":{"ha":710,"x_min":51,"x_max":657,"o":"m 365 725 q 312 750 333 725 q 290 813 290 775 q 331 938 290 882 q 428 1028 372 993 l 453 996 q 424 954 432 975 q 415 903 415 933 q 428 854 415 885 q 440 800 440 817 q 418 747 440 769 q 365 725 396 725 m 657 608 l 560 608 q 615 439 615 543 q 559 264 615 336 q 367 192 503 192 q 213 222 274 192 l 175 186 q 142 121 142 158 q 158 83 142 100 q 203 65 174 65 l 463 65 q 603 19 551 65 q 654 -96 654 -26 q 567 -242 654 -201 q 339 -282 481 -282 q 127 -244 203 -282 q 51 -117 51 -207 q 76 -46 51 -81 q 139 8 100 -11 q 81 48 103 21 q 60 110 60 75 q 71 167 60 140 q 111 222 82 194 l 154 264 q 93 439 93 325 q 152 613 93 542 q 354 683 211 683 q 468 667 422 683 l 657 667 l 657 608 m 354 260 q 452 306 424 260 q 481 439 481 351 q 452 570 481 525 q 354 615 424 615 q 257 570 285 615 q 229 439 229 525 q 257 306 229 351 q 354 260 285 260 m 225 0 q 187 -49 201 -19 q 172 -112 172 -79 q 215 -190 172 -167 q 339 -212 257 -212 q 490 -187 444 -212 q 535 -96 535 -161 q 501 -25 535 -50 q 418 0 468 0 l 225 0 z "},"ġ":{"ha":710,"x_min":51,"x_max":657,"o":"m 657 608 l 560 608 q 615 439 615 543 q 559 264 615 336 q 367 192 503 192 q 213 222 274 192 l 175 186 q 142 121 142 158 q 158 83 142 100 q 203 65 174 65 l 463 65 q 603 19 551 65 q 654 -96 654 -26 q 567 -242 654 -201 q 339 -282 481 -282 q 127 -244 203 -282 q 51 -117 51 -207 q 76 -46 51 -81 q 139 8 100 -11 q 81 48 103 21 q 60 110 60 75 q 71 167 60 140 q 111 222 82 194 l 154 264 q 93 439 93 325 q 152 613 93 542 q 354 683 211 683 q 468 667 422 683 l 657 667 l 657 608 m 354 260 q 452 306 424 260 q 481 439 481 351 q 452 570 481 525 q 354 615 424 615 q 257 570 285 615 q 229 439 229 525 q 257 306 229 351 q 354 260 285 260 m 225 0 q 187 -49 201 -19 q 172 -112 172 -79 q 215 -190 172 -167 q 339 -212 257 -212 q 490 -187 444 -212 q 535 -96 535 -161 q 501 -25 535 -50 q 418 0 468 0 l 225 0 m 363 754 q 301 780 326 754 q 276 840 276 806 q 301 902 276 876 q 363 928 326 928 q 424 902 397 928 q 450 840 450 876 q 424 780 450 806 q 363 754 397 754 z "},"h":{"ha":771,"x_min":114,"x_max":671,"o":"m 457 683 q 619 628 567 683 q 671 471 671 572 l 671 0 l 531 0 l 531 460 q 504 569 531 533 q 421 606 478 606 q 254 542 335 606 l 254 0 l 114 0 l 114 881 l 254 899 l 254 614 q 351 665 299 646 q 457 683 404 683 z "},"ħ":{"ha":771,"x_min":42,"x_max":671,"o":"m 457 683 q 619 628 567 683 q 671 471 671 572 l 671 0 l 531 0 l 531 460 q 504 569 531 533 q 421 606 478 606 q 254 542 335 606 l 254 0 l 114 0 l 114 736 l 42 736 l 42 825 l 114 825 l 114 881 l 254 899 l 254 825 l 397 825 l 397 736 l 254 736 l 254 614 q 351 665 299 646 q 457 683 404 683 z "},"ĥ":{"ha":771,"x_min":19,"x_max":671,"o":"m 457 683 q 619 628 567 683 q 671 471 671 572 l 671 0 l 531 0 l 531 460 q 504 569 531 533 q 421 606 478 606 q 254 542 335 606 l 254 0 l 114 0 l 114 881 l 254 899 l 254 614 q 351 665 299 646 q 457 683 404 683 m 153 1156 l 215 1156 l 349 953 l 313 919 l 183 1040 l 58 919 l 19 953 l 153 1156 z "},"i":{"ha":365,"x_min":97,"x_max":271,"o":"m 183 754 q 122 780 147 754 q 97 840 97 806 q 122 902 97 876 q 183 928 147 928 q 245 902 219 928 q 271 840 271 876 q 244 780 271 806 q 183 754 218 754 m 250 0 l 113 0 l 113 667 l 250 667 l 250 0 z "},"ı":{"ha":368,"x_min":114,"x_max":254,"o":"m 254 0 l 114 0 l 114 667 l 254 667 l 254 0 z "},"í":{"ha":368,"x_min":97,"x_max":354,"o":"m 254 0 l 114 0 l 114 667 l 254 667 l 254 0 m 268 989 l 354 889 l 126 738 l 97 769 l 268 989 z "},"ĭ":{"ha":368,"x_min":19,"x_max":350,"o":"m 254 0 l 114 0 l 114 667 l 254 667 l 254 0 m 350 932 q 183 746 350 746 q 19 932 19 746 l 81 932 q 106 860 81 886 q 183 833 131 833 q 261 860 236 833 q 286 932 286 886 l 350 932 z "},"î":{"ha":368,"x_min":18,"x_max":347,"o":"m 254 0 l 114 0 l 114 667 l 254 667 l 254 0 m 151 969 l 214 969 l 347 767 l 311 735 l 182 856 l 57 735 l 18 767 l 151 969 z "},"ï":{"ha":368,"x_min":-21,"x_max":389,"o":"m 254 0 l 114 0 l 114 667 l 254 667 l 254 0 m 57 763 q 2 786 25 763 q -21 840 -21 810 q 2 898 -21 874 q 57 922 25 922 q 115 898 90 922 q 139 840 139 874 q 115 785 139 808 q 57 763 90 763 m 310 763 q 255 787 279 763 q 231 840 231 811 q 254 898 231 874 q 310 922 278 922 q 366 898 343 922 q 389 840 389 874 q 367 785 389 808 q 310 763 344 763 z "},"ì":{"ha":368,"x_min":15,"x_max":275,"o":"m 254 0 l 114 0 l 114 667 l 254 667 l 254 0 m 246 738 l 15 889 l 101 989 l 275 769 l 246 738 z "},"ĳ":{"ha":733,"x_min":97,"x_max":636,"o":"m 183 754 q 122 780 147 754 q 97 840 97 806 q 122 902 97 876 q 183 928 147 928 q 245 902 219 928 q 271 840 271 876 q 244 780 271 806 q 183 754 218 754 m 250 0 l 113 0 l 113 667 l 250 667 l 250 0 m 549 754 q 488 780 513 754 q 463 840 463 806 q 488 902 463 876 q 549 928 513 928 q 610 902 585 928 q 636 840 636 876 q 610 780 636 806 q 549 754 583 754 m 285 -132 q 397 -201 332 -201 q 457 -173 435 -201 q 479 -97 479 -144 l 479 667 l 619 667 l 619 -69 q 564 -228 619 -175 q 406 -282 508 -282 q 239 -232 324 -282 l 285 -132 z "},"ī":{"ha":368,"x_min":14,"x_max":356,"o":"m 254 0 l 114 0 l 114 667 l 254 667 l 254 0 m 356 890 l 356 792 l 14 792 l 14 890 l 356 890 z "},"į":{"ha":368,"x_min":53,"x_max":328,"o":"m 185 754 q 124 780 149 754 q 99 840 99 806 q 124 902 99 876 q 185 928 149 928 q 246 902 219 928 q 272 840 272 876 q 246 780 272 806 q 185 754 219 754 m 328 -136 q 257 -215 301 -183 q 165 -247 213 -247 q 83 -221 113 -247 q 53 -149 53 -194 q 78 -76 53 -108 q 156 -10 103 -43 l 171 0 l 114 0 l 114 667 l 254 667 l 254 0 l 250 0 l 196 -35 q 147 -78 160 -60 q 133 -122 133 -97 q 148 -157 133 -144 q 185 -169 163 -169 q 238 -152 214 -169 q 278 -106 261 -135 l 328 -136 z "},"ĩ":{"ha":368,"x_min":-11,"x_max":378,"o":"m 254 0 l 114 0 l 114 667 l 254 667 l 254 0 m 268 781 q 209 790 238 781 q 174 803 181 800 q 136 816 156 810 q 101 822 117 822 q 60 810 76 822 q 32 771 43 797 l -11 786 q 30 890 0 857 q 99 924 60 924 q 193 899 138 924 q 230 885 211 892 q 264 879 249 879 q 308 890 290 879 q 335 926 325 901 l 378 910 q 336 811 365 842 q 268 781 307 781 z "},"j":{"ha":368,"x_min":-126,"x_max":271,"o":"m 183 754 q 122 780 147 754 q 97 840 97 806 q 122 902 97 876 q 183 928 147 928 q 245 902 219 928 q 271 840 271 876 q 244 780 271 806 q 183 754 218 754 m -81 -132 q 32 -201 -33 -201 q 92 -173 69 -201 q 114 -97 114 -144 l 114 667 l 254 667 l 254 -69 q 199 -228 254 -175 q 40 -282 143 -282 q -126 -232 -42 -282 l -81 -132 z "},"ȷ":{"ha":368,"x_min":-126,"x_max":254,"o":"m -81 -132 q 32 -201 -33 -201 q 92 -173 69 -201 q 114 -97 114 -144 l 114 667 l 254 667 l 254 -69 q 199 -228 254 -175 q 40 -282 143 -282 q -126 -232 -42 -282 l -81 -132 z "},"ĵ":{"ha":368,"x_min":-126,"x_max":347,"o":"m -81 -132 q 32 -201 -33 -201 q 92 -173 69 -201 q 114 -97 114 -144 l 114 667 l 254 667 l 254 -69 q 199 -228 254 -175 q 40 -282 143 -282 q -126 -232 -42 -282 l -81 -132 m 151 969 l 214 969 l 347 767 l 311 735 l 182 856 l 57 735 l 18 767 l 151 969 z "},"k":{"ha":672,"x_min":114,"x_max":660,"o":"m 508 0 l 303 310 l 254 257 l 254 0 l 114 0 l 114 881 l 254 899 l 254 342 l 558 667 l 639 667 l 389 401 l 660 0 l 508 0 z "},"ķ":{"ha":672,"x_min":114,"x_max":660,"o":"m 508 0 l 303 310 l 254 257 l 254 0 l 114 0 l 114 881 l 254 899 l 254 342 l 558 667 l 639 667 l 389 401 l 660 0 l 508 0 m 358 -58 q 412 -83 390 -58 q 433 -146 433 -108 q 392 -271 433 -215 q 296 -361 351 -326 l 271 -329 q 300 -287 292 -308 q 308 -236 308 -267 q 296 -187 308 -218 q 283 -133 283 -150 q 306 -81 283 -103 q 358 -58 328 -58 z "},"ĸ":{"ha":660,"x_min":114,"x_max":667,"o":"m 300 314 l 254 314 l 254 0 l 114 0 l 114 667 l 254 667 l 254 408 l 315 408 l 496 667 l 649 667 l 422 349 l 667 0 l 514 0 l 300 314 z "},"l":{"ha":368,"x_min":114,"x_max":254,"o":"m 254 0 l 114 0 l 114 881 l 254 899 l 254 0 z "},"ĺ":{"ha":368,"x_min":97,"x_max":354,"o":"m 254 0 l 114 0 l 114 881 l 254 899 l 254 0 m 268 1176 l 354 1074 l 126 924 l 97 954 l 268 1176 z "},"ľ":{"ha":424,"x_min":114,"x_max":479,"o":"m 254 0 l 114 0 l 114 881 l 254 899 l 254 0 m 404 1044 q 458 1020 436 1044 q 479 957 479 996 q 438 832 479 888 q 342 742 397 776 l 317 774 q 346 815 338 794 q 354 867 354 836 q 342 915 354 885 q 329 969 329 953 q 351 1022 329 1000 q 404 1044 374 1044 z "},"ļ":{"ha":368,"x_min":94,"x_max":257,"o":"m 254 0 l 114 0 l 114 881 l 254 899 l 254 0 m 182 -58 q 235 -83 214 -58 q 257 -146 257 -108 q 216 -271 257 -215 q 119 -361 175 -326 l 94 -329 q 124 -287 115 -308 q 132 -236 132 -267 q 119 -187 132 -218 q 107 -133 107 -150 q 129 -81 107 -103 q 182 -58 151 -58 z "},"ŀ":{"ha":397,"x_min":114,"x_max":457,"o":"m 254 0 l 114 0 l 114 881 l 254 899 l 254 0 m 375 394 q 319 419 343 394 q 296 476 296 444 q 319 533 296 510 q 375 557 343 557 q 433 533 410 557 q 457 476 457 510 q 433 419 457 443 q 375 394 410 394 z "},"ł":{"ha":368,"x_min":22,"x_max":343,"o":"m 343 461 l 254 425 l 254 0 l 114 0 l 114 368 l 22 332 l 22 425 l 114 463 l 114 881 l 254 899 l 254 519 l 343 556 l 343 461 z "},"m":{"ha":1161,"x_min":114,"x_max":1057,"o":"m 846 683 q 1005 628 953 683 q 1057 471 1057 572 l 1057 0 l 918 0 l 918 475 q 889 572 918 539 q 804 606 860 606 q 650 544 721 606 q 660 471 660 506 l 660 0 l 518 0 l 518 475 q 401 606 518 606 q 254 547 322 606 l 254 0 l 114 0 l 114 667 l 175 667 l 229 599 q 329 660 274 636 q 444 683 385 683 q 629 597 578 683 q 728 659 672 635 q 846 683 785 683 z "},"n":{"ha":771,"x_min":114,"x_max":671,"o":"m 457 683 q 671 471 671 683 l 671 0 l 531 0 l 531 460 q 504 570 531 535 q 421 606 478 606 q 254 542 336 606 l 254 0 l 114 0 l 114 667 l 175 667 l 231 597 q 341 660 281 636 q 457 683 401 683 z "},"ń":{"ha":771,"x_min":114,"x_max":671,"o":"m 457 683 q 671 471 671 683 l 671 0 l 531 0 l 531 460 q 504 570 531 535 q 421 606 478 606 q 254 542 336 606 l 254 0 l 114 0 l 114 667 l 175 667 l 231 597 q 341 660 281 636 q 457 683 401 683 m 467 989 l 553 889 l 325 738 l 296 769 l 467 989 z "},"ŉ":{"ha":771,"x_min":114,"x_max":671,"o":"m 457 683 q 671 471 671 683 l 671 0 l 531 0 l 531 460 q 504 570 531 535 q 421 606 478 606 q 254 542 336 606 l 254 0 l 114 0 l 114 667 l 175 667 l 231 597 q 341 660 281 636 q 457 683 401 683 m 381 -58 q 434 -83 413 -58 q 456 -146 456 -108 q 415 -271 456 -215 q 318 -361 374 -326 l 293 -329 q 322 -287 314 -308 q 331 -236 331 -267 q 318 -187 331 -218 q 306 -133 306 -150 q 328 -81 306 -103 q 381 -58 350 -58 z "},"ň":{"ha":771,"x_min":114,"x_max":671,"o":"m 457 683 q 671 471 671 683 l 671 0 l 531 0 l 531 460 q 504 570 531 535 q 421 606 478 606 q 254 542 336 606 l 254 0 l 114 0 l 114 667 l 175 667 l 231 597 q 341 660 281 636 q 457 683 401 683 m 258 969 l 383 849 l 513 969 l 549 936 l 415 735 l 353 735 l 219 936 l 258 969 z "},"ņ":{"ha":771,"x_min":114,"x_max":671,"o":"m 457 683 q 671 471 671 683 l 671 0 l 531 0 l 531 460 q 504 570 531 535 q 421 606 478 606 q 254 542 336 606 l 254 0 l 114 0 l 114 667 l 175 667 l 231 597 q 341 660 281 636 q 457 683 401 683 m 381 -58 q 434 -83 413 -58 q 456 -146 456 -108 q 415 -271 456 -215 q 318 -361 374 -326 l 293 -329 q 322 -287 314 -308 q 331 -236 331 -267 q 318 -187 331 -218 q 306 -133 306 -150 q 328 -81 306 -103 q 381 -58 350 -58 z "},"ŋ":{"ha":771,"x_min":114,"x_max":671,"o":"m 671 0 l 667 0 l 667 -69 q 613 -228 667 -175 q 456 -282 558 -282 q 288 -232 374 -282 l 335 -132 q 383 -183 356 -164 q 443 -201 411 -201 q 506 -175 482 -201 q 529 -106 529 -149 l 529 1 l 531 1 l 531 460 q 504 570 531 535 q 421 606 478 606 q 254 542 336 606 l 254 0 l 114 0 l 114 667 l 175 667 l 231 597 q 341 660 281 636 q 457 683 401 683 q 671 471 671 683 l 671 0 z "},"ñ":{"ha":771,"x_min":114,"x_max":671,"o":"m 457 683 q 671 471 671 683 l 671 0 l 531 0 l 531 460 q 504 570 531 535 q 421 606 478 606 q 254 542 336 606 l 254 0 l 114 0 l 114 667 l 175 667 l 231 597 q 341 660 281 636 q 457 683 401 683 m 468 781 q 409 790 438 781 q 374 803 381 800 q 336 816 356 810 q 301 822 317 822 q 260 810 276 822 q 232 771 243 797 l 189 786 q 230 890 200 857 q 299 924 260 924 q 393 899 338 924 q 430 885 411 892 q 464 879 449 879 q 508 890 490 879 q 535 926 525 901 l 578 910 q 536 811 565 842 q 468 781 507 781 z "},"o":{"ha":726,"x_min":64,"x_max":664,"o":"m 364 -17 q 130 80 196 -17 q 64 333 64 176 q 130 588 64 492 q 364 683 196 683 q 597 587 531 683 q 664 333 664 490 q 364 -17 664 -17 m 364 53 q 490 126 456 53 q 524 333 524 200 q 490 541 524 468 q 364 614 457 614 q 238 542 271 614 q 204 333 204 469 q 238 126 204 199 q 364 53 271 53 z "},"ó":{"ha":726,"x_min":64,"x_max":664,"o":"m 364 -17 q 130 80 196 -17 q 64 333 64 176 q 130 588 64 492 q 364 683 196 683 q 597 587 531 683 q 664 333 664 490 q 364 -17 664 -17 m 364 53 q 490 126 456 53 q 524 333 524 200 q 490 541 524 468 q 364 614 457 614 q 238 542 271 614 q 204 333 204 469 q 238 126 204 199 q 364 53 271 53 m 446 989 l 532 889 l 304 738 l 275 769 l 446 989 z "},"ŏ":{"ha":726,"x_min":64,"x_max":664,"o":"m 364 -17 q 130 80 196 -17 q 64 333 64 176 q 130 588 64 492 q 364 683 196 683 q 597 587 531 683 q 664 333 664 490 q 364 -17 664 -17 m 364 53 q 490 126 456 53 q 524 333 524 200 q 490 541 524 468 q 364 614 457 614 q 238 542 271 614 q 204 333 204 469 q 238 126 204 199 q 364 53 271 53 m 528 932 q 361 746 528 746 q 197 932 197 746 l 258 932 q 283 860 258 886 q 361 833 308 833 q 439 860 414 833 q 464 932 464 886 l 528 932 z "},"ô":{"ha":726,"x_min":64,"x_max":664,"o":"m 364 -17 q 130 80 196 -17 q 64 333 64 176 q 130 588 64 492 q 364 683 196 683 q 597 587 531 683 q 664 333 664 490 q 364 -17 664 -17 m 364 53 q 490 126 456 53 q 524 333 524 200 q 490 541 524 468 q 364 614 457 614 q 238 542 271 614 q 204 333 204 469 q 238 126 204 199 q 364 53 271 53 m 329 969 l 392 969 l 525 767 l 489 735 l 360 856 l 235 735 l 196 767 l 329 969 z "},"ö":{"ha":726,"x_min":64,"x_max":664,"o":"m 364 -17 q 130 80 196 -17 q 64 333 64 176 q 130 588 64 492 q 364 683 196 683 q 597 587 531 683 q 664 333 664 490 q 364 -17 664 -17 m 364 53 q 490 126 456 53 q 524 333 524 200 q 490 541 524 468 q 364 614 457 614 q 238 542 271 614 q 204 333 204 469 q 238 126 204 199 q 364 53 271 53 m 235 763 q 180 786 203 763 q 157 840 157 810 q 180 898 157 874 q 235 922 203 922 q 292 898 268 922 q 317 840 317 874 q 292 785 317 808 q 235 763 268 763 m 488 763 q 433 787 457 763 q 408 840 408 811 q 432 898 408 874 q 488 922 456 922 q 544 898 521 922 q 567 840 567 874 q 544 785 567 808 q 488 763 522 763 z "},"ò":{"ha":726,"x_min":64,"x_max":664,"o":"m 364 -17 q 130 80 196 -17 q 64 333 64 176 q 130 588 64 492 q 364 683 196 683 q 597 587 531 683 q 664 333 664 490 q 364 -17 664 -17 m 364 53 q 490 126 456 53 q 524 333 524 200 q 490 541 524 468 q 364 614 457 614 q 238 542 271 614 q 204 333 204 469 q 238 126 204 199 q 364 53 271 53 m 424 738 l 193 889 l 279 989 l 453 769 l 424 738 z "},"ő":{"ha":726,"x_min":64,"x_max":664,"o":"m 364 -17 q 130 80 196 -17 q 64 333 64 176 q 130 588 64 492 q 364 683 196 683 q 597 587 531 683 q 664 333 664 490 q 364 -17 664 -17 m 364 53 q 490 126 456 53 q 524 333 524 200 q 490 541 524 468 q 364 614 457 614 q 238 542 271 614 q 204 333 204 469 q 238 126 204 199 q 364 53 271 53 m 304 989 l 390 889 l 161 738 l 132 769 l 304 989 m 565 989 l 649 889 l 422 738 l 393 769 l 565 989 z "},"ō":{"ha":726,"x_min":64,"x_max":664,"o":"m 364 -17 q 130 80 196 -17 q 64 333 64 176 q 130 588 64 492 q 364 683 196 683 q 597 587 531 683 q 664 333 664 490 q 364 -17 664 -17 m 364 53 q 490 126 456 53 q 524 333 524 200 q 490 541 524 468 q 364 614 457 614 q 238 542 271 614 q 204 333 204 469 q 238 126 204 199 q 364 53 271 53 m 533 890 l 533 792 l 192 792 l 192 890 l 533 890 z "},"ø":{"ha":726,"x_min":64,"x_max":664,"o":"m 481 667 q 664 333 664 608 q 364 -17 664 -17 q 299 -12 331 -17 l 278 -92 l 219 -92 l 244 1 q 104 122 144 35 q 64 333 64 208 q 130 588 64 492 q 364 683 196 683 q 424 679 394 683 l 444 760 l 506 760 l 481 667 m 204 333 q 217 181 204 243 q 267 86 231 119 l 404 610 q 364 614 388 614 q 238 542 271 614 q 204 333 204 469 m 364 53 q 490 126 456 53 q 524 333 524 200 q 510 488 524 425 q 458 582 496 550 l 318 58 q 364 53 336 53 z "},"ǿ":{"ha":697,"x_min":64,"x_max":664,"o":"m 481 989 l 567 889 l 339 738 l 310 769 l 481 989 m 481 667 q 664 333 664 608 q 364 -17 664 -17 q 299 -12 331 -17 l 278 -92 l 219 -92 l 244 1 q 104 122 144 35 q 64 333 64 208 q 130 588 64 492 q 364 683 196 683 q 424 679 394 683 l 444 760 l 506 760 l 481 667 m 204 333 q 217 181 204 243 q 267 86 231 119 l 404 610 q 364 614 388 614 q 238 542 271 614 q 204 333 204 469 m 364 53 q 490 126 456 53 q 524 333 524 200 q 510 488 524 425 q 458 582 496 550 l 318 58 q 364 53 336 53 z "},"õ":{"ha":726,"x_min":64,"x_max":664,"o":"m 364 -17 q 130 80 196 -17 q 64 333 64 176 q 130 588 64 492 q 364 683 196 683 q 597 587 531 683 q 664 333 664 490 q 364 -17 664 -17 m 364 53 q 490 126 456 53 q 524 333 524 200 q 490 541 524 468 q 364 614 457 614 q 238 542 271 614 q 204 333 204 469 q 238 126 204 199 q 364 53 271 53 m 446 781 q 387 790 415 781 q 351 803 358 800 q 314 816 333 810 q 279 822 294 822 q 238 810 254 822 q 210 771 221 797 l 167 786 q 208 890 178 857 q 276 924 238 924 q 371 899 315 924 q 408 885 389 892 q 442 879 426 879 q 485 890 468 879 q 513 926 503 901 l 556 910 q 514 811 543 842 q 446 781 485 781 z "},"œ":{"ha":1158,"x_min":64,"x_max":1096,"o":"m 665 325 l 665 322 q 701 114 665 175 q 822 53 736 53 q 971 199 964 53 l 1086 193 q 1015 40 1076 96 q 818 -17 954 -17 q 592 74 661 -17 q 364 -17 517 -17 q 130 80 196 -17 q 64 333 64 176 q 130 588 64 492 q 364 683 196 683 q 593 592 518 683 q 817 683 667 683 q 1035 588 974 683 q 1096 339 1096 493 l 1096 325 l 665 325 m 364 53 q 490 126 456 53 q 524 333 524 200 q 490 541 524 468 q 364 614 457 614 q 238 542 271 614 q 204 333 204 469 q 238 126 204 199 q 364 53 271 53 m 814 614 q 707 560 740 614 q 667 394 674 506 l 960 394 q 923 558 956 503 q 814 614 890 614 z "},"p":{"ha":750,"x_min":114,"x_max":685,"o":"m 421 683 q 626 588 568 683 q 685 333 685 492 q 625 80 685 176 q 414 -17 565 -17 q 254 14 335 -17 l 254 -264 l 114 -282 l 114 667 l 176 667 l 228 610 q 320 663 269 643 q 421 683 371 683 m 381 53 q 508 126 469 53 q 546 333 546 200 q 508 530 546 454 q 385 606 469 606 q 254 560 319 606 l 254 76 q 381 53 310 53 z "},"þ":{"ha":750,"x_min":114,"x_max":685,"o":"m 421 683 q 626 588 568 683 q 685 333 685 492 q 625 80 685 176 q 414 -17 565 -17 q 254 14 335 -17 l 254 -264 l 114 -282 l 114 881 l 254 899 l 254 628 q 421 683 339 683 m 381 53 q 508 126 469 53 q 546 333 546 200 q 508 530 546 454 q 385 606 469 606 q 254 560 319 606 l 254 76 q 381 53 310 53 z "},"q":{"ha":746,"x_min":64,"x_max":635,"o":"m 635 667 l 635 -244 l 494 -264 l 494 25 q 332 -17 414 -17 q 123 80 182 -17 q 64 333 64 176 q 123 588 64 492 q 332 683 182 683 q 526 610 440 683 l 572 667 l 635 667 m 371 53 q 494 85 436 53 l 494 561 q 365 607 438 607 q 243 534 282 607 q 204 333 204 461 q 371 53 204 53 z "},"r":{"ha":472,"x_min":114,"x_max":469,"o":"m 242 540 q 331 636 274 600 q 469 672 389 672 l 469 569 q 256 403 256 569 l 254 403 l 254 0 l 114 0 l 114 667 l 175 667 l 242 540 z "},"ŕ":{"ha":472,"x_min":114,"x_max":469,"o":"m 242 540 q 331 636 274 600 q 469 672 389 672 l 469 569 q 256 403 256 569 l 254 403 l 254 0 l 114 0 l 114 667 l 175 667 l 242 540 m 360 989 l 446 889 l 218 738 l 189 769 l 360 989 z "},"ř":{"ha":472,"x_min":113,"x_max":469,"o":"m 242 540 q 331 636 274 600 q 469 672 389 672 l 469 569 q 256 403 256 569 l 254 403 l 254 0 l 114 0 l 114 667 l 175 667 l 242 540 m 151 969 l 276 849 l 406 969 l 442 936 l 308 735 l 246 735 l 113 936 l 151 969 z "},"ŗ":{"ha":472,"x_min":94,"x_max":469,"o":"m 242 540 q 331 636 274 600 q 469 672 389 672 l 469 569 q 256 403 256 569 l 254 403 l 254 0 l 114 0 l 114 667 l 175 667 l 242 540 m 182 -58 q 235 -83 214 -58 q 257 -146 257 -108 q 216 -271 257 -215 q 119 -361 175 -326 l 94 -329 q 124 -287 115 -308 q 132 -236 132 -267 q 119 -187 132 -218 q 107 -133 107 -150 q 129 -81 107 -103 q 182 -58 151 -58 z "},"s":{"ha":633,"x_min":54,"x_max":579,"o":"m 383 383 q 533 313 486 356 q 579 188 579 269 q 513 38 579 93 q 326 -17 447 -17 q 132 37 196 -17 q 54 192 68 90 l 169 206 q 215 93 176 133 q 326 53 254 53 q 422 85 385 53 q 460 158 460 117 q 426 225 460 200 q 317 269 393 250 l 250 289 q 114 358 161 313 q 67 488 67 404 q 133 631 67 578 q 318 683 200 683 q 501 631 442 683 q 574 479 561 579 l 458 469 q 416 576 451 538 q 318 614 381 614 q 219 588 253 614 q 186 518 186 561 q 219 446 186 471 q 322 401 251 421 l 383 383 z "},"ś":{"ha":633,"x_min":54,"x_max":579,"o":"m 383 383 q 533 313 486 356 q 579 188 579 269 q 513 38 579 93 q 326 -17 447 -17 q 132 37 196 -17 q 54 192 68 90 l 169 206 q 215 93 176 133 q 326 53 254 53 q 422 85 385 53 q 460 158 460 117 q 426 225 460 200 q 317 269 393 250 l 250 289 q 114 358 161 313 q 67 488 67 404 q 133 631 67 578 q 318 683 200 683 q 501 631 442 683 q 574 479 561 579 l 458 469 q 416 576 451 538 q 318 614 381 614 q 219 588 253 614 q 186 518 186 561 q 219 446 186 471 q 322 401 251 421 l 383 383 m 400 989 l 486 889 l 258 738 l 229 769 l 400 989 z "},"š":{"ha":633,"x_min":54,"x_max":579,"o":"m 383 383 q 533 313 486 356 q 579 188 579 269 q 513 38 579 93 q 326 -17 447 -17 q 132 37 196 -17 q 54 192 68 90 l 169 206 q 215 93 176 133 q 326 53 254 53 q 422 85 385 53 q 460 158 460 117 q 426 225 460 200 q 317 269 393 250 l 250 289 q 114 358 161 313 q 67 488 67 404 q 133 631 67 578 q 318 683 200 683 q 501 631 442 683 q 574 479 561 579 l 458 469 q 416 576 451 538 q 318 614 381 614 q 219 588 253 614 q 186 518 186 561 q 219 446 186 471 q 322 401 251 421 l 383 383 m 192 969 l 317 849 l 446 969 l 482 936 l 349 735 l 286 735 l 153 936 l 192 969 z "},"ş":{"ha":633,"x_min":54,"x_max":579,"o":"m 579 188 q 522 45 579 99 q 357 -15 464 -8 l 340 -64 q 437 -101 401 -71 q 472 -179 472 -132 q 441 -260 472 -228 q 340 -293 410 -293 q 241 -262 274 -293 q 208 -179 208 -232 l 290 -168 q 303 -226 290 -206 q 339 -247 315 -247 q 378 -186 378 -247 q 354 -133 378 -153 q 268 -103 331 -114 l 293 -15 q 124 44 179 -10 q 54 192 68 97 l 169 206 q 215 93 176 133 q 326 53 254 53 q 422 85 385 53 q 460 158 460 117 q 426 225 460 200 q 317 269 393 250 l 250 289 q 114 358 161 313 q 67 488 67 404 q 133 631 67 578 q 318 683 200 683 q 501 631 442 683 q 574 479 561 579 l 458 469 q 416 576 451 538 q 318 614 381 614 q 219 588 253 614 q 186 518 186 561 q 219 446 186 471 q 322 401 251 421 l 383 383 q 533 313 486 356 q 579 188 579 269 z "},"ŝ":{"ha":633,"x_min":54,"x_max":579,"o":"m 383 383 q 533 313 486 356 q 579 188 579 269 q 513 38 579 93 q 326 -17 447 -17 q 132 37 196 -17 q 54 192 68 90 l 169 206 q 215 93 176 133 q 326 53 254 53 q 422 85 385 53 q 460 158 460 117 q 426 225 460 200 q 317 269 393 250 l 250 289 q 114 358 161 313 q 67 488 67 404 q 133 631 67 578 q 318 683 200 683 q 501 631 442 683 q 574 479 561 579 l 458 469 q 416 576 451 538 q 318 614 381 614 q 219 588 253 614 q 186 518 186 561 q 219 446 186 471 q 322 401 251 421 l 383 383 m 283 969 l 346 969 l 479 767 l 443 735 l 314 856 l 189 735 l 150 767 l 283 969 z "},"ș":{"ha":633,"x_min":54,"x_max":579,"o":"m 383 383 q 533 313 486 356 q 579 188 579 269 q 513 38 579 93 q 326 -17 447 -17 q 132 37 196 -17 q 54 192 68 90 l 169 206 q 215 93 176 133 q 326 53 254 53 q 422 85 385 53 q 460 158 460 117 q 426 225 460 200 q 317 269 393 250 l 250 289 q 114 358 161 313 q 67 488 67 404 q 133 631 67 578 q 318 683 200 683 q 501 631 442 683 q 574 479 561 579 l 458 469 q 416 576 451 538 q 318 614 381 614 q 219 588 253 614 q 186 518 186 561 q 219 446 186 471 q 322 401 251 421 l 383 383 m 325 -58 q 378 -83 357 -58 q 400 -146 400 -108 q 359 -271 400 -215 q 263 -361 318 -326 l 238 -329 q 267 -287 258 -308 q 275 -236 275 -267 q 263 -187 275 -218 q 250 -133 250 -150 q 272 -81 250 -103 q 325 -58 294 -58 z "},"ß":{"ha":765,"x_min":124,"x_max":743,"o":"m 526 456 q 685 384 628 446 q 743 217 743 322 q 685 50 743 117 q 519 -17 628 -17 q 365 45 418 -17 q 311 228 311 107 l 425 228 q 447 85 428 129 q 513 42 465 42 q 583 91 564 42 q 603 225 603 140 q 566 372 603 325 q 453 419 529 419 l 349 419 l 349 472 l 408 472 q 497 517 465 472 q 528 624 528 561 q 496 767 528 719 q 394 815 464 815 q 264 624 264 815 l 264 0 l 124 0 l 124 624 q 194 810 124 747 q 394 872 264 872 q 598 810 528 872 q 668 640 668 747 q 629 529 668 579 q 526 456 590 479 z "},"t":{"ha":421,"x_min":22,"x_max":426,"o":"m 426 24 q 285 -17 353 -17 q 181 9 215 -17 q 139 71 147 35 q 131 160 131 107 l 131 596 l 22 596 l 22 667 l 131 667 l 131 775 l 272 828 l 272 667 l 414 667 l 414 596 l 272 596 l 272 143 q 284 80 272 97 q 324 63 296 63 q 408 88 363 63 l 426 24 z "},"ŧ":{"ha":421,"x_min":19,"x_max":426,"o":"m 426 24 q 285 -17 353 -17 q 181 9 215 -17 q 139 71 147 35 q 131 160 131 107 l 131 322 l 19 322 l 19 411 l 131 411 l 131 596 l 22 596 l 22 667 l 131 667 l 131 775 l 272 828 l 272 667 l 414 667 l 414 596 l 272 596 l 272 411 l 371 411 l 371 322 l 272 322 l 272 143 q 284 80 272 97 q 324 63 296 63 q 408 88 363 63 l 426 24 z "},"ť":{"ha":431,"x_min":22,"x_max":492,"o":"m 426 24 q 285 -17 353 -17 q 181 9 215 -17 q 139 71 147 35 q 131 160 131 107 l 131 596 l 22 596 l 22 667 l 131 667 l 131 775 l 272 828 l 272 667 l 414 667 l 414 596 l 272 596 l 272 143 q 284 80 272 97 q 324 63 296 63 q 408 88 363 63 l 426 24 m 417 1044 q 470 1020 449 1044 q 492 957 492 996 q 451 832 492 888 q 354 742 410 776 l 329 774 q 358 815 350 794 q 367 867 367 836 q 354 915 367 885 q 342 969 342 953 q 364 1022 342 1000 q 417 1044 386 1044 z "},"ţ":{"ha":421,"x_min":22,"x_max":426,"o":"m 228 -64 q 324 -101 289 -71 q 360 -179 360 -132 q 328 -260 360 -228 q 228 -293 297 -293 q 128 -262 161 -293 q 96 -179 96 -232 l 178 -168 q 190 -226 178 -206 q 226 -247 203 -247 q 265 -186 265 -247 q 242 -133 265 -153 q 156 -103 218 -114 l 188 6 q 140 64 150 26 q 131 160 131 101 l 131 596 l 22 596 l 22 667 l 131 667 l 131 775 l 272 828 l 272 667 l 414 667 l 414 596 l 272 596 l 272 143 q 284 80 272 97 q 324 63 296 63 q 408 88 363 63 l 426 24 q 285 -17 353 -17 q 244 -14 269 -17 l 228 -64 z "},"ț":{"ha":421,"x_min":22,"x_max":426,"o":"m 426 24 q 285 -17 353 -17 q 181 9 215 -17 q 139 71 147 35 q 131 160 131 107 l 131 596 l 22 596 l 22 667 l 131 667 l 131 775 l 272 828 l 272 667 l 414 667 l 414 596 l 272 596 l 272 143 q 284 80 272 97 q 324 63 296 63 q 408 88 363 63 l 426 24 m 213 -58 q 266 -83 244 -58 q 288 -146 288 -108 q 247 -271 288 -215 q 150 -361 206 -326 l 125 -329 q 154 -287 146 -308 q 163 -236 163 -267 q 150 -187 163 -218 q 138 -133 138 -150 q 160 -81 138 -103 q 213 -58 182 -58 z "},"u":{"ha":772,"x_min":100,"x_max":660,"o":"m 660 667 l 660 0 l 568 0 l 529 83 q 311 -17 436 -17 q 151 40 203 -17 q 100 199 100 96 l 100 667 l 240 667 l 240 213 q 363 57 240 57 q 519 144 453 57 l 519 667 l 660 667 z "},"ú":{"ha":772,"x_min":100,"x_max":660,"o":"m 660 667 l 660 0 l 568 0 l 529 83 q 311 -17 436 -17 q 151 40 203 -17 q 100 199 100 96 l 100 667 l 240 667 l 240 213 q 363 57 240 57 q 519 144 453 57 l 519 667 l 660 667 m 472 989 l 558 889 l 331 738 l 301 769 l 472 989 z "},"ŭ":{"ha":772,"x_min":100,"x_max":660,"o":"m 660 667 l 660 0 l 568 0 l 529 83 q 311 -17 436 -17 q 151 40 203 -17 q 100 199 100 96 l 100 667 l 240 667 l 240 213 q 363 57 240 57 q 519 144 453 57 l 519 667 l 660 667 m 554 932 q 388 746 554 746 q 224 932 224 746 l 285 932 q 310 860 285 886 q 388 833 335 833 q 465 860 440 833 q 490 932 490 886 l 554 932 z "},"û":{"ha":772,"x_min":100,"x_max":660,"o":"m 660 667 l 660 0 l 568 0 l 529 83 q 311 -17 436 -17 q 151 40 203 -17 q 100 199 100 96 l 100 667 l 240 667 l 240 213 q 363 57 240 57 q 519 144 453 57 l 519 667 l 660 667 m 356 969 l 418 969 l 551 767 l 515 735 l 386 856 l 261 735 l 222 767 l 356 969 z "},"ü":{"ha":772,"x_min":100,"x_max":660,"o":"m 660 667 l 660 0 l 568 0 l 529 83 q 311 -17 436 -17 q 151 40 203 -17 q 100 199 100 96 l 100 667 l 240 667 l 240 213 q 363 57 240 57 q 519 144 453 57 l 519 667 l 660 667 m 261 763 q 206 786 229 763 q 183 840 183 810 q 206 898 183 874 q 261 922 229 922 q 319 898 294 922 q 343 840 343 874 q 319 785 343 808 q 261 763 294 763 m 514 763 q 459 787 483 763 q 435 840 435 811 q 458 898 435 874 q 514 922 482 922 q 570 898 547 922 q 593 840 593 874 q 571 785 593 808 q 514 763 549 763 z "},"ù":{"ha":772,"x_min":100,"x_max":660,"o":"m 660 667 l 660 0 l 568 0 l 529 83 q 311 -17 436 -17 q 151 40 203 -17 q 100 199 100 96 l 100 667 l 240 667 l 240 213 q 363 57 240 57 q 519 144 453 57 l 519 667 l 660 667 m 450 738 l 219 889 l 306 989 l 479 769 l 450 738 z "},"ű":{"ha":772,"x_min":100,"x_max":675,"o":"m 660 667 l 660 0 l 568 0 l 529 83 q 311 -17 436 -17 q 151 40 203 -17 q 100 199 100 96 l 100 667 l 240 667 l 240 213 q 363 57 240 57 q 519 144 453 57 l 519 667 l 660 667 m 331 989 l 417 889 l 188 738 l 158 769 l 331 989 m 592 989 l 675 889 l 449 738 l 419 769 l 592 989 z "},"ū":{"ha":772,"x_min":100,"x_max":660,"o":"m 660 667 l 660 0 l 568 0 l 529 83 q 311 -17 436 -17 q 151 40 203 -17 q 100 199 100 96 l 100 667 l 240 667 l 240 213 q 363 57 240 57 q 519 144 453 57 l 519 667 l 660 667 m 560 890 l 560 792 l 218 792 l 218 890 l 560 890 z "},"ų":{"ha":772,"x_min":100,"x_max":731,"o":"m 731 -136 q 660 -215 704 -183 q 568 -247 615 -247 q 485 -221 515 -247 q 456 -149 456 -194 q 481 -76 456 -108 q 558 -10 506 -43 l 574 0 l 568 0 l 529 83 q 311 -17 436 -17 q 151 40 203 -17 q 100 199 100 96 l 100 667 l 240 667 l 240 213 q 363 57 240 57 q 519 144 453 57 l 519 667 l 660 667 l 660 0 l 653 0 l 599 -35 q 549 -78 563 -60 q 536 -122 536 -97 q 551 -157 536 -144 q 588 -169 565 -169 q 640 -152 617 -169 q 681 -106 664 -135 l 731 -136 z "},"ů":{"ha":772,"x_min":100,"x_max":660,"o":"m 660 667 l 660 0 l 568 0 l 529 83 q 311 -17 436 -17 q 151 40 203 -17 q 100 199 100 96 l 100 667 l 240 667 l 240 213 q 363 57 240 57 q 519 144 453 57 l 519 667 l 660 667 m 390 729 q 290 767 317 729 q 263 857 263 806 q 390 986 263 986 q 518 857 518 986 q 390 729 518 729 m 389 775 q 433 800 421 775 q 444 857 444 825 q 389 939 444 939 q 338 857 338 939 q 349 800 338 825 q 389 775 360 775 z "},"ũ":{"ha":772,"x_min":100,"x_max":660,"o":"m 660 667 l 660 0 l 568 0 l 529 83 q 311 -17 436 -17 q 151 40 203 -17 q 100 199 100 96 l 100 667 l 240 667 l 240 213 q 363 57 240 57 q 519 144 453 57 l 519 667 l 660 667 m 472 781 q 413 790 442 781 q 378 803 385 800 q 340 816 360 810 q 306 822 321 822 q 264 810 281 822 q 236 771 247 797 l 193 786 q 234 890 204 857 q 303 924 264 924 q 397 899 342 924 q 434 885 415 892 q 468 879 453 879 q 512 890 494 879 q 539 926 529 901 l 582 910 q 540 811 569 842 q 472 781 511 781 z "},"v":{"ha":640,"x_min":14,"x_max":628,"o":"m 628 667 l 396 0 l 242 0 l 14 667 l 154 667 l 349 71 l 547 667 l 628 667 z "},"w":{"ha":890,"x_min":19,"x_max":876,"o":"m 876 667 l 703 0 l 549 0 l 442 474 l 322 0 l 167 0 l 19 667 l 161 667 l 275 108 l 410 667 l 492 667 l 490 664 l 494 667 l 540 667 l 657 106 l 793 667 l 876 667 z "},"ẃ":{"ha":890,"x_min":19,"x_max":876,"o":"m 876 667 l 703 0 l 549 0 l 442 474 l 322 0 l 167 0 l 19 667 l 161 667 l 275 108 l 410 667 l 492 667 l 490 664 l 494 667 l 540 667 l 657 106 l 793 667 l 876 667 m 533 989 l 619 889 l 392 738 l 363 769 l 533 989 z "},"ŵ":{"ha":890,"x_min":19,"x_max":876,"o":"m 876 667 l 703 0 l 549 0 l 442 474 l 322 0 l 167 0 l 19 667 l 161 667 l 275 108 l 410 667 l 492 667 l 490 664 l 494 667 l 540 667 l 657 106 l 793 667 l 876 667 m 417 969 l 479 969 l 613 767 l 576 735 l 447 856 l 322 735 l 283 767 l 417 969 z "},"ẅ":{"ha":890,"x_min":19,"x_max":876,"o":"m 876 667 l 703 0 l 549 0 l 442 474 l 322 0 l 167 0 l 19 667 l 161 667 l 275 108 l 410 667 l 492 667 l 490 664 l 494 667 l 540 667 l 657 106 l 793 667 l 876 667 m 324 763 q 269 786 292 763 q 246 840 246 810 q 269 898 246 874 q 324 922 292 922 q 381 898 357 922 q 406 840 406 874 q 381 785 406 808 q 324 763 357 763 m 576 763 q 522 787 546 763 q 497 840 497 811 q 521 898 497 874 q 576 922 544 922 q 633 898 610 922 q 656 840 656 874 q 633 785 656 808 q 576 763 611 763 z "},"ẁ":{"ha":890,"x_min":19,"x_max":876,"o":"m 876 667 l 703 0 l 549 0 l 442 474 l 322 0 l 167 0 l 19 667 l 161 667 l 275 108 l 410 667 l 492 667 l 490 664 l 494 667 l 540 667 l 657 106 l 793 667 l 876 667 m 511 738 l 281 889 l 367 989 l 540 769 l 511 738 z "},"x":{"ha":600,"x_min":-4,"x_max":599,"o":"m 443 0 l 271 260 l 79 0 l -4 0 l 236 314 l 4 667 l 160 667 l 324 417 l 507 667 l 590 667 l 358 363 l 599 0 l 443 0 z "},"y":{"ha":639,"x_min":14,"x_max":628,"o":"m 628 667 l 288 -282 l 174 -265 l 303 -26 l 14 667 l 154 667 l 367 140 l 547 667 l 628 667 z "},"ý":{"ha":639,"x_min":14,"x_max":628,"o":"m 628 667 l 288 -282 l 174 -265 l 303 -26 l 14 667 l 154 667 l 367 140 l 547 667 l 628 667 m 429 989 l 515 889 l 288 738 l 258 769 l 429 989 z "},"ŷ":{"ha":639,"x_min":14,"x_max":628,"o":"m 628 667 l 288 -282 l 174 -265 l 303 -26 l 14 667 l 154 667 l 367 140 l 547 667 l 628 667 m 313 969 l 375 969 l 508 767 l 472 735 l 343 856 l 218 735 l 179 767 l 313 969 z "},"ÿ":{"ha":639,"x_min":14,"x_max":628,"o":"m 628 667 l 288 -282 l 174 -265 l 303 -26 l 14 667 l 154 667 l 367 140 l 547 667 l 628 667 m 218 763 q 163 786 186 763 q 140 840 140 810 q 163 898 140 874 q 218 922 186 922 q 276 898 251 922 q 300 840 300 874 q 276 785 300 808 q 218 763 251 763 m 471 763 q 416 787 440 763 q 392 840 392 811 q 415 898 392 874 q 471 922 439 922 q 527 898 504 922 q 550 840 550 874 q 528 785 550 808 q 471 763 506 763 z "},"ỳ":{"ha":639,"x_min":14,"x_max":628,"o":"m 628 667 l 288 -282 l 174 -265 l 303 -26 l 14 667 l 154 667 l 367 140 l 547 667 l 628 667 m 407 738 l 176 889 l 263 989 l 436 769 l 407 738 z "},"z":{"ha":597,"x_min":40,"x_max":557,"o":"m 557 71 l 557 0 l 40 0 l 40 88 l 399 596 l 54 596 l 54 667 l 543 667 l 543 579 l 188 71 l 557 71 z "},"ź":{"ha":597,"x_min":40,"x_max":557,"o":"m 557 71 l 557 0 l 40 0 l 40 88 l 399 596 l 54 596 l 54 667 l 543 667 l 543 579 l 188 71 l 557 71 m 385 989 l 471 889 l 243 738 l 214 769 l 385 989 z "},"ž":{"ha":597,"x_min":40,"x_max":557,"o":"m 557 71 l 557 0 l 40 0 l 40 88 l 399 596 l 54 596 l 54 667 l 543 667 l 543 579 l 188 71 l 557 71 m 176 969 l 301 849 l 431 969 l 467 936 l 333 735 l 271 735 l 138 936 l 176 969 z "},"ż":{"ha":597,"x_min":40,"x_max":557,"o":"m 557 71 l 557 0 l 40 0 l 40 88 l 399 596 l 54 596 l 54 667 l 543 667 l 543 579 l 188 71 l 557 71 m 301 754 q 240 780 265 754 q 215 840 215 806 q 240 902 215 876 q 301 928 265 928 q 363 902 336 928 q 389 840 389 876 q 363 780 389 806 q 301 754 336 754 z "},"ﬀ":{"ha":807,"x_min":21,"x_max":913,"o":"m 746 917 q 831 903 790 917 q 913 865 871 890 l 865 764 q 815 815 844 796 q 756 835 786 835 q 695 809 717 835 q 674 740 674 783 l 674 667 l 814 667 l 814 596 l 674 596 l 674 0 l 533 0 l 533 596 l 425 596 l 425 667 l 533 667 l 533 703 q 542 778 533 744 q 393 835 481 835 q 305 798 340 835 q 269 692 269 761 l 269 667 l 422 667 l 422 596 l 269 596 l 269 0 l 129 0 l 129 596 l 21 596 l 21 667 l 129 667 l 129 675 q 199 857 129 797 q 393 917 269 917 q 589 864 494 917 q 746 917 644 917 z "},"ﬃ":{"ha":1175,"x_min":21,"x_max":1063,"o":"m 1063 0 l 922 0 l 922 596 l 674 596 l 674 0 l 533 0 l 533 596 l 425 596 l 425 667 l 533 667 l 533 675 q 549 772 533 729 q 393 835 483 835 q 305 798 340 835 q 269 692 269 761 l 269 667 l 422 667 l 422 596 l 269 596 l 269 0 l 129 0 l 129 596 l 21 596 l 21 667 l 129 667 l 129 675 q 199 857 129 797 q 393 917 269 917 q 603 856 504 917 q 797 917 669 917 q 925 894 865 917 q 1031 840 985 872 l 981 740 q 797 835 911 835 q 709 798 744 835 q 674 692 674 761 l 674 667 l 1063 667 l 1063 0 z "},"ﬄ":{"ha":1175,"x_min":21,"x_max":1061,"o":"m 1061 899 l 1061 0 l 921 0 l 921 799 q 797 835 869 835 q 709 798 744 835 q 674 692 674 761 l 674 667 l 826 667 l 826 596 l 674 596 l 674 0 l 533 0 l 533 596 l 425 596 l 425 667 l 533 667 l 533 675 q 549 772 533 729 q 393 835 483 835 q 305 798 340 835 q 269 692 269 761 l 269 667 l 422 667 l 422 596 l 269 596 l 269 0 l 129 0 l 129 596 l 21 596 l 21 667 l 129 667 l 129 675 q 199 857 129 797 q 393 917 269 917 q 603 856 504 917 q 797 917 669 917 q 951 885 872 917 l 1061 899 z "},"ﬁ":{"ha":772,"x_min":21,"x_max":657,"o":"m 657 0 l 517 0 l 517 596 l 269 596 l 269 0 l 129 0 l 129 596 l 21 596 l 21 667 l 129 667 l 129 675 q 199 857 129 797 q 393 917 269 917 q 521 894 461 917 q 626 840 581 872 l 576 740 q 393 835 507 835 q 305 798 340 835 q 269 692 269 761 l 269 667 l 657 667 l 657 0 z "},"ﬂ":{"ha":772,"x_min":21,"x_max":658,"o":"m 658 899 l 658 0 l 518 0 l 518 797 q 393 835 461 835 q 305 798 340 835 q 269 692 269 761 l 269 667 l 422 667 l 422 596 l 269 596 l 269 0 l 129 0 l 129 596 l 21 596 l 21 667 l 129 667 l 129 675 q 199 857 129 797 q 393 917 269 917 q 547 885 468 917 l 658 899 z "},"ª":{"ha":514,"x_min":42,"x_max":453,"o":"m 76 747 q 133 851 86 815 q 258 886 181 886 q 393 851 342 886 q 444 725 444 817 l 444 408 l 383 408 l 344 465 q 274 416 313 435 q 181 397 236 397 q 85 431 115 397 q 54 522 54 464 q 218 665 54 640 l 324 678 l 324 724 q 307 813 324 788 q 258 839 290 839 q 200 812 221 839 q 174 722 179 785 l 76 747 m 233 456 q 324 497 288 456 l 324 639 l 264 631 q 164 525 164 614 q 182 475 164 494 q 233 456 200 456 m 453 326 l 453 246 l 42 246 l 42 326 l 453 326 z "},"º":{"ha":521,"x_min":42,"x_max":476,"o":"m 260 397 q 42 642 42 397 q 260 886 42 886 q 428 819 381 886 q 476 642 476 751 q 428 465 476 532 q 260 397 381 397 m 260 450 q 338 497 318 450 q 358 642 358 543 q 338 790 358 742 q 260 838 318 838 q 183 790 203 838 q 164 642 164 742 q 183 497 164 543 q 260 450 203 450 m 464 326 l 464 246 l 56 246 l 56 326 l 464 326 z "},"Δ":{"ha":792,"x_min":14,"x_max":779,"o":"m 779 0 l 14 0 l 318 851 l 474 851 l 779 0 m 604 94 l 365 778 l 129 94 l 604 94 z "},"Ω":{"ha":935,"x_min":69,"x_max":865,"o":"m 671 94 l 829 94 l 829 0 l 568 0 l 568 211 q 728 506 728 276 q 665 726 728 642 q 468 811 603 811 q 268 726 332 811 q 204 506 204 642 q 367 211 204 278 l 367 206 l 368 206 l 368 0 l 104 0 l 104 94 l 264 94 l 264 190 q 117 328 165 240 q 69 510 69 415 q 110 686 69 604 q 240 819 151 768 q 468 869 329 869 q 694 819 606 869 q 824 686 783 768 q 865 510 865 604 q 817 329 865 417 q 671 192 768 242 l 671 94 z "},"Ω":{"ha":935,"x_min":69,"x_max":865,"o":"m 671 94 l 829 94 l 829 0 l 568 0 l 568 211 q 728 506 728 276 q 665 726 728 642 q 468 811 603 811 q 268 726 332 811 q 204 506 204 642 q 367 211 204 278 l 367 206 l 368 206 l 368 0 l 104 0 l 104 94 l 264 94 l 264 190 q 117 328 165 240 q 69 510 69 415 q 110 686 69 604 q 240 819 151 768 q 468 869 329 869 q 694 819 606 869 q 824 686 783 768 q 865 510 865 604 q 817 329 865 417 q 671 192 768 242 l 671 94 z "},"µ":{"ha":772,"x_min":114,"x_max":672,"o":"m 672 667 l 672 199 q 622 40 672 96 q 463 -17 571 -17 q 250 76 340 -17 l 204 -282 l 114 -282 l 114 667 l 254 667 l 254 144 q 411 57 318 57 q 532 213 532 57 l 532 667 l 672 667 z "},"μ":{"ha":772,"x_min":114,"x_max":672,"o":"m 672 667 l 672 199 q 622 40 672 96 q 463 -17 571 -17 q 250 76 340 -17 l 204 -282 l 114 -282 l 114 667 l 254 667 l 254 144 q 411 57 318 57 q 532 213 532 57 l 532 667 l 672 667 z "},"π":{"ha":758,"x_min":60,"x_max":696,"o":"m 696 596 l 626 596 l 626 0 l 486 0 l 486 596 l 269 596 l 269 0 l 129 0 l 129 596 l 60 596 l 60 667 l 696 667 l 696 596 z "},"ऄ":{"ha":1101,"x_min":71,"x_max":1118,"o":"m 1118 833 l 1118 783 l 985 783 l 985 0 l 843 0 l 843 344 q 732 319 790 319 q 676 325 710 319 q 696 233 696 282 q 651 108 696 165 q 528 17 606 50 q 360 -17 451 -17 q 206 11 272 -17 q 106 85 140 39 q 71 183 71 131 q 112 262 71 232 q 218 292 153 292 q 213 217 213 268 q 233 126 213 168 q 287 58 253 83 q 360 33 321 33 q 494 89 447 33 q 540 233 540 144 q 510 339 540 292 q 429 414 481 386 q 318 442 378 442 q 210 425 260 442 l 243 492 q 482 683 482 492 q 449 772 482 736 q 368 808 417 808 q 268 777 307 808 q 229 704 229 746 q 260 629 229 654 q 157 571 219 571 q 108 592 129 571 q 88 654 88 614 q 125 752 88 707 q 227 824 163 797 q 368 850 292 850 q 567 803 496 850 q 638 683 638 756 q 585 567 638 621 q 426 483 533 514 q 606 417 538 474 q 732 376 663 376 q 843 407 789 376 l 843 783 l 760 783 l 760 833 l 1118 833 m 885 833 q 844 955 885 913 q 743 1014 803 997 q 583 1044 683 1031 q 440 1069 494 1057 q 341 1113 386 1082 q 278 1199 296 1143 q 321 1230 296 1218 q 385 1242 346 1242 q 449 1148 404 1182 q 546 1099 493 1114 q 682 1071 599 1085 q 826 1040 774 1056 q 914 983 878 1024 q 950 867 950 942 q 924 842 939 850 q 885 833 910 833 z "},"ॲ":{"ha":1101,"x_min":71,"x_max":1183,"o":"m 1118 833 l 1118 783 l 985 783 l 985 0 l 843 0 l 843 344 q 732 319 790 319 q 676 325 710 319 q 696 233 696 282 q 651 108 696 165 q 528 17 606 50 q 360 -17 451 -17 q 206 11 272 -17 q 106 85 140 39 q 71 183 71 131 q 112 262 71 232 q 218 292 153 292 q 213 217 213 268 q 233 126 213 168 q 287 58 253 83 q 360 33 321 33 q 494 89 447 33 q 540 233 540 144 q 510 339 540 292 q 429 414 481 386 q 318 442 378 442 q 210 425 260 442 l 243 492 q 482 683 482 492 q 449 772 482 736 q 368 808 417 808 q 268 777 307 808 q 229 704 229 746 q 260 629 229 654 q 157 571 219 571 q 108 592 129 571 q 88 654 88 614 q 125 752 88 707 q 227 824 163 797 q 368 850 292 850 q 567 803 496 850 q 638 683 638 756 q 585 567 638 621 q 426 483 533 514 q 606 417 538 474 q 732 376 663 376 q 843 407 789 376 l 843 783 l 760 783 l 760 833 l 1118 833 m 1183 1156 q 1078 989 1153 1044 q 914 933 1003 933 q 742 984 817 933 q 642 1132 668 1035 l 764 1175 q 825 1038 776 1085 q 938 990 874 990 q 1070 1036 1011 990 q 1156 1175 1129 1082 l 1183 1156 z "},"अ":{"ha":1101,"x_min":71,"x_max":1118,"o":"m 1118 833 l 1118 783 l 985 783 l 985 0 l 843 0 l 843 344 q 732 319 790 319 q 676 325 710 319 q 696 233 696 282 q 651 108 696 165 q 528 17 606 50 q 360 -17 451 -17 q 206 11 272 -17 q 106 85 140 39 q 71 183 71 131 q 112 262 71 232 q 218 292 153 292 q 213 217 213 268 q 233 126 213 168 q 287 58 253 83 q 360 33 321 33 q 494 89 447 33 q 540 233 540 144 q 510 339 540 292 q 429 414 481 386 q 318 442 378 442 q 210 425 260 442 l 243 492 q 482 683 482 492 q 449 772 482 736 q 368 808 417 808 q 268 777 307 808 q 229 704 229 746 q 260 629 229 654 q 157 571 219 571 q 108 592 129 571 q 88 654 88 614 q 125 752 88 707 q 227 824 163 797 q 368 850 292 850 q 567 803 496 850 q 638 683 638 756 q 585 567 638 621 q 426 483 533 514 q 606 417 538 474 q 732 376 663 376 q 843 407 789 376 l 843 783 l 760 783 l 760 833 l 1118 833 z "},"आ":{"ha":1476,"x_min":71,"x_max":1493,"o":"m 1493 783 l 1360 783 l 1360 0 l 1218 0 l 1218 783 l 985 783 l 985 0 l 843 0 l 843 344 q 732 319 790 319 q 676 325 710 319 q 696 233 696 282 q 651 108 696 165 q 528 17 606 50 q 360 -17 451 -17 q 206 11 272 -17 q 106 85 140 39 q 71 183 71 131 q 112 262 71 232 q 218 292 153 292 q 213 217 213 268 q 233 126 213 168 q 287 58 253 83 q 360 33 321 33 q 494 89 447 33 q 540 233 540 144 q 510 339 540 292 q 429 414 481 386 q 318 442 378 442 q 210 425 260 442 l 243 492 q 482 683 482 492 q 449 772 482 736 q 368 808 417 808 q 268 777 307 808 q 229 704 229 746 q 260 629 229 654 q 157 571 219 571 q 108 592 129 571 q 88 654 88 614 q 125 752 88 707 q 227 824 163 797 q 368 850 292 850 q 567 803 496 850 q 638 683 638 756 q 585 567 638 621 q 426 483 533 514 q 606 417 538 474 q 732 376 663 376 q 843 407 789 376 l 843 783 l 760 783 l 760 833 l 1493 833 l 1493 783 z "},"इ":{"ha":804,"x_min":-17,"x_max":821,"o":"m 376 675 q 306 656 339 675 q 274 597 274 638 q 319 531 274 554 q 465 479 365 507 q 624 426 563 451 q 731 351 686 400 q 775 225 775 301 q 711 85 775 142 q 542 1 647 28 q 615 -65 575 -42 q 710 -89 656 -89 q 667 -128 696 -114 q 596 -143 638 -143 q 498 -109 540 -143 q 419 -15 456 -75 q 379 -17 406 -17 q 224 11 294 -17 q 111 84 153 39 q 69 178 69 129 q 118 274 69 243 q 235 306 167 306 q 341 278 297 306 q 413 210 385 250 q 479 104 442 171 l 513 46 q 608 108 572 68 q 644 204 644 149 q 613 278 644 249 q 534 327 581 308 q 407 369 488 346 q 267 417 318 396 q 179 473 215 438 q 143 563 143 508 q 206 678 143 640 q 364 717 268 717 q 556 672 456 717 l 556 783 l -17 783 l -17 833 l 821 833 l 821 783 l 697 783 l 697 618 l 589 583 q 492 651 549 626 q 376 675 436 675 m 397 25 q 357 108 382 53 q 292 227 317 190 q 235 264 267 264 q 195 244 207 264 q 183 200 183 225 q 213 107 183 147 q 290 46 243 67 q 388 25 336 25 l 397 25 z "},"ई":{"ha":804,"x_min":-17,"x_max":844,"o":"m 376 675 q 306 656 339 675 q 274 597 274 638 q 319 531 274 554 q 465 479 365 507 q 624 426 563 451 q 731 351 686 400 q 775 225 775 301 q 711 85 775 142 q 542 1 647 28 q 615 -65 575 -42 q 710 -89 656 -89 q 667 -128 696 -114 q 596 -143 638 -143 q 498 -109 540 -143 q 419 -15 456 -75 q 379 -17 406 -17 q 224 11 294 -17 q 111 84 153 39 q 69 178 69 129 q 118 274 69 243 q 235 306 167 306 q 341 278 297 306 q 413 210 385 250 q 479 104 442 171 l 513 46 q 608 108 572 68 q 644 204 644 149 q 613 278 644 249 q 534 327 581 308 q 407 369 488 346 q 267 417 318 396 q 179 473 215 438 q 143 563 143 508 q 206 678 143 640 q 364 717 268 717 q 556 672 456 717 l 556 783 l -17 783 l -17 833 l 821 833 l 821 783 l 697 783 l 697 618 l 589 583 q 492 651 549 626 q 376 675 436 675 m 397 25 q 357 108 382 53 q 292 227 317 190 q 235 264 267 264 q 195 244 207 264 q 183 200 183 225 q 213 107 183 147 q 290 46 243 67 q 388 25 336 25 l 397 25 m 585 833 q 477 933 521 871 q 433 1067 433 996 q 498 1221 433 1168 q 664 1274 563 1274 q 753 1261 703 1274 q 844 1231 803 1249 q 828 1173 844 1193 q 794 1153 811 1153 q 739 1205 776 1186 q 667 1224 701 1224 q 585 1182 617 1224 q 554 1081 554 1140 q 582 956 554 1011 q 663 867 610 901 q 585 833 638 833 z "},"उ":{"ha":743,"x_min":-17,"x_max":760,"o":"m 760 783 l 539 783 q 605 733 582 763 q 628 667 628 703 q 576 560 628 607 q 417 483 524 513 q 570 436 510 475 q 658 342 631 397 q 686 233 686 288 q 641 108 686 165 q 519 17 596 50 q 350 -17 442 -17 q 195 11 261 -17 q 95 85 129 39 q 61 183 61 131 q 101 262 61 232 q 208 292 142 292 q 203 217 203 256 q 223 126 203 168 q 277 58 243 83 q 350 33 311 33 q 484 89 438 33 q 531 233 531 144 q 501 339 531 292 q 419 414 471 386 q 308 442 368 442 q 200 425 250 442 l 233 492 q 472 667 472 492 q 440 751 472 718 q 358 783 407 783 l -17 783 l -17 833 l 760 833 l 760 783 z "},"ऊ":{"ha":1111,"x_min":-17,"x_max":1128,"o":"m 1128 783 l 539 783 q 605 733 582 763 q 628 667 628 703 q 576 560 628 607 q 417 483 524 513 q 601 413 528 474 q 693 540 639 506 q 815 575 747 575 q 948 538 889 575 q 1040 435 1007 500 q 1074 288 1074 369 q 1040 132 1074 201 q 946 23 1006 63 q 811 -17 886 -17 q 735 3 765 -17 q 706 54 706 24 q 874 125 815 54 q 932 333 932 196 q 917 419 932 372 q 873 499 903 465 q 799 533 843 533 q 705 488 747 533 q 642 368 663 443 q 675 302 664 338 q 686 233 686 267 q 641 108 686 165 q 519 17 596 50 q 350 -17 442 -17 q 195 11 261 -17 q 95 85 129 39 q 61 183 61 131 q 101 262 61 232 q 208 292 142 292 q 203 217 203 256 q 223 126 203 168 q 277 58 243 83 q 350 33 311 33 q 484 89 438 33 q 531 233 531 144 q 501 339 531 292 q 419 414 471 386 q 308 442 368 442 q 200 425 250 442 l 233 492 q 472 667 472 492 q 440 751 472 718 q 358 783 407 783 l -17 783 l -17 833 l 1128 833 l 1128 783 z "},"ऋ":{"ha":1285,"x_min":-17,"x_max":1301,"o":"m 1301 783 l 746 783 l 746 401 l 893 486 q 869 558 869 519 q 907 645 869 615 q 999 675 944 675 q 1088 647 1050 675 q 1125 567 1125 618 l 983 485 q 1246 217 1246 369 q 1207 106 1246 156 q 1101 28 1168 57 q 954 0 1033 0 q 910 15 925 0 q 896 57 896 31 q 1047 85 990 57 q 1104 175 1104 113 q 1065 314 1104 242 q 929 450 1026 386 l 746 346 l 746 0 l 604 0 l 604 263 l 146 -4 l 122 38 l 235 104 q 356 228 322 156 q 390 408 390 301 q 358 572 390 511 q 254 633 326 633 q 156 584 194 633 q 118 456 118 535 q 121 413 118 443 q 51 441 82 413 q 21 513 21 469 q 93 635 21 596 q 254 675 165 675 q 401 644 338 675 q 498 559 464 614 q 532 436 532 504 q 508 322 532 375 q 421 211 483 268 l 604 319 l 604 783 l -17 783 l -17 833 l 1301 833 l 1301 783 z "},"ॠ":{"ha":1285,"x_min":-17,"x_max":1301,"o":"m 1301 783 l 746 783 l 746 401 l 897 492 q 876 563 876 521 q 912 646 876 617 q 999 675 947 675 q 1088 647 1050 675 q 1125 567 1125 618 l 746 346 l 746 0 l 604 0 l 604 263 l 146 -4 l 122 38 l 235 104 q 356 228 322 156 q 390 408 390 301 q 358 572 390 511 q 254 633 326 633 q 156 584 194 633 q 118 456 118 535 q 121 413 118 443 q 51 441 82 413 q 21 513 21 469 q 93 635 21 596 q 254 675 165 675 q 401 644 338 675 q 498 559 464 614 q 532 436 532 504 q 508 322 532 375 q 421 211 483 268 l 604 319 l 604 783 l -17 783 l -17 833 l 1301 833 l 1301 783 m 929 450 l 1001 363 q 914 274 947 326 q 881 171 881 221 q 933 45 881 90 q 1067 0 985 0 q 1181 26 1129 0 q 1272 113 1232 51 l 1243 161 q 1185 101 1221 124 q 1107 79 1150 79 q 1038 108 1065 79 q 1011 186 1011 136 q 1031 283 1011 243 q 1090 356 1051 322 l 983 485 l 929 450 z "},"ऌ":{"ha":1026,"x_min":-17,"x_max":1043,"o":"m 806 783 l 806 640 q 926 537 879 608 q 972 376 972 465 q 950 262 972 311 q 896 178 928 213 q 810 99 864 144 q 733 28 761 58 q 685 -41 704 -1 q 667 -131 667 -81 q 785 -268 667 -268 q 897 -207 864 -268 q 931 -72 931 -146 q 1001 -97 974 -72 q 1029 -168 1029 -122 q 999 -239 1029 -207 q 913 -290 969 -271 q 781 -310 856 -310 q 597 -261 668 -310 q 525 -131 525 -212 q 555 -35 525 -72 q 647 46 585 1 q 742 126 706 90 q 804 224 778 163 q 831 375 831 286 q 816 475 831 418 q 772 574 801 532 q 697 617 742 617 q 592 553 632 617 q 551 392 553 489 l 476 392 q 435 553 474 489 q 331 617 396 617 q 256 574 286 617 q 212 475 226 532 q 197 375 197 418 q 261 149 197 222 q 456 75 325 75 q 419 17 451 42 q 325 -8 386 -8 q 186 35 247 -8 q 90 156 125 79 q 56 329 56 233 q 89 496 56 421 q 181 615 122 571 q 314 658 240 658 q 430 629 379 658 q 514 517 481 600 q 664 654 561 636 l 664 783 l -17 783 l -17 833 l 1043 833 l 1043 783 l 806 783 z "},"ॡ":{"ha":1026,"x_min":-17,"x_max":1043,"o":"m 806 783 l 806 640 q 926 537 879 608 q 972 376 972 465 q 948 278 972 319 q 890 210 924 236 q 806 153 856 183 q 740 107 760 125 q 719 68 719 89 q 756 8 719 33 q 831 -18 792 -18 l 829 -19 l 869 -19 l 869 -61 q 715 -98 760 -61 q 669 -183 669 -135 q 706 -265 669 -236 q 790 -294 743 -294 q 908 -247 868 -294 q 947 -129 947 -199 q 1012 -148 986 -129 q 1038 -186 1038 -167 q 963 -297 1038 -257 q 782 -336 888 -336 q 657 -315 715 -336 q 563 -260 599 -294 q 528 -183 528 -225 q 572 -95 528 -133 q 697 -37 617 -57 q 610 8 643 -21 q 578 68 578 36 q 597 103 578 88 q 657 142 615 118 q 744 196 708 169 q 805 267 779 222 q 831 375 831 311 q 816 475 831 418 q 772 574 801 532 q 697 617 742 617 q 592 553 632 617 q 551 392 553 489 l 476 392 q 435 553 474 489 q 331 617 396 617 q 256 574 286 617 q 212 475 226 532 q 197 375 197 418 q 261 149 197 222 q 456 75 325 75 q 419 17 451 42 q 325 -8 386 -8 q 188 35 250 -8 q 91 156 126 79 q 56 329 56 233 q 89 496 56 421 q 181 615 122 571 q 314 658 240 658 q 430 629 379 658 q 514 517 481 600 q 664 654 561 636 l 664 783 l -17 783 l -17 833 l 1043 833 l 1043 783 l 806 783 z "},"ऍ":{"ha":814,"x_min":-17,"x_max":831,"o":"m 408 -383 q 256 -356 321 -383 q 156 -282 190 -328 q 121 -183 121 -236 q 161 -105 121 -135 q 267 -75 201 -75 q 263 -150 263 -103 q 282 -241 263 -199 q 335 -308 301 -283 q 408 -333 369 -333 q 533 -288 482 -333 q 583 -167 583 -243 q 553 -76 583 -119 q 480 3 524 -33 q 361 92 436 39 q 224 197 275 154 q 136 295 172 239 q 100 417 100 351 l 100 783 l -17 783 l -17 833 l 831 833 l 831 783 l 714 783 l 714 564 q 678 428 714 492 q 576 324 643 365 q 419 275 510 283 q 534 406 496 325 q 572 576 572 486 l 572 783 l 242 783 l 242 442 q 267 349 242 390 q 331 277 293 308 q 436 201 369 246 q 565 106 517 147 q 649 2 614 64 q 683 -143 683 -60 q 646 -265 683 -210 q 545 -351 608 -319 q 408 -383 482 -383 m 721 1156 q 615 989 690 1044 q 451 933 540 933 q 280 984 354 933 q 179 1132 206 1035 l 301 1175 q 363 1038 314 1085 q 475 990 411 990 q 608 1036 549 990 q 693 1175 667 1082 l 721 1156 z "},"ऎ":{"ha":814,"x_min":-17,"x_max":831,"o":"m 408 -383 q 256 -356 321 -383 q 156 -282 190 -328 q 121 -183 121 -236 q 161 -105 121 -135 q 267 -75 201 -75 q 263 -150 263 -103 q 282 -241 263 -199 q 335 -308 301 -283 q 408 -333 369 -333 q 533 -288 482 -333 q 583 -167 583 -243 q 553 -76 583 -119 q 480 3 524 -33 q 361 92 436 39 q 224 197 275 154 q 136 295 172 239 q 100 417 100 351 l 100 783 l -17 783 l -17 833 l 831 833 l 831 783 l 714 783 l 714 564 q 678 428 714 492 q 576 324 643 365 q 419 275 510 283 q 534 406 496 325 q 572 576 572 486 l 572 783 l 242 783 l 242 442 q 267 349 242 390 q 331 277 293 308 q 436 201 369 246 q 565 106 517 147 q 649 2 614 64 q 683 -143 683 -60 q 646 -265 683 -210 q 545 -351 608 -319 q 408 -383 482 -383 m 614 833 q 573 955 614 913 q 472 1014 532 997 q 313 1044 413 1031 q 169 1069 224 1057 q 70 1113 115 1082 q 7 1199 25 1143 q 50 1230 25 1218 q 114 1242 75 1242 q 178 1148 133 1182 q 275 1099 222 1114 q 411 1071 328 1085 q 555 1040 503 1056 q 643 983 607 1024 q 679 867 679 942 q 653 842 668 850 q 614 833 639 833 z "},"ए":{"ha":814,"x_min":-17,"x_max":831,"o":"m 408 -383 q 256 -356 321 -383 q 156 -282 190 -328 q 121 -183 121 -236 q 161 -105 121 -135 q 267 -75 201 -75 q 263 -150 263 -103 q 282 -241 263 -199 q 335 -308 301 -283 q 408 -333 369 -333 q 533 -288 482 -333 q 583 -167 583 -243 q 553 -76 583 -119 q 480 3 524 -33 q 361 92 436 39 q 224 197 275 154 q 136 295 172 239 q 100 417 100 351 l 100 783 l -17 783 l -17 833 l 831 833 l 831 783 l 714 783 l 714 564 q 678 428 714 492 q 576 324 643 365 q 419 275 510 283 q 534 406 496 325 q 572 576 572 486 l 572 783 l 242 783 l 242 442 q 267 349 242 390 q 331 277 293 308 q 436 201 369 246 q 565 106 517 147 q 649 2 614 64 q 683 -143 683 -60 q 646 -265 683 -210 q 545 -351 608 -319 q 408 -383 482 -383 z "},"ऐ":{"ha":814,"x_min":-17,"x_max":831,"o":"m 408 -383 q 256 -356 321 -383 q 156 -282 190 -328 q 121 -183 121 -236 q 161 -105 121 -135 q 267 -75 201 -75 q 263 -150 263 -103 q 282 -241 263 -199 q 335 -308 301 -283 q 408 -333 369 -333 q 533 -288 482 -333 q 583 -167 583 -243 q 553 -76 583 -119 q 480 3 524 -33 q 361 92 436 39 q 224 197 275 154 q 136 295 172 239 q 100 417 100 351 l 100 783 l -17 783 l -17 833 l 831 833 l 831 783 l 714 783 l 714 564 q 678 428 714 492 q 576 324 643 365 q 419 275 510 283 q 534 406 496 325 q 572 576 572 486 l 572 783 l 242 783 l 242 442 q 267 349 242 390 q 331 277 293 308 q 436 201 369 246 q 565 106 517 147 q 649 2 614 64 q 683 -143 683 -60 q 646 -265 683 -210 q 545 -351 608 -319 q 408 -383 482 -383 m 253 1267 q 375 1310 285 1310 l 679 867 q 614 833 656 833 l 253 1267 z "},"ऑ":{"ha":1476,"x_min":71,"x_max":1493,"o":"m 1493 783 l 1360 783 l 1360 0 l 1218 0 l 1218 783 l 985 783 l 985 0 l 843 0 l 843 344 q 732 319 790 319 q 676 325 710 319 q 696 233 696 282 q 651 108 696 165 q 528 17 606 50 q 360 -17 451 -17 q 206 11 272 -17 q 106 85 140 39 q 71 183 71 131 q 112 262 71 232 q 218 292 153 292 q 213 217 213 268 q 233 126 213 168 q 287 58 253 83 q 360 33 321 33 q 494 89 447 33 q 540 233 540 144 q 510 339 540 292 q 429 414 481 386 q 318 442 378 442 q 210 425 260 442 l 243 492 q 482 683 482 492 q 449 772 482 736 q 368 808 417 808 q 268 777 307 808 q 229 704 229 746 q 260 629 229 654 q 157 571 219 571 q 108 592 129 571 q 88 654 88 614 q 125 752 88 707 q 227 824 163 797 q 368 850 292 850 q 567 803 496 850 q 638 683 638 756 q 585 567 638 621 q 426 483 533 514 q 606 417 538 474 q 732 376 663 376 q 843 407 789 376 l 843 783 l 760 783 l 760 833 l 1493 833 l 1493 783 m 1392 1156 q 1286 989 1361 1044 q 1122 933 1211 933 q 951 984 1025 933 q 850 1132 876 1035 l 972 1175 q 1033 1038 985 1085 q 1146 990 1082 990 q 1278 1036 1219 990 q 1364 1175 1338 1082 l 1392 1156 z "},"ऒ":{"ha":1476,"x_min":71,"x_max":1493,"o":"m 1325 867 q 1300 842 1314 850 q 1261 833 1286 833 q 1220 955 1261 913 q 1119 1014 1179 997 q 960 1044 1060 1031 q 816 1069 871 1057 q 716 1113 761 1082 q 653 1199 671 1143 q 696 1230 671 1218 q 760 1242 721 1242 q 824 1148 779 1182 q 921 1099 868 1114 q 1057 1071 974 1085 q 1201 1040 1149 1056 q 1289 983 1253 1024 q 1325 867 1325 942 m 1493 783 l 1360 783 l 1360 0 l 1218 0 l 1218 783 l 985 783 l 985 0 l 843 0 l 843 344 q 732 319 790 319 q 676 325 710 319 q 696 233 696 282 q 651 108 696 165 q 528 17 606 50 q 360 -17 451 -17 q 206 11 272 -17 q 106 85 140 39 q 71 183 71 131 q 112 262 71 232 q 218 292 153 292 q 213 217 213 268 q 233 126 213 168 q 287 58 253 83 q 360 33 321 33 q 494 89 447 33 q 540 233 540 144 q 510 339 540 292 q 429 414 481 386 q 318 442 378 442 q 210 425 260 442 l 243 492 q 482 683 482 492 q 449 772 482 736 q 368 808 417 808 q 268 777 307 808 q 229 704 229 746 q 260 629 229 654 q 157 571 219 571 q 108 592 129 571 q 88 654 88 614 q 125 752 88 707 q 227 824 163 797 q 368 850 292 850 q 567 803 496 850 q 638 683 638 756 q 585 567 638 621 q 426 483 533 514 q 606 417 538 474 q 732 376 663 376 q 843 407 789 376 l 843 783 l 760 783 l 760 833 l 1493 833 l 1493 783 z "},"ओ":{"ha":1476,"x_min":71,"x_max":1493,"o":"m 1493 783 l 1360 783 l 1360 0 l 1218 0 l 1218 783 l 985 783 l 985 0 l 843 0 l 843 344 q 732 319 790 319 q 676 325 710 319 q 696 233 696 282 q 651 108 696 165 q 528 17 606 50 q 360 -17 451 -17 q 206 11 272 -17 q 106 85 140 39 q 71 183 71 131 q 112 262 71 232 q 218 292 153 292 q 213 217 213 268 q 233 126 213 168 q 287 58 253 83 q 360 33 321 33 q 494 89 447 33 q 540 233 540 144 q 510 339 540 292 q 429 414 481 386 q 318 442 378 442 q 210 425 260 442 l 243 492 q 482 683 482 492 q 449 772 482 736 q 368 808 417 808 q 268 777 307 808 q 229 704 229 746 q 260 629 229 654 q 157 571 219 571 q 108 592 129 571 q 88 654 88 614 q 125 752 88 707 q 227 824 163 797 q 368 850 292 850 q 567 803 496 850 q 638 683 638 756 q 585 567 638 621 q 426 483 533 514 q 606 417 538 474 q 732 376 663 376 q 843 407 789 376 l 843 783 l 760 783 l 760 833 l 1493 833 l 1493 783 m 897 1267 q 1019 1310 929 1310 l 1324 867 q 1258 833 1300 833 l 897 1267 z "},"औ":{"ha":1476,"x_min":71,"x_max":1493,"o":"m 1493 783 l 1360 783 l 1360 0 l 1218 0 l 1218 783 l 985 783 l 985 0 l 843 0 l 843 344 q 732 319 790 319 q 676 325 710 319 q 696 233 696 282 q 651 108 696 165 q 528 17 606 50 q 360 -17 451 -17 q 206 11 272 -17 q 106 85 140 39 q 71 183 71 131 q 112 262 71 232 q 218 292 153 292 q 213 217 213 268 q 233 126 213 168 q 287 58 253 83 q 360 33 321 33 q 494 89 447 33 q 540 233 540 144 q 510 339 540 292 q 429 414 481 386 q 318 442 378 442 q 210 425 260 442 l 243 492 q 482 683 482 492 q 449 772 482 736 q 368 808 417 808 q 268 777 307 808 q 229 704 229 746 q 260 629 229 654 q 157 571 219 571 q 108 592 129 571 q 88 654 88 614 q 125 752 88 707 q 227 824 163 797 q 368 850 292 850 q 567 803 496 850 q 638 683 638 756 q 585 567 638 621 q 426 483 533 514 q 606 417 538 474 q 732 376 663 376 q 843 407 789 376 l 843 783 l 760 783 l 760 833 l 1493 833 l 1493 783 m 1308 861 q 1285 842 1303 850 q 1251 833 1268 833 l 757 1040 q 765 1096 754 1065 q 808 1147 776 1126 l 1224 900 l 897 1267 q 1019 1310 929 1310 l 1308 861 z "},"ॳ":{"ha":1101,"x_min":71,"x_max":1118,"o":"m 1118 833 l 1118 783 l 985 783 l 985 0 l 843 0 l 843 344 q 732 319 790 319 q 676 325 710 319 q 696 233 696 282 q 651 108 696 165 q 528 17 606 50 q 360 -17 451 -17 q 206 11 272 -17 q 106 85 140 39 q 71 183 71 131 q 112 262 71 232 q 218 292 153 292 q 213 217 213 268 q 233 126 213 168 q 287 58 253 83 q 360 33 321 33 q 494 89 447 33 q 540 233 540 144 q 510 339 540 292 q 429 414 481 386 q 318 442 378 442 q 210 425 260 442 l 243 492 q 482 683 482 492 q 449 772 482 736 q 368 808 417 808 q 268 777 307 808 q 229 704 229 746 q 260 629 229 654 q 157 571 219 571 q 108 592 129 571 q 88 654 88 614 q 125 752 88 707 q 227 824 163 797 q 368 850 292 850 q 567 803 496 850 q 638 683 638 756 q 585 567 638 621 q 426 483 533 514 q 606 417 538 474 q 732 376 663 376 q 843 407 789 376 l 843 783 l 760 783 l 760 833 l 1118 833 m 985 833 l 843 833 l 843 1025 l 985 1025 l 985 833 z "},"ॴ":{"ha":1476,"x_min":71,"x_max":1493,"o":"m 1493 783 l 1360 783 l 1360 0 l 1218 0 l 1218 783 l 985 783 l 985 0 l 843 0 l 843 344 q 732 319 790 319 q 676 325 710 319 q 696 233 696 282 q 651 108 696 165 q 528 17 606 50 q 360 -17 451 -17 q 206 11 272 -17 q 106 85 140 39 q 71 183 71 131 q 112 262 71 232 q 218 292 153 292 q 213 217 213 268 q 233 126 213 168 q 287 58 253 83 q 360 33 321 33 q 494 89 447 33 q 540 233 540 144 q 510 339 540 292 q 429 414 481 386 q 318 442 378 442 q 210 425 260 442 l 243 492 q 482 683 482 492 q 449 772 482 736 q 368 808 417 808 q 268 777 307 808 q 229 704 229 746 q 260 629 229 654 q 157 571 219 571 q 108 592 129 571 q 88 654 88 614 q 125 752 88 707 q 227 824 163 797 q 368 850 292 850 q 567 803 496 850 q 638 683 638 756 q 585 567 638 621 q 426 483 533 514 q 606 417 538 474 q 732 376 663 376 q 843 407 789 376 l 843 783 l 760 783 l 760 833 l 1493 833 l 1493 783 m 1360 833 l 1218 833 l 1218 1025 l 1360 1025 l 1360 833 z "},"ॶ":{"ha":1042,"x_min":71,"x_max":1118,"o":"m 1118 833 l 1118 783 l 985 783 l 985 0 l 843 0 l 843 344 q 732 319 790 319 q 676 325 710 319 q 696 233 696 282 q 651 108 696 165 q 528 17 606 50 q 360 -17 451 -17 q 206 11 272 -17 q 106 85 140 39 q 71 183 71 131 q 112 262 71 232 q 218 292 153 292 q 213 217 213 268 q 233 126 213 168 q 287 58 253 83 q 360 33 321 33 q 494 89 447 33 q 540 233 540 144 q 510 339 540 292 q 429 414 481 386 q 318 442 378 442 q 210 425 260 442 l 243 492 q 482 683 482 492 q 449 772 482 736 q 368 808 417 808 q 268 777 307 808 q 229 704 229 746 q 260 629 229 654 q 157 571 219 571 q 108 592 129 571 q 88 654 88 614 q 125 752 88 707 q 227 824 163 797 q 368 850 292 850 q 567 803 496 850 q 638 683 638 756 q 585 567 638 621 q 426 483 533 514 q 606 417 538 474 q 732 376 663 376 q 843 407 789 376 l 843 783 l 760 783 l 760 833 l 1118 833 m 789 -135 q 683 -267 758 -218 q 519 -315 608 -315 q 339 -275 418 -315 q 233 -167 260 -235 l 339 -121 q 403 -221 351 -183 q 525 -258 456 -258 q 667 -222 606 -258 q 758 -121 728 -185 l 789 -135 z "},"ॷ":{"ha":1042,"x_min":71,"x_max":1118,"o":"m 1118 833 l 1118 783 l 985 783 l 985 0 l 843 0 l 843 344 q 732 319 790 319 q 676 325 710 319 q 696 233 696 282 q 651 108 696 165 q 528 17 606 50 q 360 -17 451 -17 q 206 11 272 -17 q 106 85 140 39 q 71 183 71 131 q 112 262 71 232 q 218 292 153 292 q 213 217 213 268 q 233 126 213 168 q 287 58 253 83 q 360 33 321 33 q 494 89 447 33 q 540 233 540 144 q 510 339 540 292 q 429 414 481 386 q 318 442 378 442 q 210 425 260 442 l 243 492 q 482 683 482 492 q 449 772 482 736 q 368 808 417 808 q 268 777 307 808 q 229 704 229 746 q 260 629 229 654 q 157 571 219 571 q 108 592 129 571 q 88 654 88 614 q 125 752 88 707 q 227 824 163 797 q 368 850 292 850 q 567 803 496 850 q 638 683 638 756 q 585 567 638 621 q 426 483 533 514 q 606 417 538 474 q 732 376 663 376 q 843 407 789 376 l 843 783 l 760 783 l 760 833 l 1118 833 m 789 -135 q 683 -267 758 -218 q 519 -315 608 -315 q 339 -275 418 -315 q 233 -167 260 -235 l 339 -121 q 403 -221 351 -183 q 525 -258 456 -258 q 667 -222 606 -258 q 758 -121 728 -185 l 789 -135 m 789 -368 q 683 -500 758 -451 q 519 -549 608 -549 q 339 -508 418 -549 q 233 -400 260 -468 l 339 -354 q 403 -454 351 -417 q 525 -492 456 -492 q 667 -455 606 -492 q 758 -354 728 -418 l 789 -368 z "},"ा":{"ha":375,"x_min":-17,"x_max":392,"o":"m 392 783 l 258 783 l 258 0 l 117 0 l 117 783 l -17 783 l -17 833 l 392 833 l 392 783 z "},"ि":{"ha":375,"x_min":-17,"x_max":929,"o":"m 358 1233 q 656 1142 510 1233 q 929 896 801 1051 l 879 858 q 383 1163 635 1163 q 234 1122 288 1163 q 181 1013 181 1081 q 208 928 181 969 q 279 867 235 888 l 213 833 l 392 833 l 392 783 l 258 783 l 258 0 l 117 0 l 117 783 l -17 783 l -17 833 l 126 833 q 63 918 86 869 q 39 1013 39 967 q 77 1126 39 1076 q 188 1205 115 1176 q 358 1233 260 1233 z "},"ी":{"ha":375,"x_min":-214,"x_max":392,"o":"m 392 833 l 392 783 l 258 783 l 258 0 l 117 0 l 117 783 l -17 783 l -17 833 l 154 833 l 88 867 q 159 933 132 889 q 186 1025 186 978 q 153 1127 186 1092 q 60 1163 121 1163 q -37 1128 11 1163 q -119 1020 -85 1094 q -161 833 -153 946 l -214 867 q -154 1091 -207 1010 q -37 1203 -101 1172 q 85 1233 28 1233 q 262 1176 196 1233 q 328 1025 328 1118 q 304 923 328 974 q 240 833 281 872 l 392 833 z "},"ॉ":{"ha":375,"x_min":-85,"x_max":457,"o":"m 392 783 l 258 783 l 258 0 l 117 0 l 117 783 l -17 783 l -17 833 l 392 833 l 392 783 m 457 1156 q 351 989 426 1044 q 188 933 276 933 q 16 984 90 933 q -85 1132 -58 1035 l 38 1175 q 99 1038 50 1085 q 211 990 147 990 q 344 1036 285 990 q 429 1175 403 1082 l 457 1156 z "},"ॊ":{"ha":375,"x_min":-449,"x_max":392,"o":"m 392 783 l 258 783 l 258 0 l 117 0 l 117 783 l -17 783 l -17 833 l 392 833 l 392 783 m 158 833 q 117 955 158 913 q 17 1014 76 997 q -143 1044 -43 1031 q -286 1069 -232 1057 q -385 1113 -340 1082 q -449 1199 -431 1143 q -406 1230 -431 1218 q -342 1242 -381 1242 q -278 1148 -322 1182 q -181 1099 -233 1114 q -44 1071 -128 1085 q 99 1040 47 1056 q 188 983 151 1024 q 224 867 224 942 q 198 842 213 850 q 158 833 183 833 z "},"ो":{"ha":375,"x_min":-203,"x_max":392,"o":"m 392 783 l 258 783 l 258 0 l 117 0 l 117 783 l -17 783 l -17 833 l 392 833 l 392 783 m -203 1267 q -81 1310 -171 1310 l 224 867 q 158 833 200 833 l -203 1267 z "},"ौ":{"ha":375,"x_min":-346,"x_max":392,"o":"m 392 783 l 258 783 l 258 0 l 117 0 l 117 783 l -17 783 l -17 833 l 392 833 l 392 783 m 208 861 q 185 842 203 850 q 151 833 168 833 l -343 1040 q -335 1096 -346 1065 q -292 1147 -324 1126 l 124 900 l -203 1267 q -81 1310 -171 1310 l 208 861 z "},"ऻ":{"ha":375,"x_min":-17,"x_max":392,"o":"m 392 783 l 258 783 l 258 0 l 117 0 l 117 783 l -17 783 l -17 833 l 392 833 l 392 783 m 258 833 l 117 833 l 117 1025 l 258 1025 l 258 833 z "},"क":{"ha":1276,"x_min":-17,"x_max":1293,"o":"m 760 783 l 760 588 q 963 700 835 700 q 1153 621 1081 700 q 1225 413 1225 542 q 1192 245 1225 321 q 1100 126 1160 169 q 963 83 1040 83 q 884 103 915 83 q 856 154 853 124 q 1022 222 961 154 q 1083 396 1083 290 q 1041 569 1083 496 q 921 643 999 643 q 760 522 822 643 l 760 0 l 618 0 l 618 283 q 508 138 582 192 q 340 83 433 83 q 190 119 256 83 q 89 221 125 156 q 53 371 53 286 q 90 545 53 471 q 190 660 126 619 q 333 700 254 700 q 494 662 436 700 q 553 558 553 624 q 517 485 553 513 q 424 457 481 457 q 403 600 424 542 q 333 658 382 658 q 263 622 294 658 q 213 527 231 586 q 194 404 194 468 q 243 215 194 289 q 382 140 292 140 q 522 206 458 140 q 618 375 586 271 l 618 783 l -17 783 l -17 833 l 1293 833 l 1293 783 l 760 783 z "},"ख":{"ha":1432,"x_min":-18,"x_max":1449,"o":"m 1449 783 l 1311 783 l 1311 0 l 1169 0 l 1169 283 q 1060 138 1133 192 q 893 83 986 83 q 714 138 788 83 q 589 24 654 61 q 433 -14 524 -14 q 310 22 364 -14 q 221 110 257 58 q 140 240 185 161 q 64 358 94 321 q -4 396 33 396 q 38 442 13 425 q 90 458 63 458 q 132 453 117 458 q 165 436 147 447 q 199 419 182 425 q 244 413 217 413 q 327 445 290 413 q 364 542 364 478 q 251 783 364 703 l -18 783 l -18 833 l 1449 833 l 1449 783 m 1169 783 l 361 783 q 468 685 431 747 q 506 553 506 624 q 486 464 506 508 q 422 389 467 419 q 304 358 376 358 q 225 371 263 358 q 340 169 289 238 q 430 79 392 100 q 506 58 468 58 q 590 87 544 58 q 675 172 636 115 q 606 371 606 250 q 642 545 606 471 q 742 660 678 619 q 886 700 806 700 q 1047 662 989 700 q 1106 558 1106 624 q 1069 485 1106 513 q 976 457 1033 457 q 956 599 976 540 q 886 658 935 658 q 815 622 847 658 q 765 527 783 586 q 747 404 747 468 q 795 215 747 289 q 935 140 843 140 q 1075 206 1011 140 q 1169 375 1139 271 l 1169 783 z "},"ग":{"ha":964,"x_min":-17,"x_max":981,"o":"m 981 833 l 981 783 l 847 783 l 847 0 l 706 0 l 706 783 l 392 783 q 537 628 488 719 q 586 442 586 536 q 551 288 586 358 q 449 176 517 218 q 288 133 381 133 q 151 165 208 133 q 66 251 94 197 q 38 367 38 304 q 74 497 38 438 q 172 590 110 556 q 310 625 235 625 q 331 613 324 625 q 338 583 338 601 q 259 555 296 583 q 201 478 222 526 q 179 375 179 429 q 215 226 179 281 q 300 172 250 172 q 404 239 364 172 q 444 442 444 306 q 388 655 444 558 q 246 783 332 751 l -17 783 l -17 833 l 981 833 z "},"घ":{"ha":836,"x_min":-17,"x_max":853,"o":"m 853 783 l 710 783 l 710 0 l 568 0 l 568 208 q 465 110 531 144 q 322 75 400 75 q 192 108 251 75 q 97 196 132 140 q 61 317 61 251 q 122 463 61 401 q 274 542 183 524 q 106 674 106 567 q 128 733 106 701 q 203 783 151 765 l -17 783 l -17 833 l 853 833 l 853 783 m 392 783 q 283 753 318 783 q 247 671 247 722 q 280 593 247 624 q 372 563 313 563 l 464 563 l 464 521 l 382 521 q 294 493 335 521 q 228 419 253 465 q 203 317 203 372 q 239 173 203 229 q 354 117 275 117 q 489 173 429 117 q 568 317 549 229 l 568 783 l 392 783 z "},"ङ":{"ha":865,"x_min":-17,"x_max":882,"o":"m 367 25 q 531 67 471 25 q 590 186 590 110 q 558 268 590 236 q 478 318 526 300 q 351 356 431 336 q 214 398 265 378 q 126 456 163 418 q 90 554 90 493 q 148 672 90 628 q 306 717 206 717 q 497 672 397 717 l 497 783 l -17 783 l -17 833 l 882 833 l 882 783 l 639 783 l 639 618 l 531 583 q 434 651 490 626 q 318 675 378 675 q 249 656 279 675 q 218 593 218 636 q 245 531 218 556 q 314 491 272 506 q 428 457 356 476 q 578 409 521 432 q 676 342 635 386 q 717 225 717 297 q 669 93 717 147 q 541 11 621 39 q 367 -17 461 -17 q 192 11 267 -17 q 79 85 118 39 q 40 183 40 131 q 85 262 40 232 q 201 292 129 292 q 187 257 192 279 q 182 217 182 235 q 230 79 182 133 q 367 25 278 25 m 726 571 q 778 547 756 571 q 801 494 801 524 q 778 442 801 465 q 726 418 756 418 q 673 442 696 418 q 650 494 650 465 q 673 547 650 524 q 726 571 696 571 z "},"च":{"ha":910,"x_min":-17,"x_max":926,"o":"m 926 783 l 785 783 l 785 0 l 643 0 l 643 233 q 550 130 615 176 q 400 83 485 83 q 210 149 282 83 q 139 325 139 215 q 170 446 139 389 q 256 543 201 503 q 376 596 311 583 l 17 596 l 17 638 l 575 638 l 575 596 q 428 559 496 596 q 320 458 360 522 q 281 317 281 393 q 312 181 279 238 q 422 125 344 125 q 565 191 503 125 q 643 358 626 257 l 643 783 l -17 783 l -17 833 l 926 833 l 926 783 z "},"छ":{"ha":1014,"x_min":-17,"x_max":1031,"o":"m 792 783 l 792 672 q 924 578 878 649 q 969 408 969 507 q 911 193 969 290 q 747 40 853 96 q 503 -17 642 -17 q 273 25 374 -17 q 117 137 172 67 q 61 292 61 207 q 122 433 61 369 q 272 517 183 496 q 138 582 178 540 q 97 675 97 624 q 113 735 97 706 q 156 783 128 764 l -17 783 l -17 833 l 1031 833 l 1031 783 l 792 783 m 650 783 l 294 783 q 254 742 269 772 q 239 675 239 713 q 283 585 239 621 q 419 538 326 549 l 419 496 q 267 431 318 486 q 217 292 217 376 q 256 158 217 219 q 360 61 294 97 q 503 25 426 25 q 670 63 599 25 q 782 182 742 101 q 625 237 694 194 q 517 342 556 279 q 478 475 478 404 q 524 597 478 539 q 650 675 571 656 l 650 783 m 800 228 q 828 417 828 307 q 797 578 828 515 q 719 640 767 640 q 648 591 676 640 q 619 475 619 542 q 667 324 619 394 q 800 228 715 254 z "},"ज":{"ha":1071,"x_min":-17,"x_max":1088,"o":"m 813 583 l 450 583 q 612 459 557 536 q 667 304 667 382 q 626 176 667 232 q 515 89 585 119 q 363 58 446 58 q 208 86 274 58 q 109 160 143 114 q 75 258 75 206 q 116 341 75 307 q 224 375 157 375 q 217 292 217 331 q 258 156 217 203 q 363 108 300 108 q 479 154 433 108 q 525 275 525 200 q 490 413 525 344 q 394 533 454 482 q 263 600 333 583 l 294 625 l 813 625 l 813 783 l -17 783 l -17 833 l 1088 833 l 1088 783 l 954 783 l 954 0 l 813 0 l 813 583 z "},"झ":{"ha":1142,"x_min":-17,"x_max":1158,"o":"m 1158 783 l 1025 783 l 1025 0 l 883 0 l 883 325 q 793 308 843 308 q 731 315 761 308 q 739 258 739 290 q 678 123 739 178 q 518 44 618 68 q 587 -19 549 3 q 679 -42 625 -42 q 635 -81 664 -67 q 568 -96 607 -96 q 472 -62 514 -96 q 397 28 431 -29 q 357 26 383 26 q 210 52 276 26 q 104 120 143 78 q 65 211 65 163 q 112 303 65 274 q 225 332 158 332 q 326 306 283 332 q 394 244 368 281 q 457 144 421 207 q 488 90 474 111 q 567 147 538 110 q 597 235 597 183 q 567 306 597 276 q 494 352 538 335 q 376 392 450 369 q 247 437 294 417 q 167 491 200 457 q 133 576 133 525 q 193 687 133 650 q 344 724 253 724 q 526 683 433 724 l 526 783 l -17 783 l -17 833 l 1158 833 l 1158 783 m 793 365 q 883 386 839 365 l 883 783 l 668 783 l 668 629 l 558 597 q 467 659 519 636 q 360 682 414 682 q 302 665 329 682 q 275 610 275 647 q 317 547 275 569 q 451 499 360 525 q 583 456 531 476 q 672 401 635 435 q 793 365 728 365 m 375 68 q 339 143 350 118 q 280 254 304 218 q 225 290 256 290 q 188 272 199 290 q 176 231 176 254 q 204 144 176 181 q 276 88 232 107 q 368 68 319 68 l 375 68 z "},"ञ":{"ha":1008,"x_min":-17,"x_max":1025,"o":"m 1025 833 l 1025 783 l 892 783 l 892 0 l 750 0 l 750 315 l 739 315 q 639 343 683 315 q 585 193 629 256 q 478 99 542 131 q 342 67 414 67 q 181 101 249 67 q 76 190 113 135 q 40 303 40 244 q 78 408 40 367 q 182 450 117 450 q 274 424 236 450 q 185 264 185 371 q 224 156 185 201 q 342 110 264 110 q 457 144 410 110 q 527 229 504 178 q 550 333 550 281 q 460 532 550 457 q 192 607 371 607 q 219 665 192 639 q 292 692 247 692 q 474 652 396 692 q 594 547 551 613 q 640 404 636 482 q 739 372 689 372 l 750 372 l 750 783 l -17 783 l -17 833 l 1025 833 z "},"ट":{"ha":818,"x_min":-17,"x_max":835,"o":"m 599 231 q 510 390 599 338 q 601 417 547 417 q 706 375 667 417 q 746 269 746 333 q 706 149 746 207 q 590 53 665 90 q 415 17 514 17 q 145 101 239 17 q 51 333 51 186 q 105 506 51 432 q 245 619 158 579 q 432 658 332 658 q 518 650 476 658 l 518 783 l -17 783 l -17 833 l 835 833 l 835 783 l 660 783 l 660 633 l 560 592 q 461 608 508 608 q 267 535 340 608 q 193 333 193 461 q 255 128 193 197 q 415 60 317 60 q 514 85 472 60 q 577 149 556 110 q 599 231 599 188 z "},"ठ":{"ha":851,"x_min":-17,"x_max":868,"o":"m 432 17 q 233 56 319 17 q 99 166 147 94 q 51 333 51 238 q 105 506 51 432 q 245 619 158 579 q 432 658 332 658 q 518 650 476 658 l 518 783 l -17 783 l -17 833 l 868 833 l 868 783 l 660 783 l 660 633 l 560 592 q 461 608 508 608 q 267 535 340 608 q 193 333 193 461 q 259 128 193 197 q 432 60 325 60 q 550 85 496 60 q 638 167 604 111 q 672 304 672 222 q 610 467 672 404 q 456 535 549 531 q 589 576 514 576 q 703 548 651 576 q 784 466 754 519 q 814 342 814 413 q 757 164 814 238 q 612 53 700 90 q 432 17 524 17 z "},"ड":{"ha":746,"x_min":-17,"x_max":763,"o":"m 367 25 q 531 67 471 25 q 590 186 590 110 q 558 268 590 236 q 478 318 526 300 q 351 356 431 336 q 214 398 265 378 q 126 456 163 418 q 90 554 90 493 q 148 672 90 628 q 306 717 206 717 q 497 672 397 717 l 497 783 l -17 783 l -17 833 l 763 833 l 763 783 l 639 783 l 639 618 l 531 583 q 434 651 490 626 q 318 675 378 675 q 249 656 279 675 q 218 593 218 636 q 245 531 218 556 q 314 491 272 506 q 428 457 356 476 q 578 409 521 432 q 676 342 635 386 q 717 225 717 297 q 669 93 717 147 q 541 11 621 39 q 367 -17 461 -17 q 192 11 267 -17 q 79 85 118 39 q 40 183 40 131 q 85 262 40 232 q 201 292 129 292 q 187 257 192 279 q 182 217 182 235 q 230 79 182 133 q 367 25 278 25 z "},"ढ":{"ha":818,"x_min":-17,"x_max":835,"o":"m 561 468 q 723 417 663 468 q 783 275 783 365 q 747 153 783 213 q 628 56 710 94 q 422 17 547 17 q 147 101 243 17 q 51 333 51 186 q 105 504 51 431 q 246 618 158 578 q 432 658 333 658 q 518 650 476 658 l 518 783 l -17 783 l -17 833 l 835 833 l 835 783 l 660 783 l 660 633 l 560 592 q 461 608 508 608 q 267 534 340 608 q 193 333 193 460 q 256 128 193 197 q 422 58 318 58 q 588 115 521 58 q 656 288 656 171 q 625 383 656 344 q 557 422 594 422 q 494 390 518 422 q 469 317 469 357 q 487 227 469 263 q 563 182 504 192 q 543 158 563 168 q 497 147 524 147 q 385 192 422 147 q 349 301 349 238 q 374 383 349 344 q 447 444 399 421 q 561 468 494 468 z "},"ण":{"ha":1064,"x_min":-17,"x_max":1081,"o":"m 1081 783 l 947 783 l 947 0 l 806 0 l 806 783 l 531 783 q 651 633 606 715 q 697 467 697 551 q 653 319 697 383 q 535 219 610 254 q 372 183 461 183 q 210 219 283 183 q 94 319 136 254 q 51 467 51 383 q 90 637 51 554 q 197 783 129 719 l -17 783 l -17 833 l 1081 833 l 1081 783 m 293 783 q 219 663 246 733 q 193 508 193 593 q 215 359 193 424 q 278 260 238 294 q 368 225 318 225 q 504 304 453 225 q 556 517 556 383 q 435 783 556 665 l 293 783 z "},"त":{"ha":804,"x_min":-17,"x_max":821,"o":"m 821 783 l 688 783 l 688 0 l 546 0 l 546 514 q 371 606 481 606 q 249 549 296 606 q 201 372 201 493 q 229 197 201 271 q 294 86 257 124 q 360 49 332 49 q 333 7 353 22 q 279 -8 313 -8 q 167 40 221 -8 q 79 172 113 88 q 46 357 46 256 q 80 510 46 442 q 182 618 114 578 q 350 658 250 658 q 457 644 404 658 q 546 600 510 631 l 546 783 l -17 783 l -17 833 l 821 833 l 821 783 z "},"थ":{"ha":888,"x_min":50,"x_max":913,"o":"m 629 263 q 510 154 578 192 q 365 117 443 117 q 216 153 282 117 q 113 251 150 190 q 75 383 75 313 q 102 444 75 426 q 189 476 129 461 q 285 508 247 490 q 351 573 324 526 q 379 706 379 619 q 351 797 379 761 q 275 833 324 833 q 201 796 232 833 q 171 706 171 758 q 198 610 171 656 q 278 556 225 565 q 271 530 278 540 q 251 519 264 519 q 144 544 190 519 q 74 609 99 569 q 50 692 50 649 q 81 784 50 742 q 164 851 113 826 q 275 875 215 875 q 388 851 336 875 q 469 786 439 828 q 500 692 500 744 q 438 542 500 601 q 274 453 376 482 q 233 431 244 444 q 219 404 221 417 q 217 371 217 392 q 261 220 217 282 q 379 158 306 158 q 492 187 438 158 q 583 260 546 215 q 629 350 619 304 l 629 783 l 550 783 l 550 833 l 913 833 l 913 783 l 771 783 l 771 0 l 629 0 l 629 263 z "},"द":{"ha":818,"x_min":-17,"x_max":835,"o":"m 461 608 q 267 534 340 608 q 193 333 193 460 q 244 143 193 211 q 383 63 296 75 q 340 246 340 158 q 372 369 340 319 q 455 444 404 419 q 564 468 506 468 q 723 416 663 468 q 783 275 783 364 q 723 122 783 193 q 539 28 663 51 q 635 -56 579 -26 q 747 -86 692 -86 q 724 -132 747 -114 q 653 -150 701 -150 q 519 -104 583 -150 q 408 17 454 -58 q 144 105 236 19 q 51 333 51 190 q 105 504 51 431 q 246 618 158 578 q 432 658 333 658 q 518 650 476 658 l 518 783 l -17 783 l -17 833 l 835 833 l 835 783 l 660 783 l 660 633 l 560 592 q 461 608 508 608 m 568 426 q 497 385 526 426 q 468 263 468 344 q 511 72 468 156 q 616 147 576 93 q 656 288 656 200 q 629 387 656 347 q 568 426 603 426 z "},"ध":{"ha":917,"x_min":104,"x_max":933,"o":"m 411 733 q 391 806 411 774 q 332 838 371 838 q 265 799 288 838 q 243 700 243 761 q 279 592 243 639 q 378 521 315 546 q 517 496 440 496 l 517 454 q 383 426 446 454 q 283 356 321 399 q 246 271 246 313 q 291 161 246 201 q 404 121 336 121 q 547 157 481 121 q 658 258 613 193 l 658 783 l 571 783 l 571 833 l 933 833 l 933 783 l 800 783 l 800 0 l 658 0 l 658 192 q 528 92 601 125 q 371 58 454 58 q 181 111 257 58 q 104 254 104 164 q 172 393 104 333 q 338 467 240 453 q 177 551 238 490 q 117 700 117 613 q 145 792 117 750 q 222 858 174 833 q 325 883 269 883 q 477 841 422 883 q 532 733 532 799 q 484 613 532 664 q 344 561 436 561 q 326 572 332 561 q 319 597 319 582 q 392 644 372 607 q 411 733 411 682 z "},"न":{"ha":911,"x_min":-17,"x_max":928,"o":"m 928 783 l 794 783 l 794 0 l 653 0 l 653 536 q 414 611 528 611 q 231 534 301 610 q 161 321 161 458 q 176 228 161 278 q 221 146 192 179 q 290 113 250 113 q 378 158 350 113 q 406 258 406 204 q 362 401 406 349 q 253 453 318 453 q 361 504 299 504 q 494 451 442 504 q 547 315 547 397 q 516 200 547 257 q 426 107 485 143 q 290 71 368 71 q 146 108 207 71 q 52 206 85 144 q 19 338 19 268 q 72 508 19 436 q 210 616 125 579 q 393 653 296 653 q 530 636 463 653 q 653 588 597 619 l 653 783 l -17 783 l -17 833 l 928 833 l 928 783 z "},"ऩ":{"ha":911,"x_min":-17,"x_max":928,"o":"m 928 783 l 794 783 l 794 0 l 653 0 l 653 536 q 414 611 528 611 q 231 534 301 610 q 161 321 161 458 q 176 228 161 278 q 221 146 192 179 q 290 113 250 113 q 378 158 350 113 q 406 258 406 204 q 362 401 406 349 q 253 453 318 453 q 361 504 299 504 q 494 451 442 504 q 547 315 547 397 q 516 200 547 257 q 426 107 485 143 q 290 71 368 71 q 146 108 207 71 q 52 206 85 144 q 19 338 19 268 q 72 508 19 436 q 210 616 125 579 q 393 653 296 653 q 530 636 463 653 q 653 588 597 619 l 653 783 l -17 783 l -17 833 l 928 833 l 928 783 m 278 1 q 338 -23 313 1 q 363 -83 363 -47 q 338 -144 363 -119 q 278 -168 313 -168 q 217 -144 242 -168 q 193 -83 193 -119 q 217 -23 193 -47 q 278 1 242 1 z "},"प":{"ha":842,"x_min":-17,"x_max":858,"o":"m 858 783 l 725 783 l 725 0 l 583 0 l 583 304 q 533 226 569 264 q 442 165 496 189 q 329 142 389 142 q 153 210 214 142 q 92 388 92 278 l 92 783 l -17 783 l -17 833 l 858 833 l 858 783 m 233 783 l 233 388 q 265 251 233 297 q 358 204 297 204 q 499 265 439 204 q 583 421 560 326 l 583 783 l 233 783 z "},"फ":{"ha":1243,"x_min":-17,"x_max":1260,"o":"m 725 783 l 725 600 q 925 700 799 700 q 1064 664 1004 700 q 1157 563 1124 628 q 1190 413 1190 497 q 1158 244 1190 319 q 1066 126 1125 169 q 928 83 1007 83 q 849 103 881 83 q 821 154 818 124 q 988 222 926 154 q 1049 396 1049 290 q 1006 569 1049 496 q 886 643 964 643 q 725 526 788 643 l 725 0 l 583 0 l 583 304 q 533 226 569 264 q 442 165 496 189 q 329 142 389 142 q 153 210 214 142 q 92 388 92 278 l 92 783 l -17 783 l -17 833 l 1260 833 l 1260 783 l 725 783 m 583 783 l 233 783 l 233 388 q 265 251 233 297 q 358 204 297 204 q 499 268 439 204 q 583 429 560 332 l 583 783 z "},"ब":{"ha":881,"x_min":-17,"x_max":897,"o":"m 897 833 l 897 783 l 760 783 l 760 0 l 618 0 l 618 283 q 508 138 582 192 q 342 83 435 83 q 192 119 257 83 q 90 221 126 156 q 54 371 54 286 q 90 545 54 471 q 190 660 126 619 q 335 700 254 700 q 495 662 438 700 q 553 558 553 624 q 517 485 553 513 q 425 457 482 457 q 404 599 425 540 q 335 658 383 658 q 247 600 285 658 l 507 190 q 618 375 585 260 l 618 783 l -17 783 l -17 833 l 897 833 m 196 404 q 244 215 196 289 q 383 140 292 140 q 460 160 421 140 l 219 543 q 196 404 196 479 z "},"भ":{"ha":961,"x_min":28,"x_max":978,"o":"m 978 833 l 978 783 l 844 783 l 844 0 l 703 0 l 703 463 l 535 463 q 501 286 535 369 q 403 151 468 203 q 246 100 338 100 q 135 125 185 100 q 56 192 85 150 q 28 288 28 235 q 110 447 28 390 q 343 504 193 504 l 394 504 l 394 692 q 365 811 394 772 q 293 850 335 850 q 226 820 247 850 q 206 742 206 790 q 231 672 206 700 q 293 646 257 643 q 188 606 244 606 q 112 640 146 606 q 78 718 78 675 q 139 849 78 806 q 293 892 200 892 q 416 863 360 892 q 504 785 472 835 q 536 675 536 735 l 536 504 l 703 504 l 703 783 l 600 783 l 600 833 l 978 833 m 394 463 l 343 463 q 210 416 250 463 q 169 292 169 369 q 261 142 169 142 q 360 215 326 142 q 394 389 394 289 l 394 463 z "},"म":{"ha":974,"x_min":-17,"x_max":990,"o":"m 990 833 l 990 783 l 857 783 l 857 0 l 715 0 l 715 463 l 546 463 q 513 286 546 369 q 414 151 479 203 q 256 100 349 100 q 145 125 194 100 q 68 192 96 150 q 40 288 40 235 q 123 447 40 390 q 356 504 206 504 l 396 504 q 344 674 381 601 q 263 783 308 746 l -17 783 l -17 833 l 990 833 m 715 783 l 383 783 q 494 670 454 744 q 543 504 535 596 l 715 504 l 715 783 m 406 389 q 401 463 406 428 l 356 463 q 182 292 182 463 q 274 142 182 142 q 372 212 338 142 q 406 389 406 282 z "},"य":{"ha":863,"x_min":-17,"x_max":879,"o":"m 879 783 l 738 783 l 738 0 l 596 0 l 596 250 q 485 151 549 186 q 351 117 422 117 q 193 153 264 117 q 81 250 122 189 q 40 383 40 311 q 66 456 40 428 q 147 483 92 483 q 289 522 240 483 q 338 629 338 560 q 254 783 338 744 l -17 783 l -17 833 l 879 833 l 879 783 m 364 783 q 447 724 414 767 q 479 629 479 682 q 445 535 479 578 q 353 467 411 492 q 226 442 294 442 q 188 422 194 442 q 182 371 182 403 q 233 221 182 283 q 367 158 283 158 q 468 185 418 158 q 552 254 518 213 q 596 338 586 296 l 596 783 l 364 783 z "},"र":{"ha":551,"x_min":-18,"x_max":568,"o":"m 568 783 l 361 783 q 468 685 431 747 q 506 553 506 624 q 486 464 506 508 q 422 389 467 419 q 304 358 376 358 q 225 371 263 358 q 345 167 296 232 q 428 88 394 103 q 506 72 461 72 q 451 8 486 29 q 375 -14 415 -14 q 294 19 332 -14 q 225 97 256 51 q 151 218 194 142 q 66 352 100 308 q -4 396 32 396 q 38 442 13 425 q 90 458 63 458 q 132 453 117 458 q 165 436 147 447 q 199 419 182 425 q 244 413 217 413 q 327 445 290 413 q 364 542 364 478 q 251 783 364 703 l -18 783 l -18 833 l 568 833 l 568 783 z "},"ऱ":{"ha":551,"x_min":-18,"x_max":568,"o":"m 568 783 l 361 783 q 468 685 431 747 q 506 553 506 624 q 486 464 506 508 q 422 389 467 419 q 304 358 376 358 q 225 371 263 358 q 345 167 296 232 q 428 88 394 103 q 506 72 461 72 q 451 8 486 29 q 375 -14 415 -14 q 294 19 332 -14 q 225 97 256 51 q 151 218 194 142 q 66 352 100 308 q -4 396 32 396 q 38 442 13 425 q 90 458 63 458 q 132 453 117 458 q 165 436 147 447 q 199 419 182 425 q 244 413 217 413 q 327 445 290 413 q 364 542 364 478 q 251 783 364 703 l -18 783 l -18 833 l 568 833 l 568 783 m 107 85 q 167 60 142 85 q 192 0 192 36 q 167 -60 192 -36 q 107 -85 142 -85 q 47 -60 71 -85 q 22 0 22 -36 q 47 60 22 36 q 107 85 71 85 z "},"ल":{"ha":1006,"x_min":-17,"x_max":1022,"o":"m 1022 833 l 1022 783 l 889 783 l 889 0 l 747 0 l 747 606 q 697 617 722 617 q 592 553 632 617 q 551 392 553 489 l 476 392 q 435 553 474 489 q 331 617 396 617 q 256 576 286 617 q 211 480 225 536 q 197 375 197 424 q 262 153 197 232 q 456 75 326 75 q 418 17 451 42 q 325 -8 385 -8 q 187 35 249 -8 q 90 156 125 79 q 56 329 56 233 q 89 496 56 421 q 181 615 122 571 q 314 658 240 658 q 430 629 379 658 q 514 517 481 600 q 598 629 547 600 q 714 658 649 658 q 747 654 731 658 l 747 783 l -17 783 l -17 833 l 1022 833 z "},"ळ":{"ha":1126,"x_min":-17,"x_max":1143,"o":"m 908 783 l 908 649 q 1020 535 976 613 q 1064 350 1064 458 q 1024 175 1064 256 q 913 47 983 94 q 761 0 843 0 q 645 31 699 0 q 564 115 592 63 q 456 29 518 58 q 326 0 393 0 q 201 39 260 0 q 105 152 142 78 q 68 325 68 226 q 108 500 68 419 q 217 628 149 581 q 368 675 286 675 q 483 644 431 675 q 565 561 536 614 q 656 637 604 608 q 767 672 708 665 l 767 783 l -17 783 l -17 833 l 1143 833 l 1143 783 l 908 783 m 390 65 q 549 151 465 65 q 473 461 500 367 q 419 594 446 556 q 351 633 393 633 q 281 602 314 633 q 229 517 249 571 q 210 400 210 464 q 256 159 210 253 q 390 65 301 65 m 781 42 q 851 74 818 42 q 903 159 883 106 q 922 275 922 213 q 874 516 922 421 q 739 611 826 611 q 582 525 671 611 q 588 504 585 511 l 586 497 q 658 206 632 297 q 712 78 685 115 q 781 42 739 42 z "},"ऴ":{"ha":1126,"x_min":-17,"x_max":1143,"o":"m 908 783 l 908 649 q 1020 535 976 613 q 1064 350 1064 458 q 1024 175 1064 256 q 913 47 983 94 q 761 0 843 0 q 645 31 699 0 q 564 115 592 63 q 456 29 518 58 q 326 0 393 0 q 201 39 260 0 q 105 152 142 78 q 68 325 68 226 q 108 500 68 419 q 217 628 149 581 q 368 675 286 675 q 483 644 431 675 q 565 561 536 614 q 656 637 604 608 q 767 672 708 665 l 767 783 l -17 783 l -17 833 l 1143 833 l 1143 783 l 908 783 m 390 65 q 549 151 465 65 q 473 461 500 367 q 419 594 446 556 q 351 633 393 633 q 281 602 314 633 q 229 517 249 571 q 210 400 210 464 q 256 159 210 253 q 390 65 301 65 m 781 42 q 851 74 818 42 q 903 159 883 106 q 922 275 922 213 q 874 516 922 421 q 739 611 826 611 q 582 525 671 611 q 588 504 585 511 l 586 497 q 658 206 632 297 q 712 78 685 115 q 781 42 739 42 m 582 -49 q 642 -73 617 -49 q 667 -133 667 -97 q 642 -194 667 -169 q 582 -218 617 -218 q 522 -194 546 -218 q 497 -133 497 -169 q 522 -73 497 -97 q 582 -49 546 -49 z "},"व":{"ha":881,"x_min":-17,"x_max":897,"o":"m 618 283 q 508 138 582 192 q 342 83 435 83 q 192 119 257 83 q 90 221 126 156 q 54 371 54 286 q 90 545 54 471 q 190 660 126 619 q 335 700 254 700 q 495 662 438 700 q 553 558 553 624 q 517 485 553 513 q 425 457 482 457 q 404 599 425 540 q 335 658 383 658 q 264 622 296 658 q 214 527 232 586 q 196 404 196 468 q 244 215 196 289 q 383 140 292 140 q 523 206 458 140 q 618 375 588 271 l 618 783 l -17 783 l -17 833 l 897 833 l 897 783 l 760 783 l 760 0 l 618 0 l 618 283 z "},"श":{"ha":1060,"x_min":35,"x_max":1076,"o":"m 378 883 q 587 814 506 883 q 668 625 668 744 q 606 456 668 533 q 438 333 544 378 q 207 288 332 288 q 363 156 301 201 q 475 92 424 111 q 586 72 526 72 q 533 8 567 31 q 463 -14 499 -14 q 345 28 408 -14 q 193 146 282 69 q 95 224 132 199 q 35 250 58 250 q 62 306 35 282 q 147 329 89 329 q 329 365 242 329 q 472 466 417 400 q 526 617 526 532 q 482 783 526 729 q 378 836 438 836 q 289 792 326 836 q 251 667 251 747 q 302 534 251 589 q 426 479 353 479 q 390 450 421 463 q 331 438 360 438 q 218 466 268 438 q 139 543 168 494 q 110 650 110 592 q 145 774 110 721 q 242 855 181 826 q 378 883 303 883 m 1076 783 l 943 783 l 943 0 l 801 0 l 801 783 l 685 783 l 685 833 l 1076 833 l 1076 783 z "},"ष":{"ha":842,"x_min":-17,"x_max":858,"o":"m 858 833 l 858 783 l 725 783 l 725 0 l 583 0 l 583 304 q 533 226 569 264 q 442 165 496 189 q 329 142 389 142 q 153 210 214 142 q 92 388 92 278 l 92 783 l -17 783 l -17 833 l 858 833 m 233 783 l 233 781 l 582 419 q 582 420 582 419 q 583 421 582 421 l 583 783 l 233 783 m 358 204 q 476 246 424 204 q 561 357 529 288 l 233 699 l 233 388 q 265 251 233 297 q 358 204 297 204 z "},"स":{"ha":926,"x_min":-18,"x_max":943,"o":"m 943 783 l 810 783 l 810 0 l 668 0 l 668 350 q 574 340 622 340 q 397 376 472 340 q 304 358 357 358 q 225 371 263 358 q 345 167 296 232 q 428 88 394 103 q 506 72 461 72 q 451 8 486 29 q 375 -14 415 -14 q 294 19 332 -14 q 225 97 256 51 q 151 218 194 142 q 66 352 100 308 q -4 396 32 396 q 38 442 13 425 q 90 458 63 458 q 132 453 117 458 q 165 436 147 447 q 199 419 182 425 q 244 413 217 413 q 327 445 290 413 q 364 542 364 478 q 251 783 364 703 l -18 783 l -18 833 l 943 833 l 943 783 m 574 397 q 668 410 625 397 l 668 783 l 361 783 q 468 685 431 747 q 506 553 506 624 q 493 481 506 517 q 454 417 481 444 q 574 397 508 397 z "},"ह":{"ha":779,"x_min":-17,"x_max":796,"o":"m 392 -83 q 221 -47 297 -83 q 101 53 144 -10 q 58 192 58 117 q 101 322 58 258 q 217 429 143 386 q 128 489 158 451 q 97 568 97 526 q 124 641 97 607 q 205 696 151 675 q 335 717 258 717 q 526 672 426 717 l 526 783 l -17 783 l -17 833 l 796 833 l 796 783 l 668 783 l 668 618 l 560 583 q 463 651 518 626 q 347 675 407 675 q 267 647 296 675 q 239 578 239 619 q 253 519 239 550 q 292 467 267 489 q 454 492 358 492 q 596 464 531 492 q 699 388 661 436 q 738 283 738 340 q 715 201 738 239 q 656 140 693 163 q 575 117 618 117 q 483 150 511 117 q 565 202 533 165 q 596 283 596 239 q 571 367 596 329 q 503 428 546 406 q 408 450 460 450 q 303 420 351 450 q 228 339 256 390 q 200 225 200 288 q 492 -42 200 -42 l 692 -42 l 642 -83 l 392 -83 z "},"क़":{"ha":1276,"x_min":-17,"x_max":1293,"o":"m 760 783 l 760 588 q 963 700 835 700 q 1153 621 1081 700 q 1225 413 1225 542 q 1192 245 1225 321 q 1100 126 1160 169 q 963 83 1040 83 q 884 103 915 83 q 856 154 853 124 q 1022 222 961 154 q 1083 396 1083 290 q 1041 569 1083 496 q 921 643 999 643 q 760 522 822 643 l 760 0 l 618 0 l 618 283 q 508 138 582 192 q 340 83 433 83 q 190 119 256 83 q 89 221 125 156 q 53 371 53 286 q 90 545 53 471 q 190 660 126 619 q 333 700 254 700 q 494 662 436 700 q 553 558 553 624 q 517 485 553 513 q 424 457 481 457 q 403 600 424 542 q 333 658 382 658 q 263 622 294 658 q 213 527 231 586 q 194 404 194 468 q 243 215 194 289 q 382 140 292 140 q 522 206 458 140 q 618 375 586 271 l 618 783 l -17 783 l -17 833 l 1293 833 l 1293 783 l 760 783 m 324 1 q 383 -23 358 1 q 408 -83 408 -47 q 383 -144 408 -119 q 324 -168 358 -168 q 263 -144 288 -168 q 239 -83 239 -119 q 263 -23 239 -47 q 324 1 288 1 z "},"ख़":{"ha":1432,"x_min":-18,"x_max":1449,"o":"m 1449 783 l 1311 783 l 1311 0 l 1169 0 l 1169 283 q 1060 138 1133 192 q 893 83 986 83 q 714 138 788 83 q 589 24 654 61 q 433 -14 524 -14 q 310 22 364 -14 q 221 110 257 58 q 140 240 185 161 q 64 358 94 321 q -4 396 33 396 q 38 442 13 425 q 90 458 63 458 q 132 453 117 458 q 165 436 147 447 q 199 419 182 425 q 244 413 217 413 q 327 445 290 413 q 364 542 364 478 q 251 783 364 703 l -18 783 l -18 833 l 1449 833 l 1449 783 m 1169 783 l 361 783 q 468 685 431 747 q 506 553 506 624 q 486 464 506 508 q 422 389 467 419 q 304 358 376 358 q 225 371 263 358 q 340 169 289 238 q 430 79 392 100 q 506 58 468 58 q 590 87 544 58 q 675 172 636 115 q 606 371 606 250 q 642 545 606 471 q 742 660 678 619 q 886 700 806 700 q 1047 662 989 700 q 1106 558 1106 624 q 1069 485 1106 513 q 976 457 1033 457 q 956 599 976 540 q 886 658 935 658 q 815 622 847 658 q 765 527 783 586 q 747 404 747 468 q 795 215 747 289 q 935 140 843 140 q 1075 206 1011 140 q 1169 375 1139 271 l 1169 783 m 193 1 q 253 -23 228 1 q 278 -83 278 -47 q 253 -144 278 -119 q 193 -168 228 -168 q 133 -144 157 -168 q 108 -83 108 -119 q 133 -23 108 -47 q 193 1 157 1 z "},"ग़":{"ha":964,"x_min":-17,"x_max":981,"o":"m 322 0 q 382 -24 357 0 q 407 -85 407 -49 q 382 -145 407 -121 q 322 -169 357 -169 q 262 -145 286 -169 q 238 -85 238 -121 q 262 -24 238 -49 q 322 0 286 0 m 981 833 l 981 783 l 847 783 l 847 0 l 706 0 l 706 783 l 392 783 q 537 628 488 719 q 586 442 586 536 q 551 288 586 358 q 449 176 517 218 q 288 133 381 133 q 151 165 208 133 q 66 251 94 197 q 38 367 38 304 q 74 497 38 438 q 172 590 110 556 q 310 625 235 625 q 331 613 324 625 q 338 583 338 601 q 259 555 296 583 q 201 478 222 526 q 179 375 179 429 q 215 226 179 281 q 300 172 250 172 q 404 239 364 172 q 444 442 444 306 q 388 655 444 558 q 246 783 332 751 l -17 783 l -17 833 l 981 833 z "},"ज़":{"ha":1071,"x_min":-17,"x_max":1088,"o":"m 813 583 l 450 583 q 612 459 557 536 q 667 304 667 382 q 626 176 667 232 q 515 89 585 119 q 363 58 446 58 q 208 86 274 58 q 109 160 143 114 q 75 258 75 206 q 116 341 75 307 q 224 375 157 375 q 217 292 217 331 q 258 156 217 203 q 363 108 300 108 q 479 154 433 108 q 525 275 525 200 q 490 413 525 344 q 394 533 454 482 q 263 600 333 583 l 294 625 l 813 625 l 813 783 l -17 783 l -17 833 l 1088 833 l 1088 783 l 954 783 l 954 0 l 813 0 l 813 583 m 354 1 q 414 -23 389 1 q 439 -83 439 -47 q 414 -144 439 -119 q 354 -168 389 -168 q 294 -144 318 -168 q 269 -83 269 -119 q 294 -23 269 -47 q 354 1 318 1 z "},"ड़":{"ha":746,"x_min":-17,"x_max":763,"o":"m 367 25 q 531 67 471 25 q 590 186 590 110 q 558 268 590 236 q 478 318 526 300 q 351 356 431 336 q 214 398 265 378 q 126 456 163 418 q 90 554 90 493 q 148 672 90 628 q 306 717 206 717 q 497 672 397 717 l 497 783 l -17 783 l -17 833 l 763 833 l 763 783 l 639 783 l 639 618 l 531 583 q 434 651 490 626 q 318 675 378 675 q 249 656 279 675 q 218 593 218 636 q 245 531 218 556 q 314 491 272 506 q 428 457 356 476 q 578 409 521 432 q 676 342 635 386 q 717 225 717 297 q 669 93 717 147 q 541 11 621 39 q 367 -17 461 -17 q 192 11 267 -17 q 79 85 118 39 q 40 183 40 131 q 85 262 40 232 q 201 292 129 292 q 187 257 192 279 q 182 217 182 235 q 230 79 182 133 q 367 25 278 25 m 379 -82 q 439 -106 414 -82 q 464 -167 464 -131 q 439 -227 464 -203 q 379 -251 414 -251 q 319 -227 343 -251 q 294 -167 294 -203 q 319 -106 294 -131 q 379 -82 343 -82 z "},"ढ़":{"ha":818,"x_min":-17,"x_max":835,"o":"m 561 468 q 723 417 663 468 q 783 275 783 365 q 747 153 783 213 q 628 56 710 94 q 422 17 547 17 q 147 101 243 17 q 51 333 51 186 q 105 504 51 431 q 246 618 158 578 q 432 658 333 658 q 518 650 476 658 l 518 783 l -17 783 l -17 833 l 835 833 l 835 783 l 660 783 l 660 633 l 560 592 q 461 608 508 608 q 267 534 340 608 q 193 333 193 460 q 256 128 193 197 q 422 58 318 58 q 588 115 521 58 q 656 288 656 171 q 625 383 656 344 q 557 422 594 422 q 494 390 518 422 q 469 317 469 357 q 487 227 469 263 q 563 182 504 192 q 543 158 563 168 q 497 147 524 147 q 385 192 422 147 q 349 301 349 238 q 374 383 349 344 q 447 444 399 421 q 561 468 494 468 m 432 -82 q 492 -106 467 -82 q 517 -167 517 -131 q 492 -227 517 -203 q 432 -251 467 -251 q 372 -227 396 -251 q 347 -167 347 -203 q 372 -106 347 -131 q 432 -82 396 -82 z "},"फ़":{"ha":1243,"x_min":-17,"x_max":1260,"o":"m 725 783 l 725 600 q 925 700 799 700 q 1064 664 1004 700 q 1157 563 1124 628 q 1190 413 1190 497 q 1158 244 1190 319 q 1066 126 1125 169 q 928 83 1007 83 q 849 103 881 83 q 821 154 818 124 q 988 222 926 154 q 1049 396 1049 290 q 1006 569 1049 496 q 886 643 964 643 q 725 526 788 643 l 725 0 l 583 0 l 583 304 q 533 226 569 264 q 442 165 496 189 q 329 142 389 142 q 153 210 214 142 q 92 388 92 278 l 92 783 l -17 783 l -17 833 l 1260 833 l 1260 783 l 725 783 m 583 783 l 233 783 l 233 388 q 265 251 233 297 q 358 204 297 204 q 499 268 439 204 q 583 429 560 332 l 583 783 m 283 1 q 343 -23 318 1 q 368 -83 368 -47 q 343 -144 368 -119 q 283 -168 318 -168 q 223 -144 247 -168 q 199 -83 199 -119 q 223 -23 199 -47 q 283 1 247 1 z "},"य़":{"ha":863,"x_min":-17,"x_max":879,"o":"m 192 1 q 251 -23 226 1 q 276 -83 276 -47 q 251 -144 276 -119 q 192 -168 226 -168 q 131 -144 156 -168 q 107 -83 107 -119 q 131 -23 107 -47 q 192 1 156 1 m 879 783 l 738 783 l 738 0 l 596 0 l 596 250 q 485 151 549 186 q 351 117 422 117 q 193 153 264 117 q 81 250 122 189 q 40 383 40 311 q 66 456 40 428 q 147 483 92 483 q 289 522 240 483 q 338 629 338 560 q 254 783 338 744 l -17 783 l -17 833 l 879 833 l 879 783 m 364 783 q 447 724 414 767 q 479 629 479 682 q 445 535 479 578 q 353 467 411 492 q 226 442 294 442 q 188 422 194 442 q 182 371 182 403 q 233 221 182 283 q 367 158 283 158 q 468 185 418 158 q 552 254 518 213 q 596 338 586 296 l 596 783 l 364 783 z "},"ॹ":{"ha":1071,"x_min":-17,"x_max":1088,"o":"m 813 583 l 450 583 q 612 459 557 536 q 667 304 667 382 q 626 176 667 232 q 515 89 585 119 q 363 58 446 58 q 208 86 274 58 q 109 160 143 114 q 75 258 75 206 q 116 341 75 307 q 224 375 157 375 q 217 292 217 331 q 258 156 217 203 q 363 108 300 108 q 479 154 433 108 q 525 275 525 200 q 490 413 525 344 q 394 533 454 482 q 263 600 333 583 l 294 625 l 813 625 l 813 783 l -17 783 l -17 833 l 1088 833 l 1088 783 l 954 783 l 954 0 l 813 0 l 813 583 m 217 1 q 276 -23 251 1 q 301 -83 301 -47 q 276 -144 301 -119 q 217 -168 251 -168 q 156 -144 181 -168 q 132 -83 132 -119 q 156 -23 132 -47 q 217 1 181 1 m 517 1 q 576 -23 551 1 q 601 -83 601 -47 q 576 -144 601 -119 q 517 -168 551 -168 q 456 -144 481 -168 q 432 -83 432 -119 q 456 -23 432 -47 q 517 1 481 1 m 367 -157 q 426 -181 401 -157 q 451 -242 451 -206 q 426 -302 451 -278 q 367 -326 401 -326 q 306 -302 331 -326 q 282 -242 282 -278 q 306 -181 282 -206 q 367 -157 331 -157 z "},"ॺ":{"ha":863,"x_min":-17,"x_max":879,"o":"m 879 833 l 879 783 l 738 783 l 738 0 l 596 0 l 596 250 q 485 151 549 186 q 351 117 422 117 q 193 153 264 117 q 81 250 122 189 q 40 383 40 311 q 66 456 40 428 q 147 483 92 483 q 289 522 240 483 q 338 629 338 560 q 254 783 338 744 l -17 783 l -17 833 l 879 833 m 364 783 q 447 724 414 767 q 479 629 479 682 q 461 558 479 592 q 410 500 443 525 l 594 338 l 596 338 l 596 783 l 364 783 m 367 158 q 480 192 425 158 q 568 275 535 225 l 353 467 q 226 442 292 442 q 188 422 194 442 q 182 371 182 403 q 233 221 182 283 q 367 158 283 158 z "},"ॻ":{"ha":964,"x_min":-17,"x_max":981,"o":"m 981 833 l 981 783 l 847 783 l 847 0 l 706 0 l 706 783 l 392 783 q 537 628 488 719 q 586 442 586 536 q 551 288 586 358 q 449 176 517 218 q 288 133 381 133 q 151 165 208 133 q 66 251 94 197 q 38 367 38 304 q 74 497 38 438 q 172 590 110 556 q 310 625 235 625 q 331 613 324 625 q 338 583 338 601 q 259 555 296 583 q 201 478 222 526 q 179 375 179 429 q 215 226 179 281 q 300 172 250 172 q 404 239 364 172 q 444 442 444 306 q 388 655 444 558 q 246 783 332 751 l -17 783 l -17 833 l 981 833 m 56 -58 l 572 -58 l 572 -125 l 56 -125 l 56 -58 z "},"ॼ":{"ha":1071,"x_min":-17,"x_max":1088,"o":"m 813 583 l 450 583 q 612 459 557 536 q 667 304 667 382 q 626 176 667 232 q 515 89 585 119 q 363 58 446 58 q 208 86 274 58 q 109 160 143 114 q 75 258 75 206 q 116 341 75 307 q 224 375 157 375 q 217 292 217 331 q 258 156 217 203 q 363 108 300 108 q 479 154 433 108 q 525 275 525 200 q 490 413 525 344 q 394 533 454 482 q 263 600 333 583 l 294 625 l 813 625 l 813 783 l -17 783 l -17 833 l 1088 833 l 1088 783 l 954 783 l 954 0 l 813 0 l 813 583 m 628 -125 l 111 -125 l 111 -58 l 628 -58 l 628 -125 z "},"ॾ":{"ha":746,"x_min":-17,"x_max":763,"o":"m 367 25 q 531 67 471 25 q 590 186 590 110 q 558 268 590 236 q 478 318 526 300 q 351 356 431 336 q 214 398 265 378 q 126 456 163 418 q 90 554 90 493 q 148 672 90 628 q 306 717 206 717 q 497 672 397 717 l 497 783 l -17 783 l -17 833 l 763 833 l 763 783 l 639 783 l 639 618 l 531 583 q 434 651 490 626 q 318 675 378 675 q 249 656 279 675 q 218 593 218 636 q 245 531 218 556 q 314 491 272 506 q 428 457 356 476 q 578 409 521 432 q 676 342 635 386 q 717 225 717 297 q 669 93 717 147 q 541 11 621 39 q 367 -17 461 -17 q 192 11 267 -17 q 79 85 118 39 q 40 183 40 131 q 85 262 40 232 q 201 292 129 292 q 187 257 192 279 q 182 217 182 235 q 230 79 182 133 q 367 25 278 25 m 628 -125 l 111 -125 l 111 -58 l 628 -58 l 628 -125 z "},"ॿ":{"ha":868,"x_min":-17,"x_max":897,"o":"m 897 833 l 897 783 l 760 783 l 760 0 l 618 0 l 618 283 q 508 138 582 192 q 342 83 435 83 q 192 119 257 83 q 90 221 126 156 q 54 371 54 286 q 90 545 54 471 q 190 660 126 619 q 335 700 254 700 q 495 662 438 700 q 553 558 553 624 q 517 485 553 513 q 425 457 482 457 q 404 599 425 540 q 335 658 383 658 q 247 600 285 658 l 507 190 q 618 375 585 260 l 618 783 l -17 783 l -17 833 l 897 833 m 196 404 q 244 215 196 289 q 383 140 292 140 q 460 160 421 140 l 219 543 q 196 404 196 479 m 78 -58 l 594 -58 l 594 -125 l 78 -125 l 78 -58 z "},"⁄":{"ha":328,"x_min":19,"x_max":306,"o":"m 306 851 l 78 0 l 19 0 l 244 851 l 306 851 z "},"½":{"ha":1194,"x_min":117,"x_max":1111,"o":"m 433 433 l 433 390 l 118 390 l 118 433 l 229 433 l 229 774 l 117 771 l 117 811 q 207 824 157 810 q 290 858 257 838 l 336 858 l 336 433 l 433 433 m 750 851 l 522 0 l 464 0 l 689 851 l 750 851 m 763 331 q 936 476 775 476 q 1065 446 1018 476 q 1111 360 1111 415 q 1094 288 1111 321 q 1026 211 1076 254 l 868 81 l 1111 81 l 1111 0 l 757 0 l 757 65 l 932 211 q 990 283 976 251 q 1004 360 1004 314 q 987 415 1004 396 q 936 435 969 435 q 857 318 858 435 l 763 331 z "},"¼":{"ha":1194,"x_min":107,"x_max":1124,"o":"m 424 433 l 424 390 l 108 390 l 108 433 l 219 433 l 219 774 l 107 771 l 107 811 q 197 824 147 810 q 281 858 247 838 l 326 858 l 326 433 l 424 433 m 750 851 l 522 0 l 464 0 l 689 851 l 750 851 m 1124 89 l 1072 89 l 1072 0 l 965 0 l 965 89 l 719 89 l 719 156 l 914 468 l 1072 468 l 1072 168 l 1124 168 l 1124 89 m 965 168 l 965 431 l 806 168 l 965 168 z "},"¾":{"ha":1194,"x_min":76,"x_max":1124,"o":"m 315 622 q 442 507 442 606 q 392 417 442 453 q 254 381 343 381 q 126 411 169 381 q 76 510 82 442 l 168 519 q 193 448 172 471 q 254 425 214 425 q 340 507 340 425 q 314 579 340 561 q 239 597 288 597 l 183 597 l 183 646 l 240 646 q 312 672 292 646 q 332 749 332 697 q 314 807 332 789 q 256 825 296 825 q 176 722 181 825 l 85 731 q 133 835 90 803 q 256 867 175 867 q 388 834 342 867 q 435 749 435 801 q 402 665 435 697 q 315 622 369 633 m 750 851 l 522 0 l 464 0 l 689 851 l 750 851 m 1124 89 l 1072 89 l 1072 0 l 965 0 l 965 89 l 719 89 l 719 156 l 914 468 l 1072 468 l 1072 168 l 1124 168 l 1124 89 m 965 168 l 965 431 l 806 168 l 965 168 z "},"₀":{"ha":518,"x_min":64,"x_max":451,"o":"m 258 -226 q 106 -162 149 -226 q 64 18 64 -99 q 106 197 64 133 q 258 261 149 261 q 410 198 369 261 q 451 18 451 135 q 410 -163 451 -100 q 258 -226 369 -226 m 257 -182 q 326 -128 307 -182 q 344 18 344 -75 q 326 173 344 125 q 257 221 308 221 q 188 173 207 221 q 169 18 169 125 q 189 -128 169 -75 q 257 -182 208 -182 z "},"₁":{"ha":531,"x_min":107,"x_max":424,"o":"m 424 -174 l 424 -217 l 108 -217 l 108 -174 l 219 -174 l 219 167 l 107 164 l 107 204 q 197 217 147 203 q 281 251 247 231 l 326 251 l 326 -174 l 424 -174 z "},"₂":{"ha":518,"x_min":81,"x_max":435,"o":"m 86 114 q 260 260 99 260 q 388 229 342 260 q 435 143 435 199 q 417 71 435 104 q 350 -6 400 38 l 192 -136 l 435 -136 l 435 -217 l 81 -217 l 81 -151 l 256 -6 q 314 66 300 35 q 328 143 328 97 q 310 199 328 179 q 260 218 293 218 q 181 101 182 218 l 86 114 z "},"₃":{"ha":518,"x_min":76,"x_max":442,"o":"m 315 15 q 408 -21 374 7 q 442 -100 442 -49 q 392 -190 442 -154 q 254 -226 343 -226 q 126 -196 169 -226 q 76 -97 82 -165 l 168 -87 q 193 -159 172 -136 q 254 -182 214 -182 q 340 -100 340 -182 q 314 -28 340 -46 q 239 -10 288 -10 l 183 -10 l 183 39 l 240 39 q 312 65 292 39 q 332 142 332 90 q 314 200 332 182 q 256 218 296 218 q 176 115 181 218 l 85 124 q 133 228 90 196 q 256 260 175 260 q 388 227 342 260 q 435 142 435 194 q 402 58 435 89 q 315 15 369 26 z "},"₄":{"ha":518,"x_min":43,"x_max":447,"o":"m 447 -128 l 396 -128 l 396 -217 l 289 -217 l 289 -128 l 43 -128 l 43 -61 l 238 251 l 396 251 l 396 -49 l 447 -49 l 447 -128 m 289 -49 l 289 214 l 129 -49 l 289 -49 z "},"₅":{"ha":518,"x_min":83,"x_max":443,"o":"m 174 -71 q 256 -182 178 -182 q 317 -154 297 -182 q 338 -83 338 -126 q 301 -6 338 -33 q 179 22 265 22 l 107 22 l 124 251 l 410 251 l 410 171 l 158 171 l 153 64 l 221 64 q 387 24 331 64 q 443 -83 443 -17 q 394 -184 443 -142 q 256 -226 344 -226 q 83 -78 94 -226 l 174 -71 z "},"₆":{"ha":518,"x_min":69,"x_max":447,"o":"m 279 61 q 408 26 368 61 q 447 -74 447 -8 q 264 -226 447 -226 q 116 -165 163 -226 q 69 -4 69 -103 q 113 191 69 122 q 264 260 156 260 q 390 226 347 260 q 435 121 432 192 l 343 113 q 323 192 343 163 q 264 221 303 221 q 194 178 214 221 q 172 44 175 136 q 279 61 224 61 m 264 -182 q 325 -156 307 -182 q 343 -74 343 -129 q 253 18 343 18 q 172 3 210 18 q 193 -142 172 -103 q 264 -182 214 -182 z "},"₇":{"ha":518,"x_min":76,"x_max":433,"o":"m 349 169 l 76 169 l 76 251 l 433 251 l 433 186 l 219 -217 l 126 -217 l 349 169 z "},"₈":{"ha":518,"x_min":69,"x_max":449,"o":"m 351 22 q 424 -24 399 7 q 449 -97 449 -54 q 397 -190 449 -153 q 258 -226 344 -226 q 120 -190 171 -226 q 69 -97 69 -153 q 96 -25 69 -53 q 175 18 122 3 q 76 133 76 47 q 123 224 76 189 q 258 260 169 260 q 394 224 347 260 q 442 133 442 189 q 351 22 442 54 m 258 221 q 200 196 219 221 q 181 133 181 171 q 199 68 181 90 q 260 40 218 46 l 281 39 q 282 38 281 38 q 322 74 308 49 q 335 133 335 100 q 316 196 335 171 q 258 221 297 221 m 258 -182 q 321 -160 300 -182 q 342 -97 342 -139 q 321 -31 342 -56 q 264 0 300 -6 l 244 3 q 176 -97 176 -10 q 198 -158 176 -135 q 258 -182 219 -182 z "},"₉":{"ha":518,"x_min":68,"x_max":450,"o":"m 261 260 q 405 202 360 260 q 450 43 450 144 q 406 -162 450 -97 q 250 -226 361 -226 q 78 -87 82 -226 l 168 -78 q 250 -182 171 -182 q 320 -143 301 -182 q 342 -12 339 -104 q 236 -32 296 -32 q 68 106 68 -32 q 119 217 68 174 q 261 260 169 260 m 176 110 q 197 40 176 69 q 267 10 218 10 q 342 26 307 10 q 322 172 340 124 q 261 221 304 221 q 197 190 218 221 q 176 110 176 160 z "},"⁰":{"ha":518,"x_min":64,"x_max":451,"o":"m 258 457 q 106 521 149 457 q 64 701 64 585 q 106 881 64 817 q 258 944 149 944 q 410 881 369 944 q 451 701 451 818 q 410 520 451 583 q 258 457 369 457 m 257 501 q 326 555 307 501 q 344 701 344 608 q 326 856 344 808 q 257 904 308 904 q 188 856 207 904 q 169 701 169 808 q 189 555 169 608 q 257 501 208 501 z "},"¹":{"ha":531,"x_min":107,"x_max":424,"o":"m 424 510 l 424 467 l 108 467 l 108 510 l 219 510 l 219 850 l 107 847 l 107 888 q 197 900 147 886 q 281 935 247 914 l 326 935 l 326 510 l 424 510 z "},"²":{"ha":518,"x_min":81,"x_max":435,"o":"m 86 797 q 260 943 99 943 q 388 913 342 943 q 435 826 435 882 q 417 754 435 788 q 350 678 400 721 l 192 547 l 435 547 l 435 467 l 81 467 l 81 532 l 256 678 q 314 749 300 718 q 328 826 328 781 q 310 882 328 863 q 260 901 293 901 q 181 785 182 901 l 86 797 z "},"³":{"ha":518,"x_min":76,"x_max":442,"o":"m 315 699 q 408 663 374 690 q 442 583 442 635 q 392 493 442 529 q 254 457 343 457 q 126 488 169 457 q 76 586 82 518 l 168 596 q 193 524 172 547 q 254 501 214 501 q 340 583 340 501 q 314 656 340 638 q 239 674 288 674 l 183 674 l 183 722 l 240 722 q 312 748 292 722 q 332 825 332 774 q 314 883 332 865 q 256 901 296 901 q 176 799 181 901 l 85 807 q 133 911 90 879 q 256 943 175 943 q 388 910 342 943 q 435 825 435 878 q 402 741 435 772 q 315 699 369 710 z "},"⁴":{"ha":518,"x_min":43,"x_max":447,"o":"m 447 556 l 396 556 l 396 467 l 289 467 l 289 556 l 43 556 l 43 622 l 238 935 l 396 935 l 396 635 l 447 635 l 447 556 m 289 635 l 289 897 l 129 635 l 289 635 z "},"⁵":{"ha":518,"x_min":83,"x_max":443,"o":"m 174 613 q 256 501 178 501 q 317 529 297 501 q 338 600 338 557 q 301 678 338 650 q 179 706 265 706 l 107 706 l 124 935 l 410 935 l 410 854 l 158 854 l 153 747 l 221 747 q 387 707 331 747 q 443 600 443 667 q 394 499 443 542 q 256 457 344 457 q 83 606 94 457 l 174 613 z "},"⁶":{"ha":518,"x_min":69,"x_max":447,"o":"m 279 744 q 408 710 368 744 q 447 610 447 675 q 264 457 447 457 q 116 519 163 457 q 69 679 69 581 q 113 874 69 806 q 264 943 156 943 q 390 909 347 943 q 435 804 432 875 l 343 796 q 323 875 343 846 q 264 904 303 904 q 194 862 214 904 q 172 728 175 819 q 279 744 224 744 m 264 501 q 325 528 307 501 q 343 610 343 554 q 253 701 343 701 q 172 686 211 701 q 193 541 172 581 q 264 501 214 501 z "},"⁷":{"ha":518,"x_min":76,"x_max":433,"o":"m 349 853 l 76 853 l 76 935 l 433 935 l 433 869 l 219 467 l 126 467 l 349 853 z "},"⁸":{"ha":518,"x_min":69,"x_max":449,"o":"m 351 706 q 424 660 399 690 q 449 586 449 629 q 397 494 449 531 q 258 457 344 457 q 120 494 171 457 q 69 586 69 531 q 96 658 69 631 q 175 701 122 686 q 76 817 76 731 q 123 908 76 872 q 258 943 169 943 q 394 908 347 943 q 442 817 442 872 q 351 706 442 738 m 258 904 q 200 879 219 904 q 181 817 181 854 q 199 751 181 774 q 260 724 218 729 l 281 722 q 282 721 281 721 q 322 758 308 732 q 335 817 335 783 q 316 879 335 854 q 258 904 297 904 m 258 501 q 321 523 300 501 q 342 586 342 544 q 321 653 342 628 q 264 683 300 678 l 244 686 q 176 586 176 674 q 198 525 176 549 q 258 501 219 501 z "},"⁹":{"ha":518,"x_min":68,"x_max":450,"o":"m 261 943 q 405 885 360 943 q 450 726 450 828 q 406 522 450 586 q 250 457 361 457 q 78 596 82 457 l 168 606 q 250 501 171 501 q 320 540 301 501 q 342 671 339 579 q 236 651 296 651 q 68 789 68 651 q 119 900 68 857 q 261 943 169 943 m 176 793 q 197 723 176 753 q 267 693 218 693 q 342 710 307 693 q 322 856 340 807 q 261 904 304 904 q 197 874 218 904 q 176 793 176 843 z "},"०":{"ha":917,"x_min":117,"x_max":825,"o":"m 492 829 q 674 774 599 829 q 787 628 749 718 q 825 435 825 539 q 783 227 825 326 q 657 66 740 128 q 458 4 574 4 q 272 60 350 4 q 156 206 194 115 q 117 400 117 296 q 160 608 117 510 q 289 768 204 707 q 492 829 374 829 m 425 779 q 301 695 343 779 q 258 485 258 611 q 288 282 258 382 q 373 118 318 182 q 500 54 428 54 q 635 139 588 54 q 683 347 683 224 q 653 551 683 451 q 563 715 622 651 q 425 779 504 779 z "},"१":{"ha":915,"x_min":243,"x_max":694,"o":"m 682 681 q 649 585 682 628 q 543 488 615 542 q 454 419 489 447 q 409 377 419 390 q 399 349 399 364 q 410 320 399 335 q 447 285 421 306 q 521 229 456 278 q 634 141 601 168 q 681 94 667 114 q 694 50 694 74 q 670 -8 694 10 q 611 -25 646 -25 q 563 -19 586 -25 q 528 0 540 -12 q 563 40 563 13 q 553 65 563 53 q 508 105 543 76 q 418 175 472 133 l 306 261 q 257 338 257 296 q 271 384 257 363 q 317 431 285 406 q 422 508 349 457 q 338 526 379 508 q 269 578 296 543 q 243 663 243 614 q 308 784 243 740 q 463 828 374 828 q 617 789 551 828 q 682 681 682 750 m 463 779 q 407 751 429 779 q 385 681 385 722 q 408 599 385 636 q 467 543 431 561 q 526 615 511 579 q 540 692 540 650 q 518 752 540 725 q 463 779 496 779 z "},"२":{"ha":917,"x_min":132,"x_max":806,"o":"m 497 838 q 720 781 635 838 q 806 625 806 724 q 739 456 806 533 q 557 333 672 378 q 304 288 442 288 q 570 117 475 163 q 758 72 665 72 q 704 8 739 31 q 635 -14 669 -14 q 504 26 575 -14 q 328 142 433 67 q 205 224 249 197 q 132 250 161 250 q 159 306 132 282 q 246 329 186 329 q 449 365 353 329 q 604 465 544 400 q 664 617 664 531 q 615 745 664 703 q 497 788 565 788 q 398 750 440 788 q 356 643 356 713 q 382 561 356 599 q 453 501 408 524 q 551 479 499 479 q 513 450 546 463 q 453 438 481 438 q 333 463 388 438 q 246 531 278 488 q 214 626 214 575 q 251 738 214 690 q 354 812 289 786 q 497 838 419 838 z "},"३":{"ha":917,"x_min":139,"x_max":783,"o":"m 468 850 q 615 827 553 850 q 708 766 676 804 q 739 681 739 728 q 682 549 739 608 q 514 461 625 489 q 720 370 657 432 q 783 229 783 308 q 737 107 783 164 q 612 17 690 50 q 442 -17 533 -17 q 222 35 306 -17 q 139 185 139 86 q 190 266 139 232 q 303 300 240 300 q 287 251 292 278 q 282 204 282 224 q 328 77 282 121 q 443 33 374 33 q 590 92 539 33 q 642 231 642 150 q 606 344 642 297 q 511 413 569 390 q 386 436 453 436 q 339 433 357 436 q 299 419 321 429 l 336 478 q 534 530 471 478 q 597 672 597 582 q 556 761 597 722 q 458 800 515 800 q 364 772 406 800 q 322 704 322 744 q 330 656 322 688 q 350 615 338 625 q 310 590 332 599 q 267 582 288 582 q 203 608 229 582 q 178 676 178 633 q 217 763 178 722 q 324 826 257 803 q 468 850 392 850 z "},"४":{"ha":917,"x_min":206,"x_max":867,"o":"m 508 514 q 583 453 533 492 q 674 374 642 406 q 728 301 707 343 q 750 203 750 258 q 712 78 750 129 q 612 2 674 28 q 479 -24 550 -24 q 351 1 411 -24 q 255 74 292 25 q 218 192 218 122 q 254 349 218 272 q 378 515 290 426 q 250 640 294 578 q 206 792 206 701 q 226 863 206 833 q 275 908 246 893 q 333 924 304 924 q 363 725 333 808 q 446 578 393 642 q 826 850 582 697 q 867 803 867 850 q 508 514 632 638 m 481 33 q 571 72 533 33 q 608 200 608 111 q 569 341 608 282 q 456 457 529 400 q 379 333 399 388 q 360 215 360 278 q 395 83 360 132 q 481 33 431 33 z "},"५":{"ha":917,"x_min":92,"x_max":824,"o":"m 710 567 q 724 483 710 526 q 767 364 738 439 q 809 249 794 296 q 824 160 824 201 q 785 27 824 79 q 667 -25 746 -25 q 604 -6 631 -25 q 578 38 578 14 q 697 160 697 51 q 681 252 697 203 q 633 374 664 301 q 622 401 628 386 q 608 433 615 417 q 519 303 585 356 q 375 250 454 250 q 230 284 294 250 q 128 380 165 318 q 92 525 92 442 q 159 704 92 619 q 349 850 226 789 q 375 838 360 850 q 390 803 390 825 q 278 679 317 747 q 239 525 239 611 q 285 376 239 428 q 400 325 331 325 q 490 353 449 325 q 557 428 532 381 q 582 532 582 475 q 622 647 582 610 q 757 683 663 683 q 710 567 710 626 z "},"६":{"ha":917,"x_min":158,"x_max":815,"o":"m 513 842 q 694 810 626 842 q 763 731 763 778 q 727 687 763 706 q 629 668 692 668 q 579 758 621 725 q 485 792 538 792 q 385 758 425 792 q 346 664 346 724 q 381 575 346 615 q 477 511 417 535 q 608 488 538 488 l 608 438 q 381 381 461 438 q 300 235 300 325 q 325 131 300 179 q 398 54 350 83 q 510 25 446 25 q 651 58 585 25 q 774 176 718 90 l 815 149 q 663 13 747 50 q 471 -25 578 -25 q 313 8 385 -25 q 200 98 242 42 q 158 222 158 154 q 190 327 158 276 q 280 414 222 378 q 413 463 338 450 q 294 506 342 475 q 226 576 247 538 q 204 647 204 614 q 290 792 204 743 q 513 842 376 842 z "},"७":{"ha":918,"x_min":90,"x_max":800,"o":"m 539 708 q 667 660 607 708 q 764 529 728 611 q 800 350 800 447 q 768 159 800 244 q 672 24 736 74 q 518 -25 608 -25 q 302 56 400 -25 q 147 284 204 138 q 90 617 90 431 q 144 777 90 729 q 268 825 197 825 q 232 617 232 707 q 276 322 232 458 q 390 106 319 186 q 535 25 460 25 q 638 86 603 25 q 672 247 672 147 q 667 371 672 317 q 529 292 619 292 q 397 349 450 292 q 344 501 344 406 q 371 605 344 557 q 442 681 397 653 q 539 708 486 708 m 558 342 q 616 372 588 342 q 654 461 644 401 q 608 604 638 550 q 539 658 578 658 q 485 617 506 658 q 465 511 465 575 q 492 392 465 442 q 558 342 519 342 z "},"८":{"ha":917,"x_min":150,"x_max":761,"o":"m 722 783 q 292 225 292 518 q 317 117 292 163 q 384 48 343 71 q 472 25 425 25 q 576 73 533 25 q 619 208 619 121 q 610 292 619 229 q 720 262 679 292 q 761 175 761 232 q 725 76 761 122 q 622 3 689 31 q 467 -25 556 -25 q 309 3 381 -25 q 194 93 238 32 q 150 246 150 154 q 280 531 150 383 q 682 829 410 679 q 711 817 700 829 q 722 783 722 806 z "},"९":{"ha":918,"x_min":133,"x_max":806,"o":"m 714 -33 q 640 0 664 -33 q 685 43 685 0 q 673 81 685 63 q 633 126 661 99 l 240 471 q 163 554 192 515 q 133 635 133 593 q 168 731 133 688 q 261 800 203 775 q 389 825 319 825 q 505 804 453 825 q 587 748 557 783 q 617 672 617 713 q 590 602 617 635 q 512 549 564 569 q 385 529 460 529 l 343 529 l 679 235 q 779 132 753 168 q 806 56 806 96 q 784 -8 806 17 q 714 -33 763 -33 m 294 571 q 437 595 396 571 q 478 668 478 619 q 447 743 478 711 q 375 775 415 775 q 285 743 317 775 q 253 664 253 711 q 264 613 253 638 q 294 571 275 589 z "},"*":{"ha":647,"x_min":28,"x_max":621,"o":"m 393 804 l 346 674 l 304 674 l 256 804 l 256 908 l 393 908 l 393 804 m 168 735 l 279 656 l 267 618 l 129 617 l 28 651 l 67 768 l 168 735 m 519 617 l 383 614 l 369 656 l 476 735 l 579 768 l 621 651 l 519 617 m 163 514 l 276 590 l 308 561 l 271 435 l 207 346 l 100 422 l 163 514 m 376 435 l 338 561 l 372 589 l 483 514 l 547 422 l 440 346 l 376 435 z "},"\\":{"ha":451,"x_min":18,"x_max":436,"o":"m 294 -124 l 18 906 l 160 906 l 436 -124 l 294 -124 z "},"·":{"ha":243,"x_min":40,"x_max":201,"o":"m 119 300 q 64 325 88 300 q 40 382 40 350 q 64 439 40 415 q 119 463 88 463 q 178 439 154 463 q 201 382 201 415 q 178 324 201 349 q 119 300 154 300 z "},"•":{"ha":325,"x_min":39,"x_max":279,"o":"m 158 299 q 74 335 110 299 q 39 421 39 372 q 74 507 39 472 q 158 542 110 542 q 244 507 210 542 q 279 421 279 472 q 244 335 279 371 q 158 299 208 299 z "},":":{"ha":243,"x_min":40,"x_max":201,"o":"m 119 -10 q 64 15 88 -10 q 40 72 40 40 q 64 129 40 106 q 119 153 88 153 q 178 129 154 153 q 201 72 201 106 q 178 15 201 39 q 119 -10 154 -10 m 119 460 q 64 485 88 460 q 40 542 40 510 q 64 599 40 575 q 119 622 88 622 q 178 599 154 622 q 201 542 201 575 q 178 484 201 508 q 119 460 154 460 z "},",":{"ha":243,"x_min":32,"x_max":194,"o":"m 119 153 q 173 128 151 153 q 194 65 194 104 q 153 -61 194 -6 q 57 -150 113 -117 l 32 -118 q 61 -78 53 -99 q 69 -25 69 -57 q 57 24 69 -7 q 44 78 44 61 q 67 131 44 108 q 119 153 89 153 z "},"…":{"ha":797,"x_min":40,"x_max":757,"o":"m 119 -10 q 64 15 88 -10 q 40 72 40 40 q 64 129 40 106 q 119 153 88 153 q 178 129 154 153 q 201 72 201 106 q 178 15 201 39 q 119 -10 154 -10 m 675 -10 q 619 15 643 -10 q 596 72 596 40 q 619 129 596 106 q 675 153 643 153 q 733 129 710 153 q 757 72 757 106 q 733 15 757 39 q 675 -10 710 -10 m 397 -10 q 342 15 365 -10 q 318 72 318 40 q 342 129 318 106 q 397 153 365 153 q 456 129 432 153 q 479 72 479 106 q 456 15 479 39 q 397 -10 432 -10 z "},"!":{"ha":383,"x_min":110,"x_max":272,"o":"m 261 644 l 231 240 l 149 240 l 119 644 l 119 851 l 261 851 l 261 644 m 190 -10 q 134 15 158 -10 q 110 72 110 40 q 134 129 110 106 q 190 153 158 153 q 248 129 224 153 q 272 72 272 106 q 248 15 272 39 q 190 -10 224 -10 z "},"¡":{"ha":383,"x_min":110,"x_max":272,"o":"m 190 685 q 248 661 224 685 q 272 604 272 638 q 248 547 272 571 q 190 524 224 524 q 133 547 157 524 q 110 604 110 571 q 134 660 110 636 q 190 685 158 685 m 119 -176 l 119 32 l 149 436 l 231 436 l 261 32 l 261 -176 l 119 -176 z "},"#":{"ha":961,"x_min":56,"x_max":904,"o":"m 763 551 l 717 299 l 839 299 l 819 188 l 697 188 l 647 -89 l 506 -89 l 556 188 l 319 188 l 269 -89 l 128 -89 l 178 188 l 56 188 l 75 299 l 199 299 l 244 551 l 121 551 l 142 664 l 265 664 l 315 940 l 457 940 l 407 664 l 642 664 l 693 940 l 835 940 l 783 664 l 904 664 l 885 551 l 763 551 m 621 551 l 386 551 l 340 299 l 575 299 l 621 551 z "},".":{"ha":243,"x_min":40,"x_max":201,"o":"m 119 -10 q 64 15 88 -10 q 40 72 40 40 q 64 129 40 106 q 119 153 88 153 q 178 129 154 153 q 201 72 201 106 q 178 15 201 39 q 119 -10 154 -10 z "},"?":{"ha":593,"x_min":39,"x_max":564,"o":"m 39 647 q 119 810 53 751 q 300 868 186 868 q 446 836 386 868 q 535 751 506 804 q 564 636 564 699 q 500 474 564 540 q 335 374 436 408 l 319 240 l 232 240 l 219 374 q 381 489 332 422 q 429 656 429 556 q 397 771 429 731 q 300 811 364 811 q 160 628 179 811 l 39 647 m 275 -10 q 218 15 242 -10 q 194 72 194 39 q 218 129 194 106 q 275 153 242 153 q 331 129 307 153 q 356 72 356 106 q 331 15 356 39 q 275 -10 307 -10 z "},"¿":{"ha":581,"x_min":13,"x_max":538,"o":"m 301 685 q 358 660 335 685 q 382 604 382 636 q 358 547 382 569 q 301 524 335 524 q 244 547 268 524 q 221 604 221 571 q 245 661 221 638 q 301 685 269 685 m 538 29 q 457 -135 524 -76 q 276 -193 390 -193 q 131 -161 190 -193 q 42 -76 71 -129 q 13 39 13 -24 q 76 201 13 135 q 242 301 140 267 l 257 436 l 344 436 l 357 301 q 196 186 244 253 q 147 19 147 119 q 180 -96 147 -56 q 276 -136 213 -136 q 417 49 397 -136 l 538 29 z "},"\"":{"ha":483,"x_min":64,"x_max":418,"o":"m 203 781 l 172 551 l 93 551 l 64 781 l 64 851 l 203 851 l 203 781 m 418 781 l 388 551 l 308 551 l 281 781 l 281 851 l 418 851 l 418 781 z "},"'":{"ha":267,"x_min":64,"x_max":203,"o":"m 203 781 l 172 551 l 93 551 l 64 781 l 64 851 l 203 851 l 203 781 z "},";":{"ha":243,"x_min":32,"x_max":196,"o":"m 119 153 q 173 128 151 153 q 194 65 194 104 q 153 -61 194 -6 q 57 -150 113 -117 l 32 -118 q 61 -78 53 -99 q 69 -25 69 -57 q 57 24 69 -7 q 44 78 44 61 q 67 131 44 108 q 119 153 89 153 m 114 460 q 58 485 82 460 q 35 542 35 510 q 58 599 35 575 q 114 622 82 622 q 172 599 149 622 q 196 542 196 575 q 172 484 196 508 q 114 460 149 460 z "},"/":{"ha":451,"x_min":18,"x_max":436,"o":"m 436 906 l 160 -124 l 18 -124 l 294 906 l 436 906 z "},"_":{"ha":664,"x_min":76,"x_max":589,"o":"m 589 0 l 589 -99 l 76 -99 l 76 0 l 589 0 z "},"{":{"ha":376,"x_min":11,"x_max":365,"o":"m 168 425 q 219 406 199 425 q 240 350 240 386 q 235 286 240 328 q 229 208 229 239 q 365 17 229 17 l 365 -42 q 151 23 218 -42 q 85 194 85 88 q 90 268 85 221 q 93 294 92 279 q 94 329 94 310 q 68 381 94 364 q 11 397 42 397 l 11 456 q 67 472 40 456 q 94 522 94 488 q 93 559 94 543 q 90 586 92 575 q 85 657 85 631 q 151 829 85 765 q 365 893 217 893 l 365 836 q 229 651 229 836 q 235 575 229 619 q 240 514 240 536 q 219 456 240 478 q 168 435 199 435 l 168 425 z "},"}":{"ha":376,"x_min":11,"x_max":365,"o":"m 208 435 q 158 456 179 435 q 136 514 136 478 q 142 575 136 536 q 147 651 147 619 q 11 836 147 836 l 11 893 q 226 829 160 893 q 292 657 292 765 q 290 618 292 640 q 288 586 288 596 q 283 522 283 553 q 310 472 283 488 q 365 456 336 456 l 365 397 q 310 381 336 397 q 283 329 283 364 q 288 268 283 300 q 290 235 289 257 q 292 194 292 213 q 225 23 292 88 q 11 -42 158 -42 l 11 17 q 116 67 85 17 q 147 208 147 118 q 142 286 147 239 q 136 350 136 328 q 157 406 136 386 q 208 425 178 425 l 208 435 z "},"[":{"ha":372,"x_min":88,"x_max":363,"o":"m 231 835 l 231 17 l 363 17 l 363 -42 l 88 -42 l 88 893 l 363 893 l 363 835 l 231 835 z "},"]":{"ha":372,"x_min":10,"x_max":286,"o":"m 286 -42 l 10 -42 l 10 17 l 142 17 l 142 835 l 10 835 l 10 893 l 286 893 l 286 -42 z "},"(":{"ha":367,"x_min":49,"x_max":356,"o":"m 356 -42 q 117 94 185 -42 q 49 425 49 229 q 117 756 49 619 q 356 893 185 893 l 356 835 q 234 711 272 835 q 196 425 196 588 q 235 140 196 264 q 356 17 274 17 l 356 -42 z "},")":{"ha":367,"x_min":11,"x_max":318,"o":"m 11 17 q 132 140 93 17 q 171 425 171 264 q 133 711 171 588 q 11 835 94 835 l 11 893 q 250 756 182 893 q 318 425 318 619 q 250 94 318 229 q 11 -42 182 -42 l 11 17 z "},"—":{"ha":1051,"x_min":76,"x_max":978,"o":"m 978 422 l 978 324 l 76 324 l 76 422 l 978 422 z "},"–":{"ha":664,"x_min":76,"x_max":589,"o":"m 589 422 l 589 324 l 76 324 l 76 422 l 589 422 z "},"-":{"ha":560,"x_min":76,"x_max":486,"o":"m 486 422 l 486 324 l 76 324 l 76 422 l 486 422 z "},"­":{"ha":569,"x_min":72,"x_max":518,"o":"m 72 415 l 482 415 l 518 493 l 110 493 l 72 415 z "},"«":{"ha":603,"x_min":42,"x_max":560,"o":"m 296 182 l 251 139 l 42 343 l 42 394 l 251 597 l 296 554 l 165 368 l 296 182 m 560 182 l 511 139 l 306 343 l 306 394 l 511 597 l 560 554 l 426 368 l 560 182 z "},"»":{"ha":603,"x_min":44,"x_max":561,"o":"m 44 554 l 92 597 l 299 394 l 299 343 l 92 139 l 44 182 l 176 368 l 44 554 m 308 554 l 353 597 l 561 394 l 561 343 l 353 139 l 308 182 l 438 368 l 308 554 z "},"‹":{"ha":342,"x_min":42,"x_max":296,"o":"m 296 182 l 251 139 l 42 343 l 42 394 l 251 597 l 296 554 l 165 368 l 296 182 z "},"›":{"ha":342,"x_min":46,"x_max":300,"o":"m 46 554 l 90 597 l 300 394 l 300 343 l 90 139 l 46 182 l 176 368 l 46 554 z "},"„":{"ha":485,"x_min":32,"x_max":438,"o":"m 363 153 q 416 128 394 153 q 438 65 438 104 q 397 -61 438 -6 q 300 -150 356 -117 l 275 -118 q 304 -78 296 -99 q 313 -25 313 -57 q 300 24 313 -7 q 288 78 288 61 q 310 131 288 108 q 363 153 332 153 m 119 153 q 173 128 151 153 q 194 65 194 104 q 153 -61 194 -6 q 57 -150 113 -117 l 32 -118 q 61 -78 53 -99 q 69 -25 69 -57 q 57 24 69 -7 q 44 78 44 61 q 67 131 44 108 q 119 153 89 153 z "},"“":{"ha":474,"x_min":49,"x_max":426,"o":"m 124 575 q 70 599 92 575 q 49 661 49 624 q 90 788 49 732 q 186 876 131 843 l 211 844 q 182 804 190 825 q 174 751 174 783 q 185 706 174 736 q 199 649 199 669 q 176 597 199 618 q 124 575 154 575 m 339 575 q 285 599 307 575 q 264 661 264 624 q 305 788 264 732 q 401 876 346 843 l 426 844 q 397 804 406 825 q 389 751 389 783 q 400 706 389 736 q 414 649 414 669 q 392 597 414 618 q 339 575 369 575 z "},"”":{"ha":474,"x_min":47,"x_max":426,"o":"m 135 881 q 188 856 167 881 q 210 793 210 832 q 169 667 210 722 q 72 578 128 611 l 47 610 q 76 650 68 629 q 85 703 85 671 q 72 751 85 721 q 60 806 60 789 q 82 858 60 836 q 135 881 104 881 m 351 881 q 405 856 383 881 q 426 793 426 832 q 385 667 426 722 q 289 578 344 611 l 264 610 q 293 650 285 629 q 301 703 301 671 q 289 751 301 721 q 276 806 276 789 q 299 858 276 836 q 351 881 321 881 z "},"‘":{"ha":257,"x_min":49,"x_max":211,"o":"m 124 575 q 70 599 92 575 q 49 661 49 624 q 90 788 49 732 q 186 876 131 843 l 211 844 q 182 804 190 825 q 174 751 174 783 q 185 706 174 736 q 199 649 199 669 q 176 597 199 618 q 124 575 154 575 z "},"’":{"ha":257,"x_min":47,"x_max":210,"o":"m 135 881 q 188 856 167 881 q 210 793 210 832 q 169 668 210 724 q 72 578 128 613 l 47 610 q 76 651 68 631 q 85 703 85 672 q 72 751 85 721 q 60 806 60 789 q 82 858 60 836 q 135 881 104 881 z "},"‚":{"ha":243,"x_min":32,"x_max":194,"o":"m 119 153 q 173 128 151 153 q 194 65 194 104 q 153 -61 194 -6 q 57 -150 113 -117 l 32 -118 q 61 -78 53 -99 q 69 -25 69 -57 q 57 24 69 -7 q 44 78 44 61 q 67 131 44 108 q 119 153 89 153 z "},"ॽ":{"ha":683,"x_min":43,"x_max":647,"o":"m 328 833 q 489 803 415 833 q 605 720 563 772 q 647 606 647 668 q 627 489 647 539 q 577 404 607 439 q 496 321 547 369 q 409 233 442 272 q 353 135 376 193 q 331 0 331 78 q 265 34 290 0 q 239 118 239 68 q 258 217 239 172 q 306 297 278 263 q 379 381 333 332 q 474 495 443 447 q 506 606 506 543 q 463 740 506 688 q 343 792 421 792 q 217 729 264 792 q 171 539 171 667 q 77 557 111 539 q 43 625 43 575 q 87 733 43 685 q 197 807 131 781 q 328 833 263 833 z "},"।":{"ha":492,"x_min":233,"x_max":375,"o":"m 375 -67 l 233 -67 l 233 900 l 375 900 l 375 -67 z "},"॥":{"ha":842,"x_min":233,"x_max":725,"o":"m 375 -67 l 233 -67 l 233 900 l 375 900 l 375 -67 m 725 -67 l 583 -67 l 583 900 l 725 900 l 725 -67 z "},"॰":{"ha":1083,"x_min":117,"x_max":967,"o":"m 567 458 q 768 426 676 458 q 913 338 860 393 q 967 217 967 282 q 906 110 967 160 q 741 30 844 60 q 517 0 638 0 q 315 33 407 0 q 170 124 224 67 q 117 249 117 182 q 178 353 117 306 q 342 430 239 401 q 567 458 444 458 m 467 415 q 343 378 394 415 q 292 290 292 342 q 331 162 292 221 q 435 68 369 103 q 579 33 501 33 q 685 53 636 33 q 763 106 735 72 q 792 179 792 140 q 748 297 792 243 q 629 383 704 351 q 467 415 554 415 z "},"ॱ":{"ha":429,"x_min":108,"x_max":321,"o":"m 214 1013 q 140 1044 171 1013 q 108 1118 108 1075 q 139 1194 108 1164 q 214 1225 169 1225 q 290 1194 260 1225 q 321 1118 321 1164 q 290 1044 321 1075 q 214 1013 260 1013 z "}," ":{"ha":1667,"x_min":0,"x_max":0,"o":""}," ":{"ha":1667,"x_min":0,"x_max":0,"o":""}," ":{"ha":2500,"x_min":0,"x_max":0,"o":""}," ":{"ha":833,"x_min":0,"x_max":0,"o":""}," ":{"ha":1049,"x_min":0,"x_max":0,"o":""}," ":{"ha":417,"x_min":0,"x_max":0,"o":""}," ":{"ha":167,"x_min":0,"x_max":0,"o":""}," ":{"ha":589,"x_min":0,"x_max":0,"o":""}," ":{"ha":278,"x_min":0,"x_max":0,"o":""}," ":{"ha":326,"x_min":0,"x_max":0,"o":""}," ":{"ha":333,"x_min":0,"x_max":0,"o":""}," ":{"ha":556,"x_min":0,"x_max":0,"o":""},"‍":{"ha":0,"x_min":0,"x_max":0,"o":""},"‌":{"ha":0,"x_min":0,"x_max":0,"o":""},"":{"ha":0,"x_min":0,"x_max":0,"o":""},"€":{"ha":735,"x_min":40,"x_max":703,"o":"m 435 42 q 541 90 500 42 q 582 222 582 138 l 703 213 q 635 43 701 103 q 435 -17 568 -17 q 212 66 285 -17 q 121 297 139 149 l 40 297 l 40 382 l 115 382 q 114 425 114 396 q 115 471 114 456 l 40 471 l 40 557 l 121 557 q 213 786 140 704 q 435 868 286 868 q 633 810 567 868 q 703 643 700 751 l 581 635 q 540 765 581 718 q 435 811 499 811 q 310 746 351 811 q 260 557 269 681 l 494 557 l 494 471 l 256 471 l 256 425 l 256 382 l 494 382 l 494 297 l 260 297 q 310 107 269 172 q 435 42 350 42 z "},"¢":{"ha":735,"x_min":85,"x_max":674,"o":"m 674 281 q 610 116 665 176 q 438 46 556 56 l 438 -94 l 342 -94 l 342 47 q 140 164 194 64 q 85 425 85 264 q 140 683 85 583 q 342 803 194 783 l 342 944 l 438 944 l 438 806 q 664 556 647 790 l 551 550 q 514 694 549 639 q 410 750 479 750 q 290 707 331 750 q 238 596 250 664 q 225 425 225 528 q 261 188 225 275 q 393 101 297 101 q 520 149 481 101 q 564 286 560 196 l 674 281 z "},"¤":{"ha":735,"x_min":47,"x_max":689,"o":"m 626 425 q 589 274 626 336 l 689 171 l 624 106 l 522 206 q 365 167 461 167 q 217 207 278 167 l 113 106 l 47 171 l 153 279 q 119 425 119 340 q 154 574 119 514 l 47 682 l 113 746 l 218 642 q 381 685 281 685 q 524 647 467 685 l 624 746 l 689 682 l 588 581 q 626 425 626 518 m 365 224 q 471 282 439 224 q 503 425 503 340 q 474 569 503 510 q 381 628 446 628 q 276 569 308 628 q 244 425 244 510 q 274 283 244 343 q 365 224 303 224 z "},"$":{"ha":735,"x_min":82,"x_max":667,"o":"m 667 233 q 418 -7 667 13 l 418 -132 l 324 -132 l 324 -7 q 138 62 193 1 q 82 239 82 122 l 204 246 q 242 100 204 150 q 368 50 281 50 q 492 91 457 50 q 526 215 526 132 q 499 310 526 275 q 410 357 471 344 l 304 374 q 142 449 192 390 q 92 611 92 507 q 146 785 92 724 q 324 857 200 847 l 324 983 l 418 983 l 418 857 q 597 788 543 847 q 651 617 651 728 l 525 606 q 490 753 525 706 q 371 801 456 801 q 260 760 292 801 q 229 633 229 718 q 253 536 229 572 q 333 492 278 500 l 438 481 q 667 233 667 449 z "},"ƒ":{"ha":735,"x_min":129,"x_max":644,"o":"m 489 789 q 428 762 450 789 q 406 692 406 735 l 406 449 l 596 449 l 596 353 l 406 353 l 406 15 q 384 -141 406 -83 q 305 -227 363 -199 q 139 -256 247 -256 l 129 -199 q 214 -178 185 -199 q 254 -111 243 -157 q 265 18 265 -65 l 265 353 l 136 353 l 136 449 l 265 449 l 265 653 q 320 815 265 761 q 478 868 375 868 q 560 855 521 868 q 644 817 600 842 l 597 718 q 489 789 550 789 z "},"₣":{"ha":601,"x_min":33,"x_max":561,"o":"m 256 772 l 256 471 l 526 471 l 526 393 l 256 393 l 256 240 l 413 240 l 413 161 l 256 161 l 256 0 l 114 0 l 114 161 l 33 161 l 33 240 l 114 240 l 114 851 l 561 851 l 561 772 l 256 772 z "},"₤":{"ha":735,"x_min":72,"x_max":685,"o":"m 685 113 l 685 0 l 85 0 l 85 86 q 135 149 119 113 q 150 224 150 186 l 150 239 l 72 239 l 72 326 l 150 326 l 150 422 l 72 422 l 72 507 l 150 507 l 150 614 q 213 803 150 738 q 419 868 275 868 q 615 804 556 868 q 674 611 674 740 l 549 604 q 518 758 549 706 q 419 811 488 811 q 322 762 349 811 q 296 614 296 713 l 296 507 l 560 507 l 560 422 l 296 422 l 296 326 l 560 326 l 560 239 l 294 239 q 280 163 294 190 q 231 113 265 135 l 685 113 z "},"₹":{"ha":1072,"x_min":103,"x_max":964,"o":"m 964 782 l 653 782 q 717 714 692 760 q 749 611 743 668 l 964 611 l 964 561 l 747 561 q 665 401 736 460 q 465 342 593 342 q 354 351 411 342 q 610 144 503 218 q 792 71 717 71 q 663 -11 749 -11 q 526 51 608 -11 q 318 226 443 113 q 186 343 238 301 q 103 396 135 385 q 160 443 129 426 q 221 460 192 460 q 262 453 243 460 q 306 433 281 446 q 363 408 338 417 q 419 400 388 400 q 552 438 510 400 q 606 561 594 476 l 108 561 l 108 611 l 607 611 q 565 713 599 668 q 481 782 532 758 l 108 782 l 108 833 l 964 833 l 964 782 z "},"£":{"ha":735,"x_min":76,"x_max":685,"o":"m 685 113 l 685 0 l 85 0 l 85 86 q 135 149 119 113 q 150 224 150 186 l 150 353 l 76 353 l 76 450 l 150 450 l 150 614 q 213 803 150 738 q 419 868 275 868 q 615 804 556 868 q 674 611 674 740 l 549 604 q 518 758 549 706 q 419 811 488 811 q 322 762 349 811 q 296 614 296 713 l 296 450 l 558 450 l 558 353 l 296 353 l 296 246 q 281 165 296 194 q 231 113 267 136 l 685 113 z "},"¥":{"ha":735,"x_min":35,"x_max":701,"o":"m 550 531 l 661 531 l 661 447 l 510 447 l 468 357 l 661 357 l 661 272 l 439 272 l 439 0 l 296 0 l 296 272 l 72 272 l 72 357 l 268 357 l 225 447 l 72 447 l 72 531 l 186 531 l 35 851 l 178 851 l 393 376 l 618 851 l 701 851 l 550 531 z "}}}
